<?xml version="1.0" standalone="no"?>
<!DOCTYPE svg PUBLIC "-//W3C//DTD SVG 1.1//EN" "http://www.w3.org/Graphics/SVG/1.1/DTD/svg11.dtd" >
<svg xmlns="http://www.w3.org/2000/svg" xmlns:xlink="http://www.w3.org/1999/xlink" version="1.1">
<metadata>
Created by FontForge 20200427 at Mon Jul 23 20:05:54 2018
 By www
Copyright (c) 2018 by Nicky Laatz. All rights reserved.
</metadata>
<defs>
<font id="SignatureCollection" horiz-adv-x="405" >
  <font-face 
    font-family="Signature Collection "
    font-weight="400"
    font-stretch="normal"
    units-per-em="2048"
    panose-1="0 0 0 0 0 0 0 0 0 0"
    ascent="1638"
    descent="-410"
    x-height="362.5"
    cap-height="1522"
    bbox="-809 -1736.27 2188.92 2013.5"
    underline-thickness="102"
    underline-position="-715"
    unicode-range="U+000D-FB02"
  />
<missing-glyph horiz-adv-x="748" 
d="M68 0v1365h544v-1365h-544zM136 68h408v1229h-408v-1229z" />
    <glyph glyph-name="uniFB02" unicode="fl" horiz-adv-x="847" 
d="M-8 -168q0 27 1 51.5t1 50.5v31q2 49 6 98.5t10 96.5q6 37 10 76l7 55q12 92 24 187t29 188l43 254q12 78 25.5 152.5t31.5 148.5q0 4 2 11t2 11q14 68 31.5 137.5t46.5 135.5l10 22l19 41q10 23 39 41q20 16 39.5 12t29.5 -26q12 -23 13 -47q-6 -53 -16.5 -103.5
t-24.5 -101.5q-31 -98 -74 -197.5t-90 -189.5l-21 -41v2q-18 -29 -25 -61.5t-11 -67.5l-7 -39q-12 -66 -22 -131.5t-21 -130.5q-10 -55 -19 -112.5t-13 -115.5q-4 -27 -6.5 -54.5t-2.5 -51.5v-30.5t-2 -31.5q-2 -29 27 -20q29 6 59.5 6t59.5 -4q10 -2 22.5 0t26.5 10
q78 51 145.5 114.5t120.5 141.5q23 31 43.5 71t42.5 81q12 23 17.5 47t7.5 51q6 70 12 138.5t14 140.5q12 131 37 268q6 45 16.5 88t20.5 88l8 33q12 39 27 71l20 52v-2l15 18q8 16 30 12q12 -2 17.5 -8t7.5 -12q2 -4 2 -14q6 -45 10 -87.5t4 -85.5t-4 -87t-10 -85
q-25 -137 -74 -275t-106 -269q-8 -18 -10 -38t-2 -38v-23q-6 -78 -11.5 -155.5t-5.5 -155.5q0 -51 3 -104.5t9 -104.5q0 -2 1.5 -3t1.5 -3q4 -14 7 -26.5t19 -22.5h-2q16 -10 18.5 -23.5t2.5 -27.5q-2 -20 -27 -27q-8 -4 -16 4l-7 6q-2 2 -2 4t-1 2t-1 2q-8 14 -10 27
q-18 66 -25 127l-4 70q-2 35 -3 67.5t-5 67.5q0 25 1 50.5t3 49.5q0 14 1 27.5t1 28.5q0 6 -4 10l-14 -2l-25 -35q-8 -12 -16 -24.5t-18 -22.5q-45 -66 -103.5 -116t-122.5 -97h2q-20 -10 -21 -15.5t17 -21.5q41 -29 59.5 -68t22.5 -82q2 -14 2 -28.5v-30.5q0 -88 -18 -174
q-18 -96 -64 -188q-16 -27 -31.5 -48.5t-44.5 -37.5q-35 -20 -57 -21q-29 0 -59 25q-35 25 -49 53q-29 51 -44.5 107.5t-21.5 113.5q-6 41 -8 85t-2 85zM39 -74v-129q0 -61 7 -119.5t22 -117.5q10 -29 21 -56.5t26 -50.5q14 -23 29.5 -36t31.5 -13q14 0 30.5 11.5t31.5 27.5
q18 23 33.5 50.5t21.5 53.5q23 66 37 133.5t12 137.5v69q-4 33 -15.5 64t-39.5 55q-25 16 -38 18.5t-42 -12.5l-14 -6q-27 -14 -57 -26.5t-64 -20.5q-23 -4 -27 -7t-6 -26zM59 12q0 -6 9 -6l71 25v4q0 4 2 6l-2 2h-2q-23 0 -42 -4t-34 -16q-2 -2 -2 -7v-4zM201 1071l10 4
l4 4q37 80 70.5 167t56.5 169q10 31 16.5 64.5t10.5 68.5l-15 35l-20 -22l-12 -21q-27 -59 -44.5 -119.5t-31.5 -122.5l-43 -211q0 -10 -2 -16zM686 758q0 -4 4 -8l6 -7h4l9 13q6 6 7 9t3 7l37 125q10 35 21 75t22 77q16 61 24 128.5t8 133.5v112q0 2 -1 4.5t-1 4.5t-1 3
t-1 5h-4l-10 -15l-14 -47q-16 -57 -32.5 -125.5t-27.5 -122.5l-8 -36l-31 -203z" />
    <glyph glyph-name=".notdef" horiz-adv-x="748" 
d="M68 0v1365h544v-1365h-544zM136 68h408v1229h-408v-1229z" />
    <glyph glyph-name="glyph1" horiz-adv-x="0" 
 />
    <glyph glyph-name="uni000D" unicode="&#xd;" horiz-adv-x="395" 
 />
    <glyph glyph-name="glyph3" horiz-adv-x="0" 
 />
    <glyph glyph-name="glyph3" horiz-adv-x="0" 
 />
    <glyph glyph-name="space" unicode=" " horiz-adv-x="479" 
 />
    <glyph glyph-name="exclam" unicode="!" horiz-adv-x="491" 
d="M123 -242q4 23 27 23q4 0 9 -3t9 -7h-2q8 -10 14 -22.5t8 -29.5q2 -4 -1 -11t-13 -7q-23 -4 -40 15.5t-11 41.5zM170 248q6 281 61.5 556t126.5 546l27 82q-2 8 3 18t13.5 16.5t16.5 4t12 -16.5v-33q-12 -20 -18 -47q-41 -186 -80 -374.5t-68 -376.5q-8 -61 -19.5 -122
t-20.5 -122.5t-12 -121.5t7 -122q2 -18 10 -45q8 -31 -12 -33q-8 -4 -14 6q-23 43 -28 90.5t-5 94.5z" />
    <glyph glyph-name="quotedbl" unicode="&#x22;" horiz-adv-x="231" 
d="M37 942v25.5t2 36.5q4 4 13 17t20 11q6 0 12 -7t10 -13q4 -10 1 -28.5t-7 -55.5l-10 -90q0 -18 -6 -19.5t-13.5 10t-12.5 28.5t-5 36q0 29 -4 49zM153 975.5q-1 17.5 3 36.5v-2q2 8 11 19t19 9q6 0 13.5 -7t9.5 -11q4 -10 1 -29.5t-7 -54.5l-10 -92q0 -18 -6.5 -18.5
t-13.5 11t-12 29t-5 35.5v25.5t-2 21.5q0 10 -1 27.5z" />
    <glyph glyph-name="numbersign" unicode="#" horiz-adv-x="1292" 
d="M39 366.5q-4 10.5 0 20.5q6 8 12 15.5t15 9.5q16 10 34.5 18t36.5 14q59 20 117.5 39t118.5 31q41 8 78.5 17.5t78.5 17.5q25 6 31 26q10 53 24.5 104.5t24.5 104.5q12 53 21.5 106.5t13.5 108.5q0 10 7 16.5t18 4.5q20 0 16 -29q-4 -59 -14 -117.5t-25 -117.5l-37 -164
q-2 -20 17 -21l116 25q16 2 21 22q4 35 11 69t13 69q4 25 10.5 48t12.5 48q6 16 20 31q12 12 31 2q16 -12 8 -27q-16 -25 -18 -51.5t-10 -52.5q-6 -29 -8.5 -56.5t-6.5 -56.5q-4 -20 0 -24.5t27 -0.5q53 6 103.5 12.5t103.5 10.5q14 2 31 0q4 0 10 -3t6 -7q0 -6 -1 -13.5
t-5 -11.5q-8 -6 -16.5 -8t-18.5 -4q-35 -6 -70.5 -12.5t-70.5 -10.5q-18 -4 -37 -6t-37 -4q-23 -4 -29 -10t-8 -27q-8 -51 -13 -101t-11 -102q-2 -10 3 -12t13 -2l100 23q70 10 138.5 21t136.5 22q18 2 37 0q4 -4 8 -10.5t4 -10.5q4 -12 -12 -20q-18 -8 -33 -11l-369 -69
q-23 -4 -30 -10.5t-9 -26.5q-16 -98 -24 -197l-11 -92q0 -10 -8 -26q-6 -20 -30 -17q-20 6 -19 31l6 78l21 207q2 16 -2 19t-21 -1q-35 -10 -68.5 -19.5t-68.5 -19.5q-25 -6 -27 -29l-26 -180q-6 -57 -12.5 -113.5t-10.5 -113.5q-2 -23 -2 -46.5v-45.5q0 -8 4 -15.5t8 -13.5
q10 -14 7.5 -27.5t-13.5 -19.5q-10 -4 -23.5 -1t-21.5 15q-14 18 -14 39q-4 20 -3 40t1 40h-4l16 154l33 266q2 16 -2 18t-17 -2l-198 -78q-23 -10 -41.5 -22t-32.5 -33q-12 -16 -31 -6q-16 10 -8 31q12 23 30.5 40t41.5 27q35 18 69.5 34t69.5 32q27 10 52.5 18.5
t52.5 16.5q16 6 23 15t11 24q4 25 9 41q18 96 41 186q2 14 -0.5 17t-18.5 -1q-25 -4 -49.5 -9t-46.5 -11l-211 -55q-27 -8 -52.5 -17.5t-52.5 -19.5q-4 -2 -16 -15q-16 -20 -35 -4q-10 4 -14 14.5zM545 256q-6 -25 18 -18q31 10 61.5 20t63.5 16q23 6 30 17.5t9 30.5l21 188
h2v6q2 14 -1.5 17.5t-17.5 -1.5q-27 -6 -51.5 -11t-48.5 -7q-23 -4 -32 -16.5t-13 -28.5q-10 -53 -20.5 -106.5t-20.5 -106.5z" />
    <glyph glyph-name="dollar" unicode="$" horiz-adv-x="602" 
d="M16 -106q-4 31 20.5 58.5t55.5 27.5q16 0 23 -17q4 -10 0 -15t-15 -9q-10 -6 -18 -10.5t-19 -10.5l-6 -20q12 -6 25 -7q10 0 20 7q29 10 56.5 22t56.5 27q18 8 21 28q8 66 15 130.5t17 127.5q0 14 -14 23l-70 20q-16 4 -26 13q-53 45 -6 92q8 12 22 21.5t27 17.5
q16 12 31.5 22.5t33.5 14.5q18 10 25.5 24.5t9.5 32.5l12 131q4 57 8.5 110.5t0.5 106.5q0 8 1 13.5t11 7.5q16 4 26 -11q8 -20 9 -30q4 -18 4 -39.5t4 -50.5q-2 -47 -4 -99.5t-6 -105.5q-4 -6 -5 -15q4 -20 17 -8l53 27q33 14 65.5 30.5t67.5 32.5q20 10 43 11q8 4 16.5 2
t14.5 -6q6 -6 6 -23l-6 -6t-8 -4q-23 2 -40.5 -6.5t-37.5 -18.5q-41 -20 -83 -42.5t-85 -45.5q-29 -10 -35 -49q0 -31 -5 -59.5t-9 -61.5q-2 -20 2 -24.5t22 -8.5q16 -6 34 -11t32 -15q12 -4 22.5 -10.5t22.5 -16.5q39 -37 31 -88q-16 -53 -53 -90q-33 -29 -67 -51.5
t-71 -44.5q-12 -10 -18 -18.5t-8 -20.5q-4 -31 -6.5 -61.5t-6.5 -65.5v-47.5t2 -50.5q2 -23 8.5 -45.5t12.5 -45.5q8 -16 8 -24q4 -23 -14 -25q-12 -6 -25 6q-4 6 -8 13.5t-6 13.5q-25 57 -31 123q-4 45 -1 87t7 87v2q2 23 -16 16q-23 -10 -43.5 -18t-42.5 -16
q-37 -16 -70 -9q-37 12 -37 48zM182 350q-12 -16 6 -22q16 -6 33 -13.5t33 -11.5q14 -4 17 -1t8 17q2 20 5 42t3 47v2q0 2 -1 3t-1 3q-8 2 -15 -4q-16 -10 -34.5 -21.5t-34.5 -23.5q-6 -4 -10.5 -8.5zM299 10q0 -2 1 -2t1 -2v-4h14q18 16 39 29.5t41 29.5q14 10 23.5 21.5
t21.5 23.5q37 55 -14 87q-20 10 -40.5 18t-43.5 18q-12 2 -16 -14q0 -4 -1 -8t-1 -8q-4 -31 -7.5 -62t-7.5 -61q-4 -16 -6 -32t-4 -34z" />
    <glyph glyph-name="percent" unicode="%" horiz-adv-x="854" 
d="M41 -637q-4 31 2 57q12 59 28.5 119t37.5 119q14 43 28.5 85t28.5 83q23 59 45 117.5t51 113.5q23 53 46.5 105.5t49.5 103.5q20 45 43 88t45 84q27 53 53.5 105.5t55.5 105.5q27 53 54.5 103.5t54.5 103.5l73 152q4 10 6 20t5 19q6 31 -29 30q-25 0 -55 -10
q-49 -14 -94.5 -34.5t-92.5 -43.5q-31 -14 -60.5 -31.5t-58.5 -35.5q-4 -4 -9 -4t-9 -5q-14 -10 -14 -13t10 -17l18 -21q10 -10 2 -24q-10 -10 -24 -4l-10 6q-8 4 -13 -6v-9q-8 -59 -42 -99t-87 -69q-18 -10 -47 -10q-27 -2 -41 11.5t-12 35.5q0 18 6 31q41 96 129 158
q25 16 47.5 33.5t46.5 33.5q63 39 129 71t135 60q61 27 123 37q4 2 13 2q41 4 63.5 -16.5t22.5 -61.5q0 -25 -9.5 -48t-21.5 -48q-23 -51 -46.5 -98t-47.5 -96l-97 -191q-39 -76 -76.5 -152.5t-74.5 -154.5q-76 -150 -139 -307l-64 -158q-20 -57 -38.5 -113.5t-35.5 -115.5
q-10 -25 -17 -51.5t-15 -55.5l-13 -55q-4 -23 9 -35q10 -12 3.5 -23.5t-22.5 -15.5q-18 -4 -32.5 7.5t-16.5 31.5zM138 705.5q1 -3.5 1 -7.5q10 0 17 2q61 35 92 95l12 30q-4 4 -6 9.5t-6 7.5q-2 4 -7 1t-10 -5q-2 0 -2 -1t-2 -1q-59 -55 -88 -123q-2 -4 -1 -7.5zM383 -53
q2 14 27 18h22q23 -2 43.5 -7t36.5 -17q18 -14 41 -21q16 -4 21.5 -19.5t-5.5 -25.5q-10 -8 -10 -18.5t2 -20.5q0 -29 -5 -55.5t-19 -50.5q-10 -18 -33 -41q-31 -29 -64 -11q-31 20 -30 60q0 8 2 17t6 20q10 29 22.5 58.5t34.5 51.5q14 16 -6 27q-23 6 -43 10q-4 2 -8 1
t-8 1q-27 4 -27 23zM469 -242l8 -14q8 4 8 6q4 14 7.5 27.5t7.5 25.5h-2z" />
    <glyph glyph-name="ampersand" unicode="&#x26;" horiz-adv-x="593" 
d="M27 -16q6 63 36 108q25 47 50.5 96.5t56.5 100.5q8 16 16.5 28.5t18.5 28.5q6 10 7 18.5t-1 24.5q-16 92 -20.5 178t12.5 170q10 55 30.5 100.5t55.5 69.5q35 23 63 15q49 -16 62 -70q0 -10 1 -18.5t3 -22.5q2 -45 -4 -102q-12 -53 -26.5 -102.5t-41.5 -94.5
q-16 -35 -34.5 -70.5t-41.5 -72.5q-8 -10 -8 -26.5t4 -33.5q12 -78 42 -148.5t59 -142.5q0 -4 3 -4t3 -4q8 -16 18 -8q29 33 54.5 67.5t48.5 84.5q10 23 -15 28q-8 0 -10 4h-8q-18 16 -17 37q4 27 16.5 41.5t28.5 24.5q20 10 39 -23q10 -16 14.5 -37.5t2.5 -38.5
q-4 -25 -8.5 -46t-14.5 -40q-20 -37 -41.5 -70.5t-50.5 -62.5l-14 -18q-6 -8 -6 -11t2 -14q4 -8 8 -19t12 -24q29 -47 55.5 -92t59.5 -88q10 -16 12 -33q6 -8 3 -16t-7 -12t-10 -1t-10 7q-23 23 -42.5 49.5t-35.5 56.5q-16 35 -38 69t-40 75q-10 12 -19 8q-10 -6 -16 -12.5
t-10 -10.5q-33 -18 -63.5 -36.5t-65.5 -32.5q-20 -6 -39 -9.5t-41 0.5q-16 4 -31.5 11.5t-25.5 21.5q-57 61 -41 144zM61 -31q-4 -29 5.5 -56.5t29.5 -39.5q8 -4 18.5 -7t14.5 -7q20 0 23 4q35 4 65.5 16t58.5 33q14 10 30 21.5t32 23.5q2 2 3 8t-3 12q-2 6 -4 15.5t-8 13.5
q-18 43 -35 84t-33 88q-8 23 -12 45.5t-13 42.5q-2 12 -7 15.5t-13 -7.5q-31 -53 -62.5 -104t-54.5 -109q-14 -23 -19 -46t-16 -46zM233 602q-1 -60 9 -119v-23t6 -24v-10h6h2q10 16 18.5 31.5t14.5 31.5q33 55 55.5 116t32.5 132q4 16 7 28.5t-1 29.5q0 20 -6 45
q-4 35 -33 34q-10 0 -18.5 -6t-14.5 -10q-31 -23 -47 -58.5t-22 -80.5q-8 -57 -9 -117z" />
    <glyph glyph-name="quotesingle" unicode="'" horiz-adv-x="139" 
d="M37 883q4 10 5 22.5t1 18.5q2 10 4 23.5t8 29.5v-2q4 4 18.5 14t24.5 6q6 0 13.5 -7t9.5 -11q4 -14 -29 -70l-33 -57q-10 -29 -20 -13.5t-2 46.5z" />
    <glyph glyph-name="parenleft" unicode="(" horiz-adv-x="401" 
d="M34 -7q1 77 7 157q4 82 13 160.5t26 158.5q8 59 18.5 116.5t24.5 116.5q16 66 33.5 130.5t33.5 130.5q16 51 36 99t42 95q10 16 21.5 32.5t29.5 27.5q31 16 54 -13q4 -4 7 -9t1 -9q-8 -14 -16 -10q-16 4 -24.5 -4.5t-16.5 -20.5q-10 -25 -22.5 -48.5t-22.5 -49.5
q-12 -35 -25.5 -71t-24.5 -77q-14 -59 -29.5 -117.5t-27.5 -119.5q-18 -84 -32.5 -169t-28.5 -173q-2 -31 -7.5 -62t-7.5 -61q-8 -86 -12 -168t8 -172q4 -57 27 -107q27 -57 86 -78q4 0 6 -1t6 -1q8 -4 15.5 -7t9.5 -11q2 -10 -5.5 -16.5t-13.5 -8.5q-2 -2 -14 -2
q-8 2 -16.5 5.5t-18.5 7.5q-68 29 -96 92q-10 27 -17.5 50.5t-11.5 51.5q-16 78 -15 155z" />
    <glyph glyph-name="parenright" unicode=")" horiz-adv-x="434" 
d="M-33 -303q2 8 15 16q14 10 27.5 22.5t27.5 24.5q43 45 82 93.5t71 103.5q20 31 35 62.5t29 66.5q25 61 39 128t18 136q8 78 2 168q0 47 -10 96.5t-27 102.5l-26 84q-20 66 -49 132t-60 134q0 6 -6 13t-10 12q-10 10 -10 17t4 15q14 16 28 -6q8 -10 16.5 -21.5t12.5 -21.5
q18 -39 35.5 -76.5t34.5 -80.5q23 -53 43 -109.5t37 -116.5q10 -16 13 -32.5t5 -32.5q10 -47 17.5 -96.5t7.5 -100.5q-4 -43 -6.5 -87t-10.5 -85q-8 -45 -17 -87t-26 -85q-25 -78 -61 -141q-16 -31 -37 -63t-49 -58q-12 -16 -25.5 -32.5t-30.5 -31.5q-23 -23 -45 -43
t-45 -41l-26 -10q-10 -2 -17.5 9.5t-5.5 21.5z" />
    <glyph glyph-name="asterisk" unicode="*" horiz-adv-x="421" 
d="M51 823q-6 8 4 15q16 4 26.5 14t20.5 20l50 48q2 2 2 4t2 6q-8 4 -11 4l-59 6q-8 0 -20 8q-4 4 -3.5 10.5t5.5 6.5q6 2 13 2h13h58q0 10 -2 12q-8 14 -15.5 28.5t-17.5 26.5q-4 4 -8.5 6t-8.5 7q-14 4 -8 14q0 8 6 12t13 2q14 -4 20 -10t11 -13.5t12 -15.5l22 -32
q2 -6 8 -9q0 2 2 4t2 7q0 10 1 22t1 25q4 39 7.5 75.5t13.5 73.5q0 8 6 19q10 14 25 10q14 -4 14 -23q0 -6 -4 -18q-14 -25 -18.5 -51.5t-8.5 -55.5q0 -18 -1 -35.5t-3 -33.5q0 -2 4 -6l4 2l19 22l37 51l8 9q12 8 22 -2q6 -10 0 -19q-18 -23 -35.5 -46.5t-33.5 -45.5
q-4 -2 -4 -5t-2 -7q4 0 6 -1t6 -1l96 -4q8 0 16.5 -2.5t16.5 -4.5q10 -6 12 -8q4 -4 2 -10q0 -6 -6 -8q-12 0 -20 2q-10 0 -18.5 2t-18.5 2h-103q-16 0 -8 -12l12 -23q18 -33 37 -65.5t41 -63.5q0 -2 1 -2t1 -2q6 -14 -2 -23q-12 -4 -20 5q-23 29 -45 63q-10 12 -16.5 25.5
t-14.5 25.5q-4 6 -6 6q-4 0 -4 -6q-4 -16 -7 -32.5t-8 -32.5q-8 -20 -14 -29q-2 -4 -6 -4h-6q-8 4 -8 12q0 4 4 17q4 23 8 47t8 49q2 2 -2 8l-6 -4l-64 -59q-16 -14 -32 -17q-6 -6 -9 -2q-10 6 -12 8z" />
    <glyph glyph-name="plus" unicode="+" horiz-adv-x="675" 
d="M109 281q0 8 6 11t10 3q8 0 14 -2q31 -8 60.5 -10t58.5 -2q16 0 20.5 3t6.5 17q4 29 4 57.5t4 57.5q4 23 6 42t12 40q6 16 25 16q25 0 24 -18q2 -8 1 -17.5t-1 -17.5q-4 -16 -6 -34.5t-4 -35.5q-4 -23 -6 -46l-4 -46q0 -12 4 -15t16 -3q35 -2 69 -2h71q12 -2 24.5 -2.5
t24.5 -0.5q14 0 20 -6q6 -10 6 -20q-6 -10 -12 -10q-12 -2 -25.5 -2h-23.5h-156q-16 0 -19 -3.5t-5 -19.5q-4 -29 -7 -56.5t-8 -56.5q-2 -14 -4 -27.5t-6 -25.5q-6 -25 -18 -39q-4 -8 -10.5 -12t-16.5 -8q-18 -4 -26 14q-6 4 -6.5 14.5t8.5 14.5q14 12 17 26.5t7 30.5
q4 33 8 65.5t7 63.5q2 10 -1.5 14.5t-15.5 6.5q-23 2 -46 3t-46 5q-16 2 -29.5 6t-23.5 8q-4 0 -6 7t-2 12z" />
    <glyph glyph-name="comma" unicode="," horiz-adv-x="139" 
d="M19.5 -60q-1.5 1 0.5 11l5 16q0 4 6 10q10 10 21 35t11 82q0 20 21.5 16t32.5 -18q10 -16 -5.5 -58t-68.5 -91q-6 0 -9 -1t-7 -1q-6 -2 -7.5 -1z" />
    <glyph glyph-name="hyphen" unicode="-" horiz-adv-x="616" 
d="M141 285q2 6 2 16l2 -2l103 14q35 2 56.5 0t42 -3t43 -2t59.5 3q4 -2 13 -5t11 -11q6 -25 -2 -27q-4 -2 -5 -1t-5 -1q-31 -2 -51.5 -3t-38 -1h-37t-49.5 4q-33 0 -65 -1t-62 -3q-2 -2 -6 -2q-4 2 -7.5 5t-3.5 20z" />
    <glyph glyph-name="period" unicode="." horiz-adv-x="210" 
d="M70 45q0 14 15 25.5t34 11.5l2 -4q10 -10 15 -16.5t5 -16.5q0 -12 -13 -21.5t-32 -7.5q-16 0 -21 9.5t-5 19.5z" />
    <glyph glyph-name="slash" unicode="/" horiz-adv-x="522" 
d="M88 -455q6 133 19.5 251t31.5 229q4 41 12.5 84t14.5 90q12 76 31 168q10 59 24.5 119.5t24.5 125.5q10 53 19 109.5t24 103.5q10 57 23.5 115.5t27.5 114.5l51 241q4 23 13.5 48.5t13.5 54.5q2 14 10 18q8 20 21 17q4 0 6 -12.5t6 -16.5q-2 -10 -3 -18.5t-1 -14.5
q-16 -59 -29.5 -114.5t-24.5 -112.5q-14 -51 -22 -102.5t-19 -108.5q-10 -43 -21 -91t-19 -102q-2 -4 -2.5 -6t-0.5 -12l-79 -410q-10 -72 -22.5 -143.5t-24.5 -144.5q-10 -70 -20.5 -140.5t-16.5 -152.5q-2 -12 -1 -9l4 12t7 20.5t6 13.5q8 14 23 12q8 -14 6 -31
q-4 -31 -9.5 -57.5t-11.5 -57.5q-4 -27 -10 -44t-10 -50q-4 -10 -8.5 -21.5t-8.5 -25.5q-12 -20 -23 -19t-22 13q-6 12 -7 26.5t-3 30.5z" />
    <glyph glyph-name="zero" unicode="0" horiz-adv-x="446" 
d="M34 308.5q3 15.5 15 19.5q23 37 49.5 70.5t61.5 56.5q29 18 47 39.5t35 50.5q12 20 26.5 38.5t30.5 37.5q16 16 37 22q16 6 30.5 -7t14.5 -32q-4 -29 -27 -16q-14 8 -21 3t-14 -16q-12 -16 -22 -34.5t-23 -36.5q-6 -14 7 -19q45 -20 63 -57t27 -82q8 -59 4 -115.5
t-23 -113.5q-10 -29 -20 -56.5t-21 -56.5q-10 -27 -27.5 -47t-33.5 -39q-8 -4 -19 -14q-43 -29 -81.5 -15.5t-55.5 64.5q-10 29 -12 55t2 49q4 66 16.5 121t28.5 109q6 20 13.5 37.5t13.5 35.5q2 4 2 17q-4 -4 -8.5 -4t-6.5 -4l-49 -58q-4 -10 -10 -18t-12 -19
q-14 -18 -23.5 -14t-13.5 18.5t-1 30zM139 47q0 -20 1 -40.5t10 -39.5q16 -39 45 -16q29 18 43 41q35 57 54 120.5t25 131.5q4 41 -1 81t-21 78q-8 20 -33 29q-16 8 -26 -10q-6 -14 -11.5 -27.5t-9.5 -27.5q-25 -66 -43.5 -134.5t-28.5 -142.5q-2 -8 -2 -19.5t-2 -23.5z" />
    <glyph glyph-name="one" unicode="1" horiz-adv-x="315" 
d="M58.5 -329.5q-3.5 24.5 0.5 53.5q4 55 6.5 109t6.5 110q4 41 9 83t9 83l19 170q10 82 22 161.5t25 157.5q14 123 37 246q0 12 8 28q12 8 22 7q4 0 8.5 -4.5t1.5 -8.5q6 -16 3 -37q-10 -90 -21.5 -176t-24.5 -176q-10 -102 -22 -200.5t-25 -200.5q-8 -74 -15 -147.5
t-9 -149.5v-127q0 -23 6 -42.5t27 -35.5l10 -8q10 -20 -4 -33q-4 -8 -11.5 -8t-15.5 2q-57 31 -63 90q-6 29 -9.5 53.5z" />
    <glyph glyph-name="two" unicode="2" horiz-adv-x="462" 
d="M12 -158q2 4 2 5t4 6q23 23 37.5 48t24.5 54q78 166 115 332q10 45 18 89t14 89q6 41 8.5 82t2.5 82q-4 47 -21 82q-6 10 -10 12t-17 -4q-18 -14 -28 -31q-39 -63 -51 -135q-2 -10 0 -21.5t16 -15.5q4 -4 7 -9t-1 -11q-2 -4 -6 -6.5t-8 -4.5q-37 -2 -51 31
q-6 16 -7.5 29.5t0.5 29.5q6 29 14.5 56.5t20.5 56.5q23 43 47 70q39 37 78 22.5t51 -49.5q10 -29 17.5 -59.5t5.5 -63.5q-2 -25 -1 -49t1 -47q-6 -39 -9 -72.5t-12 -68.5q-14 -59 -27.5 -117.5t-33.5 -116.5q-18 -53 -35.5 -105t-40.5 -102q-10 -16 8 -12q16 0 29.5 4
t30.5 8q57 12 115.5 10.5t117.5 -6.5q6 2 13.5 -1t11.5 -7q4 -6 2 -17t-12 -15q-25 -6 -41 -5q-78 4 -156 -6q-82 -12 -147 -37q-10 -4 -17.5 -11t-13.5 -13q-12 -10 -23 -23q-23 -14 -41 4q-14 18 -2 39z" />
    <glyph glyph-name="three" unicode="3" horiz-adv-x="514" 
d="M27 300q-7 22 10 42q23 27 44 51.5t42 48.5q35 45 60.5 93.5t35.5 103.5q10 45 -2 90q-2 4 -5 11.5t-7 11.5q-20 25 -49 4q-27 -20 -41 -56q-12 -27 -18.5 -53t-2.5 -57q2 -2 2 -12q0 -4 -3 -8.5t-7 -4.5h-7t-7 2q-4 4 -7.5 8.5t-5.5 10.5q-10 23 -9 47t7 47
q16 66 62 108q35 37 77 25t62 -53q18 -35 14 -80q0 -29 -6 -52.5t-16 -52.5q-18 -55 -48 -102t-65 -92q-23 -23 -37 -43q-10 -12 9 -16l79 -11q37 -8 73 -18t69 -33q82 -53 104 -143q14 -53 7 -104.5t-27 -102.5q-45 -125 -140 -225q-16 -16 -32.5 -27.5t-38.5 -15.5
q-16 -4 -27.5 2t-21.5 16q-20 23 -20.5 46.5t5.5 49.5q4 16 23 15q20 0 20 -23q2 -10 1 -18.5t-1 -16.5q6 -27 29 -12q14 12 28.5 24.5t24.5 26.5q68 88 105 197q12 37 16 74.5t-6 76.5q-23 96 -123 133q-76 29 -154 37q-10 0 -20 1t-21 3q-27 4 -34 26z" />
    <glyph glyph-name="four" unicode="4" horiz-adv-x="536" 
d="M12 -66q0 37 6 66q10 57 25.5 110.5t30.5 106.5q18 68 37.5 135.5t40.5 136.5q23 76 43 153t45 153v8q10 27 30 24q16 -4 15 -26l-15 -76q-12 -51 -25.5 -105.5t-29.5 -107.5q-12 -51 -28.5 -99t-26.5 -102q-12 -53 -26.5 -104t-29.5 -103q-4 -29 -12 -57.5t-18 -58.5
q4 -12 -2 -29q-2 -33 28 -27q37 6 74 13.5t74 11.5q10 4 17 10t9 17q12 53 25.5 108t30.5 111q16 53 33.5 105t33.5 108q4 18 15 33q4 18 22 14q6 -2 10.5 -7t-2.5 -16q-4 -20 -10 -35.5t-10 -31.5q-20 -82 -42 -164t-42 -166q-6 -10 -7 -21.5t-7 -23.5q-2 -10 1 -12t15 -2
q35 4 66.5 17t60.5 28q10 4 19.5 10t17.5 10q23 10 35 -6q6 -8 2 -13t-11 -14q-4 -8 -10 -13t-12 -9q-35 -18 -71 -35.5t-77 -28.5q-41 -4 -49 -12t-12 -47q-4 -29 -7 -59.5t-3 -61.5q-4 -6 -3 -13t-1 -13q-8 -14 -23 -17q-4 -2 -9 2t-5 8q-8 12 -8 21q-2 63 6 127q4 4 4 9
v11q2 14 -12 13q-37 -8 -72 -15.5t-74 -11.5q-8 -2 -13 -3t-11 3q-29 4 -42.5 18.5t-13.5 44.5z" />
    <glyph glyph-name="five" unicode="5" horiz-adv-x="471" 
d="M18 408q4 18 12.5 35.5t18.5 33.5q23 47 47.5 91t48.5 89q4 10 9.5 16.5t9.5 12.5q25 27 45 2q10 -10 16 -10t17 4l149 43q6 2 14.5 1t14.5 -3q23 -14 0 -33l-21 -12q-18 -6 -39.5 -10t-40.5 -15l-124 -49q-4 -2 -7.5 -5t-7.5 -3q-20 -4 -27.5 -15.5t-13.5 -23.5
l-61 -123q-4 -4 -3 -9t-1 -9h16q35 8 70 13t69 3q35 -4 67 -14t56 -37q0 -2 8 -10q16 -31 27.5 -65t13.5 -68q0 -51 -3 -96.5t-17 -92.5q-16 -59 -43 -113.5t-62 -105.5q-12 -23 -29.5 -42t-41.5 -30q-27 -14 -53.5 -0.5t-32.5 43.5q-12 20 -19.5 63.5t-6.5 80.5t12.5 52
t35.5 -22q-6 -18 -2 -49.5t12.5 -59.5t18.5 -43.5t18 1.5q6 8 15.5 15.5t19.5 17.5q66 96 96.5 200.5t14.5 223.5q-6 31 -27 59q-10 16 -23.5 24.5t-35.5 12.5q-35 8 -72 5t-72 -11q-25 -6 -49 -6q-23 -2 -34 10t-3 33z" />
    <glyph glyph-name="six" unicode="6" horiz-adv-x="448" 
d="M31 -35q0 8 4 10q8 12 7 26.5t-1 31.5q2 51 12 104q4 41 13.5 79t19.5 79q23 66 46.5 128t53.5 122q18 39 39 78t45 73q16 23 30.5 42.5t35.5 35.5q16 10 33 12q12 6 28 -6q6 -4 7.5 -11t-5.5 -11q-35 -10 -55 -38t-39 -58q-35 -57 -62.5 -119t-52.5 -121
q-39 -98 -63 -207q-8 -29 -11 -59.5t-7 -61.5q-4 -6 -2 -11t2 -9q8 0 18 6q20 16 41.5 24.5t46.5 14.5q53 10 97 -19.5t59 -83.5q18 -72 -3.5 -127t-72.5 -100q-18 -14 -41.5 -19.5t-52.5 -5.5q-33 8 -61.5 27t-49.5 53l-16 27q-2 8 -17 23q-39 27 -26 71zM107.5 -18.5
q-3.5 -4.5 1.5 -8.5q2 -14 2 -28.5t8 -28.5l15 -22.5t1 -22.5q14 -29 39 -44t53 -5q8 6 17.5 11t19.5 13q23 23 40.5 50.5t17.5 66.5q-4 16 -5.5 32.5t-5.5 31.5q-12 45 -61 39q-6 4 -14 0q-70 -18 -121 -78q-4 -2 -7.5 -6.5z" />
    <glyph glyph-name="seven" unicode="7" horiz-adv-x="577" 
d="M-15 438q-3 8 5 19q10 20 21.5 38.5t19.5 36.5q61 104 98 216l4 34q2 6 2 19q2 6 6 12t15 6q18 4 24 -16q10 -41 38 -47t56 -8q37 -4 74 0l74 8q12 2 24.5 1t24.5 -1q55 -6 55 -58q0 -10 -1 -21t-3 -22l-43 -129q-16 -47 -35.5 -92t-37.5 -92l-39 -106q-4 -12 -1 -15.5
t13 -1.5l115 35l16 6q14 8 18 -8q2 -6 -2 -23q-6 -6 -20 -10q-35 -10 -70 -21.5t-71 -21.5q-18 -6 -27 -24q-23 -59 -39 -108.5t-37 -104.5q-14 -41 -22.5 -83t-18.5 -87q-4 -23 -5 -44.5t3 -41.5q6 -31 33 -50q23 -10 16 -26q-8 -14 -35 -6q-47 12 -61 61q-4 10 -6 22.5
t-2 24.5q0 14 3 25.5t5 25.5q4 47 13.5 92.5t25.5 88.5q16 51 29.5 94t29.5 98q2 2 2 10q6 12 -8 13q-10 -2 -19 -1t-20 1q-43 -6 -88 10q-16 6 -24 18q-14 14 -2 31q14 10 26 2q35 -23 70 -22.5t74 4.5q10 0 13 7t7 13q10 37 23.5 70t25.5 67l51 133q16 47 37 91.5t31 91.5
q0 4 4 12q2 20 -18 18q-35 -2 -69 -3t-69 -5q-35 -2 -65.5 5.5t-61.5 17.5q-14 6 -17 5t-7 -13q-33 -92 -86 -187l-45 -76l-10 -14q-16 -20 -31 -8q-6 6 -9 14z" />
    <glyph glyph-name="eight" unicode="8" horiz-adv-x="471" 
d="M29 -84q10 86 43 156q12 25 21 52.5t20 51.5q16 37 36.5 72t38.5 69q8 10 15 31q14 10 -4 27q-39 39 -56.5 81t-21.5 91q-4 90 45 174q16 27 38.5 46t57.5 34q29 12 63.5 7t53.5 -26q4 -4 8 -10l8 -12l17 -68q-10 -33 -19.5 -61.5t-19.5 -57.5q-18 -47 -40 -96t-44 -102
q-6 -10 -5 -13.5t17 -7.5q10 -4 18.5 -6t18.5 -2q8 -2 13 -1t11 -3q4 0 7.5 -5t7.5 -9q0 -8 -8 -13h-24.5t-29.5 -2q-8 0 -24 4q-18 6 -22.5 5.5t-14.5 -15.5l-43 -86q-6 -12 -5 -15t15 -5q53 -18 78 -53t35 -76q16 -70 -4.5 -131.5t-71.5 -112.5q-47 -47 -111 -59
q-33 -4 -61.5 8t-42.5 41q-20 49 -14 98zM95 -106.5q1 -20.5 5 -40.5q4 -23 20.5 -29t39.5 4q14 6 26.5 16.5t22.5 20.5q72 65 72 143q4 37 -2.5 66.5t-26.5 52.5q-6 10 -15.5 16.5t-19.5 10.5q-18 10 -26.5 7t-14.5 -20q-29 -49 -46 -101t-30 -106q-6 -20 -5 -40.5z
M205 430q2 -4 5 -11t7 -11t9 -5.5t10 5.5q4 14 10 22t10 21q18 47 37.5 92t40.5 92q8 16 11 33.5t7 29.5v20.5t-4 16.5q-6 39 -53 29q-37 -8 -57 -33q-119 -139 -33 -301z" />
    <glyph glyph-name="nine" unicode="9" horiz-adv-x="458" 
d="M31 511q0 11 2 19q8 35 30.5 69t47.5 63q37 41 92 73q18 10 37.5 14.5t42.5 -4.5q27 -10 41 17l63 115q4 10 12.5 20t16.5 21q10 18 30 10q27 -4 21 -29q0 -16 -2 -27q-27 -121 -57.5 -237.5t-59.5 -237.5q-43 -176 -75.5 -351t-36.5 -355q2 -14 6 -23.5t18 -13.5
q12 -2 14 -8t0 -13q-4 -10 -13 -19t-19 -7q-35 0 -49 26q-23 41 -19 84l8 109q10 178 47 351t84 347l17 60q10 51 20 92q-8 4 -13 4h-7q-4 -4 -13 -16l-8 -13l-20 -22q-51 -74 -113 -125q-16 -12 -34.5 -23.5t-45.5 -13.5q-47 -10 -61 27v-2q-4 8 -4 19zM80 526q2 -6 2 -12
q12 -12 16 -8q-2 -2 7.5 4t17.5 10t24 21q37 33 71 74.5t56 78.5q6 10 0 17q-12 8 -22 4l-14 -8q-10 -4 -19.5 -8.5t-19.5 -14.5q-31 -25 -53.5 -51.5t-43.5 -54.5l-12 -24t-10 -28z" />
    <glyph glyph-name="colon" unicode=":" horiz-adv-x="366" 
d="M139 150q0 16 16.5 30.5t39.5 14.5v-7q12 -10 18 -18t6 -20q0 -16 -15.5 -26.5t-35.5 -6.5q-29 0 -29 33zM145 397q0 16 16.5 28.5t37.5 12.5l2 -2q12 -12 18 -20t6 -19q0 -16 -15 -26.5t-36 -5.5q-29 0 -29 32z" />
    <glyph glyph-name="semicolon" unicode=";" horiz-adv-x="348" 
d="M69 -60q-1 1 1 11l4 16q0 4 6 10q10 10 21.5 35t11.5 82q0 20 21.5 16t31.5 -18q10 -16 -5.5 -58t-68.5 -91q-6 0 -9 -1t-7 -1q-6 -2 -7 -1zM117 274q0 10 11 20.5t26 10.5v-2q18 -18 18 -29q0 -10 -11 -18t-24 -6q-20 0 -20 24z" />
    <glyph glyph-name="less" unicode="&#x3c;" horiz-adv-x="493" 
d="M38 172q-1 21 9 37q8 10 16.5 15t14.5 14q59 57 116.5 111t116.5 108l41 35q4 4 8.5 7t10.5 3q6 -2 13 -5t11 -8q6 -6 3 -13t-7 -11l-39 -35l-248 -240l-10 -8q-10 -14 4 -24l35 -19q47 -20 96.5 -33.5t98.5 -27.5q18 -4 36.5 -10.5t38.5 -12.5l21 -10q18 -16 14 -29
q-6 -16 -22 -8h-6q-74 23 -148 39t-145 47q-16 10 -32.5 18.5t-29.5 20.5q-16 18 -17 39z" />
    <glyph glyph-name="equal" unicode="=" horiz-adv-x="565" 
d="M86 307q0 18 16 19h13q59 -4 117.5 -4t119.5 -5q23 0 44.5 1t41.5 8q4 0 7.5 1t9.5 1q4 -2 8 -3t8 -8q8 -16 -4 -20q-6 -4 -10 -6t-11 -6q-23 -4 -47 -4h-47h-112.5t-110.5 2q-4 2 -9 2t-9 2q-4 -4 -7 0q-8 -2 -13 4t-5 16zM109 156q4 10 20 18q16 4 30.5 8t33.5 4
q33 4 67.5 9.5t69.5 3.5q23 -4 45 -3t47 -1l16 -9q4 0 5.5 -6t5.5 -10q-6 -4 -9.5 -8t-9.5 -6q-14 -4 -31.5 -8.5t-33.5 -0.5q-47 6 -92.5 1t-90.5 -9q-14 -4 -27.5 -6t-25.5 -4q-12 0 -16 8q-8 8 -4 19z" />
    <glyph glyph-name="greater" unicode="&#x3e;" horiz-adv-x="522" 
d="M115 520q0 8 1 18.5t5 8.5v2q33 -33 59 -51q33 -25 67 -39.5t66.5 -27.5t64.5 -28.5t62 -42.5q10 -14 13.5 -29.5t-7.5 -27.5q-59 -72 -132.5 -135.5t-135.5 -134.5q-12 -18 -14 -39q0 -2 -2 -3t-2 -3q-12 -18 -25 -13q-10 4 -12 11t-2 30q0 29 14.5 47.5t30.5 34.5
q57 59 116.5 120t116.5 112q2 12 -16 28q-29 14 -62.5 26.5t-66.5 27t-63.5 30t-51.5 37.5q-4 6 -12 18.5t-12 22.5z" />
    <glyph glyph-name="question" unicode="?" horiz-adv-x="673" 
d="M68 1q2 32 11 64.5t17 61.5q37 125 90.5 241.5t109.5 232.5t113.5 230.5t104.5 235.5q18 43 32.5 93t18.5 93q0 4 1 6.5t1 4.5v8q0 10 -1 20.5t-5 20.5q-6 14 -22 20q-27 4 -56.5 -3t-52.5 -23q-49 -33 -91 -77t-71 -87q0 -4 -1 -5t-1 -3v-5l-6 -12q-6 -14 10 -31l13 -10
q4 -8 0 -16q0 -6 -11 -6q-25 -4 -36 12q-16 16 -24.5 35.5t-2.5 42.5t18.5 44t28.5 42q47 57 95 95t114 60q20 4 33 5q63 2 100 -54v2q8 -16 14 -33.5t4 -33.5q4 -45 -2 -81t-16 -71q0 -4 -2 -9t-2 -9l-35 -92q-47 -113 -103.5 -221.5t-112.5 -216t-108.5 -218t-91.5 -227.5
q-8 -29 -18 -58.5t-13 -59t3 -57.5t32 -50q4 0 6.5 -3t6.5 -8v-12q0 -6 -19 -6q-4 -4 -12 4q-12 4 -20 8q-27 25 -35 54.5t-6 61.5zM80 -508q-4 12 6 25.5t29 15.5q10 0 21 -9.5t11 -25.5q2 -16 -9 -24.5t-27 -8.5q-12 -2 -21.5 6.5t-9.5 20.5z" />
    <glyph glyph-name="at" unicode="@" horiz-adv-x="991" 
d="M63 16q-12 150 31 301q20 68 48 135.5t63 133.5q41 72 90 132t115 111q27 23 54.5 40.5t55.5 29.5q45 14 92 19q35 4 61.5 -7.5t49.5 -33.5q16 -16 27.5 -35t19.5 -37q14 -41 19.5 -82t3.5 -82q2 -135 -41 -272q-14 -35 -32 -65t-40 -56q-20 -16 -42 -31.5t-50 -26.5
q-16 -4 -32.5 -5t-33.5 10q-14 8 -17 6t-13 -15q-10 -12 -20.5 -24t-20.5 -23q-23 -18 -43 -28q-18 -10 -37 -3t-29 27q-12 23 -10 45.5t10 44.5q29 88 88 160q12 16 29 27q20 12 40.5 5t24.5 -30q2 -6 -4 -12t-12 -4q-4 2 -8 2q-4 4 -10.5 9t-10.5 3q-12 -6 -24 -25
q-53 -68 -72 -153q-4 -23 0 -45q0 -8 5 -10t9 2q10 10 21.5 18t21.5 18l39 54q4 2 13 14q23 23 40 -4q4 -8 8.5 -15.5t16.5 -7.5q25 4 39 13q49 27 78 73q23 37 35 75t22 79q29 106 23 211q-4 39 -13.5 78t-33.5 71q-39 61 -117 46q-23 -6 -46.5 -14.5t-43.5 -22.5
q-51 -33 -93 -72t-79 -86q-59 -78 -101.5 -163t-70.5 -177q-47 -147 -41 -289q6 -154 86 -284q18 -27 42.5 -49.5t53.5 -38.5q16 -10 36.5 -15.5t43.5 -9.5q31 -4 58.5 2t56.5 16q225 90 319 295q29 66 38 132.5t7 134.5q0 31 -5 61.5t-9 60.5q-6 31 12 33q23 0 31 -24
q4 -14 4 -28.5t4 -27.5q23 -117 0 -237q-10 -63 -34.5 -120.5t-63.5 -111.5q-23 -35 -55.5 -65.5t-67.5 -57.5q-35 -29 -74 -51t-82 -41q-53 -23 -107.5 -24.5t-111.5 20.5q-29 10 -55.5 27.5t-46.5 42.5q-29 31 -49.5 64.5t-36.5 72.5q-39 90 -46 186z" />
    <glyph glyph-name="A" unicode="A" horiz-adv-x="866" 
d="M-511 138q-3 9 1 16q10 18 23 26q14 10 29.5 19.5t25.5 13.5q98 43 202.5 83t202.5 75l95 30q20 6 28 35q0 4 1 7t1 8q35 135 69 273t71.5 275.5t84 271.5t107.5 261q6 14 17.5 28.5t23.5 30.5q6 10 15.5 15.5t19.5 9.5q14 6 27 6q24 0 42 -20q16 -16 29.5 -36t18.5 -38
l4 -15q27 -106 42 -214.5t24 -218t15.5 -220t16.5 -219.5v-16.5t2 -14.5q0 -23 25 -18q4 0 7 1t7 1q61 10 121.5 23.5t122.5 21.5q14 4 28 0q12 0 17 -14q2 -12 -15 -17q-70 -16 -139.5 -32.5t-138.5 -28.5q-23 -4 -29 -11.5t-6 -29.5q4 -66 6 -134.5t4 -133.5l6 -256
q4 -123 7.5 -243t13.5 -241q2 -16 12 -35q4 -8 5 -17t1 -19q0 -6 -8 -11.5t-12 -9.5q-8 0 -16.5 3t-10.5 11l-6 23q-12 47 -14 96.5t-4 98.5q-6 72 -6 144.5t-5 143.5l-6 203l-8 262q-2 29 -3 56.5t-5 52.5q-2 16 -6 20t-21 0q-16 -4 -31.5 -8t-31.5 -8
q-104 -27 -203.5 -54.5t-198.5 -60.5q-45 -14 -51 -59q-39 -205 -65.5 -413t-28.5 -419q0 -20 -6 -39q-2 -8 -9.5 -13t-13.5 -5q-14 4 -20 18q-2 4 -4 11.5t-2 15.5q0 201 22.5 396.5t57.5 393.5l6 29q0 6 2 12.5t2 12.5q2 8 -3 13t-14 1q-10 -4 -30 -8q-12 -4 -23.5 -8
t-23.5 -9q-92 -35 -187.5 -71.5t-187.5 -71.5q-23 -10 -45.5 -20.5t-38.5 -26.5q-10 -12 -27 -6q-4 6 -7 15zM162 438.5q4 -4.5 20 -0.5l19 6q51 14 101 28.5t104 29.5q51 14 103 27.5t105 29.5l23 6q12 2 19.5 5t10.5 9.5t3 19.5v36q-18 217 -33.5 436t-61.5 432
q-4 10 -8 21.5t-8 21.5q-20 37 -45 6l-22.5 -31.5t-22.5 -33.5q-29 -55 -51.5 -116.5t-38.5 -115.5q-61 -188 -115.5 -378.5t-95.5 -384.5l-6 -31q-4 -18 0 -22.5z" />
    <glyph glyph-name="B" unicode="B" horiz-adv-x="1097" 
d="M-150 780q14 88 52.5 169t88.5 157t108.5 144.5t117.5 129.5l13.5 13.5t15.5 13.5l33 27q4 4 6 11t4 13q8 14 9 28.5t5 31.5q2 10 6 17t13 3q8 -2 10 -11t4 -20q8 -20 13 -23t18 1q12 10 29.5 21.5t33.5 19.5q109 62 240 80q33 4 64 5q97 0 188 -40q72 -33 128 -89.5
t91 -127.5q48 -96 48 -196q0 -19 -2 -38q-11 -119 -63.5 -228.5t-131.5 -205.5t-154 -168q-12 -10 -9.5 -20.5t13.5 -14.5h-2q55 -66 81.5 -135t30.5 -131q1 -13 1 -26q0 -47 -12 -95q-15 -60 -40 -114q-23 -41 -43 -68t-35 -41q-43 -49 -108.5 -94t-128.5 -62
q-23 6 -33 22.5t-8 32t18.5 23.5t48.5 0q4 0 13 4q57 33 107 77t89 96.5t61.5 115t26.5 131.5q0 74 -34.5 147.5t-83.5 110.5q-47 -29 -90.5 -63.5t-88.5 -67.5q-41 -29 -83 -52.5t-85 -43.5l-8 -4q-4 -2 -7 -3t-5 -3l-12 -7q-33 -16 -65 -28t-73 -19q-25 -6 -24 -36
q9 -95 9 -190q0 -48 -2 -94q-3 -66 -3 -131q0 -75 4 -151q-4 -14 1 -27.5t11 -24.5t9.5 -22.5t-5.5 -23.5q-4 -12 -4 -14q-4 -10 -13 -12.5t-15 -2.5q-4 4 -6 8q-4 4 -5.5 7.5t-3.5 7.5l-12 16v54q0 136 -8 268q-6 100 -6 200q0 60 2 121q0 23 -3 30t-22 24q-29 20 -41 43.5
t-2 42.5q14 37 53 77q0 6 5 11l9 18t5 27q2 229 22.5 453.5t40.5 451.5q-2 6 -2 11v9l-12 4l-27 -18l-28 -23q-59 -61 -110.5 -131.5t-96.5 -142.5q-33 -47 -59.5 -110.5t-47.5 -133.5q-4 -12 -4 -25.5t4 -29.5q4 -6 2 -12t-6 -4q-8 -2 -15 6t-11 18t-5.5 22.5t-1.5 22.5z
M252 288q-2 -20 6 -38q61 8 119.5 32.5t114 59.5t109.5 75t106 79q0 4 8 8q4 2 6 4q-10 4 -18.5 4h-12.5q-23 6 -50 6h-14q-34 -2 -61 -12q-70 -20 -146.5 -61.5t-135.5 -82.5q-19 -18 -27 -36q-2 -18 -4 -38zM254 461l12 -29q4 0 8.5 1t6.5 1q6 -4 14 0q45 27 95 57.5
t104 50.5q52 21 110 26q12 1 24 1q46 0 93 -16q29 -10 47 -3t37 23q35 29 60.5 55.5t47.5 53.5l15 18q16 18 39.5 46t40.5 55q16 25 29.5 50.5t27.5 53.5l22 41q12 29 23.5 57.5t19.5 61.5q18 54 18 111q0 23 -3 46q-10 81 -50 150.5t-104.5 119.5t-144.5 62
q-23 4 -46.5 6.5t-43.5 2.5q-66 0 -121 -13q-84 -18 -155.5 -54t-137.5 -79q-10 -10 -14 -18t-6 -25q-23 -221 -40.5 -439t-23.5 -441q0 -10 -1 -17.5t-3 -15.5z" />
    <glyph glyph-name="C" unicode="C" horiz-adv-x="1087" 
d="M23 70v45q14 330 95 654.5t236 610.5q23 37 48.5 67t60.5 52q16 10 30.5 13.5t26.5 3.5q43 0 80 -39q31 -29 45 -62t25 -67q16 -47 21 -94.5t7 -98.5q3 -100 3 -200q0 -175 -9 -351q-14 -278 -84 -545q-4 -10 -8 -21t-10 -20q-10 -16 -24.5 -12t-20.5 21q-4 8 -4 16
q-2 6 -2 18q-4 25 10 29q23 8 28 20.5t9 30.5q0 2 1 4t1 5q4 33 9 64.5t11 66.5q20 223 36 446q8 110 7 220q0 114 -8 229q-6 70 -21.5 145.5t-66.5 128.5q-14 10 -31 10q-15 0 -32 -8q-31 -14 -52.5 -41t-40.5 -55q-51 -82 -90 -179.5t-69 -193.5q-25 -78 -49.5 -166
t-45.5 -168q-33 -129 -52 -260t-19 -264v-45.5t2 -44.5q10 -92 32.5 -176t79.5 -154q76 -84 191 -102q25 -2 48 -3q75 0 142 24q88 32 174 97q55 47 102.5 101.5t88.5 116.5q53 88 96 166.5t90 164.5q18 29 25 25q20 -10 6 -43q-59 -121 -122.5 -244t-160.5 -231
q-66 -80 -147 -133q-121 -88 -260 -101q-15 -1 -30 -1q-55 0 -105 12q-64 14 -123 61q-90 76 -129 186.5t-47 223.5q-4 23 -4 45z" />
    <glyph glyph-name="D" unicode="D" horiz-adv-x="1124" 
d="M-70 717q18 100 64 186q51 106 129 205q66 86 144.5 156.5t172.5 117.5q33 18 68 30.5t70 23.5q18 6 31.5 14t19.5 29q2 6 3 11t5 9q6 16 20 17q4 -4 10.5 -9.5t10.5 -9.5q2 -4 2 -16q2 -23 5 -27t22 -6q23 -4 41 -9t38 -14q76 -33 132 -106q57 -88 91.5 -186.5
t48.5 -200.5q9 -68 8 -136q0 -35 -2 -71q-7 -104 -32 -205q-27 -104 -73 -204.5t-105 -192.5q-66 -98 -144.5 -196.5t-166.5 -178.5q-10 -10 -18.5 -27.5t-8.5 -35.5q2 -10 3 -21.5t1 -23.5q4 -47 8 -95.5t17 -95.5q4 -12 9 -26.5t13 -24.5v2q10 -23 25 0q0 2 1 4t1 4
q0 4 2 6q8 12 18 13q12 0 17 -15q4 -8 2 -17t-6 -20q-10 -18 -37 -26t-51 18q-16 16 -24.5 38t-14.5 44q-10 41 -15.5 83t-9.5 83v14.5t-2 14.5q-4 29 -8 33t-33 -9q-33 -14 -64 -14h-8q-23 0 -39 12t-26 31q-20 45 -21 82q0 35 19 69q20 33 37 25q18 -10 4 -43
q-8 -16 -10 -37.5t2 -42t17 -35t36 -12.5q27 4 46 16.5t38 28.5q4 4 5 14.5t1 20.5v162q8 342 35.5 676.5t81.5 672.5l12 64q4 18 -1 21t-22 -3q-76 -25 -141 -64.5t-125 -90.5q-78 -70 -144.5 -155t-117.5 -179q-18 -35 -36.5 -79t-26.5 -85q-4 -20 -4 -45t10 -49
q0 -2 1 -3t1 -3q2 -10 -4 -15.5t-17 -1.5q-14 4 -21 15.5t-11 21.5q-6 16 -8.5 36.5t-0.5 37.5zM514 0l2 -2v-174q0 -6 4 -10v2l4 -11q6 6 11 9q4 2 6 4v-2l49 55q27 29 52.5 55.5t47.5 55.5q27 33 52.5 67.5t48.5 69.5q33 53 64.5 110.5t59.5 120.5q23 47 39.5 98.5
t26.5 100.5q25 97 30 203q1 25 1 49q0 81 -12 159q-16 102 -56.5 197.5t-107.5 175.5q-35 35 -76 49q-32 10 -68 10q-11 0 -22 -1q-20 0 -23 -21l-20 -135q-47 -309 -72 -616.5t-41 -618.5z" />
    <glyph glyph-name="E" unicode="E" horiz-adv-x="1093" 
d="M-84 889q4 10 9 21.5t16 21.5q49 51 100 92q135 113 281.5 186.5t302.5 145.5q51 20 108.5 40.5t106.5 37.5q117 37 237 49h90q23 -4 23 -19q0 -6 -8 -13t-15 -11h-30q-88 0 -170 -19q-129 -31 -254 -82t-242 -108q-74 -37 -156 -82t-147 -88q-49 -33 -97 -68t-89 -75
q-12 -12 -23 -31l-8 -13v3q-10 -14 -21 -11q-20 8 -14 23zM94 336q2 14 21 29q16 12 31.5 25t31.5 26l101 78q31 23 62.5 43t64.5 41q14 14 18 30l12 78q8 59 17.5 117.5t17.5 118.5l31 204q4 18 8 38t8 38q2 10 8 20.5t19 10.5q10 0 16 -12.5t6 -28.5v-14q-2 -14 -4 -27.5
t-12 -28.5l-4 -8q-18 -119 -34.5 -234.5t-31.5 -234.5q0 -16 17 -8l55 31l55 32l230 125q18 8 36 13q16 4 27 -2q14 -4 14 -21q0 -4 -8 -12q0 -2 -2 -3t-2 -3q-41 -12 -74.5 -29.5t-62.5 -38.5h2l-27 -16q-41 -25 -87 -50.5t-87 -52.5l-65 -39h2l-23 -10q-14 -10 -16 -33
l-31 -211q-29 -180 -53.5 -356t-28.5 -358q-2 -6 0 -15.5t6 -15.5l4 -16q16 0 24.5 6t14.5 14l148 156q16 18 33.5 36.5t38.5 34.5q57 49 113.5 98.5t113.5 96.5q29 25 59.5 48.5t61.5 45.5q6 4 16 9t14 8l17 8q18 8 33 -4q23 -23 12 -41q-8 -16 -27 -41q-25 -25 -49 2
q-6 6 -12 4t-10 -6l-56 -45q-16 -14 -39.5 -30.5t-40.5 -33.5l-36 -33l-132 -120q-37 -35 -71 -72l-56 -62q-57 -61 -118 -118q-6 -6 -13.5 -11.5t-15.5 -9.5h2q-23 -10 -44 -3t-30 30q-14 41 -16 74q-1 21 -1 43q0 115 18 227q22 133 38 268q10 55 18.5 110.5t16.5 110.5
q6 31 10 60.5t9 58.5q0 4 1 7t1 7q0 8 -7 13q-8 0 -10 -2h-2l-82 -54q-41 -29 -76 -57q-16 -12 -32 -37q-16 -18 -37 -30.5t-39 -20.5q-12 0 -22.5 11.5t-6.5 23.5z" />
    <glyph glyph-name="F" unicode="F" horiz-adv-x="798" 
d="M-413 774q-5 4 1 10q133 113 299 206t330 177q33 16 60.5 30.5t54.5 25.5q55 29 114.5 50t120.5 44q16 8 30.5 21.5t18.5 33.5q2 10 7.5 20.5t9.5 20.5v-2q6 8 13 12t13 0q14 -8 15 -26l-2 -6l-4 -11q0 -4 6 -9t10 -7l27 6q86 29 177 53.5t175 46.5q35 12 73 20.5
t72 12.5q4 0 5 1t6 1q23 4 48 5t50 -1q20 -4 40.5 -12t37.5 -27q17 -17 17 -43q0 -11 -3 -24q-14 -29 -40 -64.5t-48 -58.5q-14 -14 -31.5 -25.5t-36.5 -21.5q-10 -8 -27.5 -14.5t-31.5 -6.5q-16 10 -4 32t33 24q43 20 77.5 60t61.5 87q8 27 2 37q-33 15 -70 15h-5
q-40 -1 -75 -5q-111 -27 -225.5 -59.5t-224.5 -67.5q-14 -4 -36.5 -12t-37.5 -14l-37 -13q-4 -2 -7 -9t-5 -13q-6 -12 -8 -24.5t-4 -26.5q-43 -223 -73 -447.5t-46 -456.5q-2 -14 7 -17t20 -3l28 6q100 33 207 43l19 -2l20 -18l-8 -15q-2 0 -4 -1t-4 -1q-4 0 -5.5 -1
t-3.5 -1h-2h2l-221 -47l-14 -4l-6 -2q-23 -6 -35 -22.5t-14 -38.5q-6 -90 -10.5 -176.5t-8.5 -178.5q0 -43 -2 -98q-1 -28 -1 -53t1 -47l-2 -76q0 -25 23 -35l6 6q2 2 2 10q2 12 4 31t2 29l10 33q4 4 9.5 10t9.5 4q6 -4 9 -9t7 -10l-2 -16q0 -16 -1 -39.5t-3 -40.5
q-2 -16 -4 -37.5t-2 -38.5q-4 -41 -10.5 -85t-30.5 -78q-4 -2 -6 -4.5t-7 -0.5q-31 6 -34 31q-8 27 -12.5 52.5t-8.5 48.5q0 8 -1 17t-1 17q-2 10 -2 17.5v17.5q-4 90 -5 178v35q0 70 3 141q2 82 3 159t5 161l2 16q-2 20 -11 20.5t-24 -3.5l-16 -6l-16 -11
q-66 -37 -138.5 -83t-130.5 -91l-6 -6q-29 -18 -41 -55q-12 -2 -16 5t-4 17.5t5 19.5t11 13l12 14l-2 -2q55 61 141.5 113.5t164.5 95.5l53 25q18 8 24.5 18.5t8.5 24.5v18q31 397 104 793q6 35 11 66.5t14 64.5q0 16 -5.5 21.5t-23.5 -1.5l-64 -26q-51 -20 -106 -45
t-109.5 -49.5t-105.5 -50t-94 -50.5q-102 -53 -198.5 -107.5t-184.5 -119.5q-27 -20 -48.5 -28.5t-36 -9.5t-19.5 3z" />
    <glyph glyph-name="G" unicode="G" horiz-adv-x="843" 
d="M12 94q0 45 4 92t11 90q10 78 27.5 154t37.5 148q16 66 39 129t45 129q16 51 38 108t44 107q31 70 67.5 140.5t82.5 135.5q27 41 55.5 76t60.5 70q18 18 40 33.5t44 23.5q26 8 48 8t40 -8q35 -17 58 -60q16 -35 24 -70.5t13 -72.5q6 -72 11 -143.5t9 -145.5v-30
q-2 -6 -7 -12.5t-11 -6.5q-16 0 -17 19q0 8 -2 12q-4 70 -9 139.5t-11 136.5q-2 20 -7.5 41t-9.5 41q-4 16 -8 41q0 2 -1 4t-1 4q-16 33 -29.5 51.5t-35.5 18.5q-16 0 -33 -7t-39 -22q-25 -16 -47.5 -39.5t-40.5 -48.5q-59 -80 -119 -186q-16 -27 -29.5 -56.5t-27.5 -62.5
q-49 -111 -91 -221.5t-77 -226.5q-29 -92 -51.5 -190.5t-34.5 -196.5q-6 -49 -10 -100q-1 -23 -1 -46q0 -27 2 -53q4 -47 13.5 -94t34.5 -90q2 -4 4 -9.5t0 -3.5l6 -8q16 -23 35.5 -36t42.5 -13q25 0 63 20q57 33 92 80q39 49 72 110.5t57 121.5q35 84 60.5 173t46.5 181
q0 10 2 16q0 6 6 17q4 18 1 22t-24 0q-51 -10 -100 -22t-98 -25q-16 -4 -33.5 -9t-34.5 -11q-20 -4 -28 8q-4 10 0 17.5t12 11.5l10 6h-2l18 6l173 43l88 20q10 2 17 6.5t7 18.5q0 6 1 11t3 12q0 4 1 8t1 8q0 23 19 39q10 10 23.5 5t17.5 -17v-24.5t-2 -23.5q0 -23 22 -18
l31 6q18 2 45 10q14 4 31.5 9.5t31.5 11.5q16 4 32 10t32 10q12 6 27 7q8 0 14 -11q4 -6 -4 -18l-21 -10q-47 -23 -99 -38.5t-105 -27.5q-23 -4 -33 -14.5t-13 -36.5q-4 -23 -3 -48.5t1 -47.5v-33v-47.5t2 -44.5q2 -57 3.5 -120t5.5 -120q2 -29 4 -59.5t6 -59.5l10 -131
l12 -157q8 -72 15.5 -141.5t13.5 -141.5l8 -90q2 -23 3 -45.5t5 -42.5q0 -4 2.5 -13.5t3.5 -18.5t2 -15.5t1 -3.5l6 -35q0 -4 1 -6.5t1 -4.5q0 -16 -19 -24q-20 -6 -24 8q-4 8 -8 16.5t-4 16.5q-8 47 -14.5 93t-10.5 93q-10 78 -17.5 157t-15.5 157q-6 61 -12 122.5
t-10 120.5l-11 115q-4 29 -6 57.5t-4 57.5q-2 14 -2 28.5v28.5t-1 27.5t-1 29.5q-2 16 -3 30.5t-1 29.5h-4q-10 0 -13 -6.5t-6 -12.5q0 -2 -1 -3t-1 -3l-57 -153q-29 -72 -71 -137.5t-101 -125.5q-45 -45 -106 -61q-18 -5 -35 -5q-49 0 -92 40q-37 35 -54.5 76t-27.5 84
q-10 41 -13.5 78.5t-3.5 78.5z" />
    <glyph glyph-name="H" unicode="H" horiz-adv-x="1011" 
d="M-126 596q1 6 3 10l4 4q2 2 2 4q20 -8 38 -10t34 -2q20 0 38.5 2t37.5 6l35 6q6 0 17 2.5t17 4.5l52 6q20 6 24 30l6 127q0 6 1 15.5t1 13.5q4 74 8.5 148.5t10.5 146.5l6 86q0 14 2 29.5t2 29.5q2 29 3 57.5t5 57.5q4 33 9.5 64.5t11.5 64.5l8 47q0 6 8 23v-2
q18 23 35 20q20 -4 22 -24q2 -4 -1 -7.5t-5 -7.5t-4 -9t-2 -7l-6 -43q-6 -35 -11 -78t-10 -80q-4 -31 -5 -61.5t-3 -59.5q0 -16 -2 -30.5t-2 -30.5l-6 -94q-4 -33 -5 -67t-3 -68v-11l-8 -143l-6 -80q-2 -23 14 -28t39 -1l28 5l29 6l35 8q43 10 86 18t86 17l27 4q43 12 67 39
l141 194l17 23l22 28q23 29 38.5 74t25.5 90q10 53 25.5 105.5t37.5 105.5q4 16 19 35q10 14 31 14l10 -10t10 -12q4 -18 0 -37q-10 -76 -35.5 -146.5t-60.5 -136.5q-8 -16 -14.5 -33.5t-8.5 -33.5q-6 -31 -10 -61.5t-8 -61.5q0 -4 -1 -7t-1 -7l-11 -68v-8q0 -2 -1 -3t-1 -3
q0 -16 5.5 -19.5t15.5 -1.5h8q12 2 25.5 3t23.5 5q47 10 94.5 18.5t94.5 16.5q16 2 31.5 5t31.5 5q4 0 6 1t4 1q8 4 15 2q12 -2 18 -8q2 -4 -1 -7l-5 -5l-68 -20q-31 -6 -61.5 -12.5t-58.5 -10.5l-60 -12l-59 -11q-25 -4 -39 -7t-22.5 -11t-10.5 -20.5t-4 -34.5
q0 -6 -1 -16.5t-1 -16.5q-2 -6 -2 -15.5v-15.5q-2 -35 -3 -67.5t-5 -65.5q-6 -74 -10.5 -148.5t-4.5 -148.5v-289q0 -6 1 -11t1 -9v-16q0 -10 1.5 -19.5t1.5 -19.5q4 -76 6 -157t18 -157q4 -18 11.5 -36.5t23.5 -34.5q2 -2 2 -7.5v-9.5q-4 -2 -13.5 -4t-13.5 2
q-10 8 -20 20.5t-14 22.5q-14 57 -23 115q-8 49 -11 108.5t-5 112.5q0 14 -1 27.5t-1 25.5v23q0 6 -1 12t-1 12v338q0 27 -1.5 52.5t1.5 52.5q4 90 10 178t12 178v8q0 4 1 5t1 4q0 18 -20 16q-12 -4 -23.5 -5t-21.5 -3q-4 0 -5.5 -1t-3.5 -1q-16 -4 -26 -4
q-41 -2 -63.5 -20.5t-41.5 -47.5q-63 -106 -125.5 -218t-113.5 -235q-16 -35 -29.5 -75.5l-26.5 -79.5l-6 -23l-14 -43q-23 -63 -44.5 -136t-29.5 -140q-8 -53 -15 -108.5t-13 -108.5q0 -8 -2.5 -19.5t-2.5 -21.5l-6 -54q-2 -10 -3 -21t-5 -22q0 -2 -2 -6t-2 -6l-4 -8t-6 -4
q-6 0 -13.5 9t-11.5 17q-2 4 -3 14.5t-1 14.5v101.5t2 101.5q2 53 3 107.5t5 107.5q0 20 1 39.5t3 42.5v28.5t2 24.5q0 10 1.5 22.5t1.5 22.5q2 72 4 143.5t6 145.5l12 287v27.5t-2 21.5h-51l-137 -19q-12 -2 -31 -2t-33 4l-31 13l-12 6q-2 0 -1 6zM207 -82v-53q0 -6 4 -10
q2 -2 6 -2l12 12v10l21 70q0 8 4 12q8 29 17.5 61.5t19.5 61.5q16 47 34.5 92t36.5 90l11 23q23 57 52.5 112.5t61.5 108.5l35 59v-2l19 29l28 51q2 4 4 10t13 21h-21q-4 0 -8 -1t-6 -1q-29 -4 -56.5 -9.5t-56.5 -11.5l-30 -6l-27 -6q-4 0 -5 -1t-3 -1h-8l-103 -19
q-23 -4 -27 -9t-6 -27q0 -4 -1 -8.5t-1 -8.5v-16q0 -6 -1 -16.5t-1 -16.5q-2 -8 -2 -17.5v-15.5l-12 -233q-2 -23 -2 -44.5v-43.5v-88v-78t-2 -78zM694 750q23 -8 37 -7t25 5q4 0 5 1t5 1q16 4 22 4q2 0 3.5 1t3.5 1q27 6 30 30l6 52l9 69v2q-2 2 -2 6v19l-15 -12h2l-16 -13
q-16 -20 -33.5 -42.5t-36.5 -49.5l-24 -35z" />
    <glyph glyph-name="I" unicode="I" horiz-adv-x="514" 
d="M-209 1243l13.5 22.5t17.5 18.5q16 10 31.5 19.5t21.5 13.5q72 35 153 61.5t156 44.5q43 10 86 17.5t86 15.5l109 21q104 16 213.5 29.5t216.5 15.5q31 2 62.5 -1t60.5 -16q43 -17 43 -57q0 -8 -2 -16q-4 -23 -23 -23q-10 0 -13 6t-7 15l-4 8l-4 12t-7 8q-6 4 -19 6
t-24 2q-16 2 -37.5 2h-37.5q-59 0 -117.5 -5t-118.5 -15q-18 -4 -37.5 -6t-40.5 -4q-18 -4 -36.5 -5t-36.5 -3q-18 -4 -20.5 -8.5t5.5 -24.5q10 -14 -10 -31h2q-8 -4 -11 -11t-7 -16q-20 -68 -30.5 -132t-21.5 -130q0 -10 -2 -18t-2 -17q-4 -39 -10 -75.5t-12 -73.5l-8 -49
q-2 -16 -5.5 -37t-5.5 -37q-4 -29 -7 -54.5t-7 -53.5l-8 -68q-6 -41 -11.5 -86t-9.5 -88q-4 -63 -8 -125t-8 -123q-4 -72 -6 -144q-1 -36 -1 -71.5t1 -71.5v-10q0 -33 2 -64.5t18 -60.5q6 -10 -10 -26q-6 -4 -16.5 -3.5t-14.5 9.5q-16 14 -20 32q0 6 -1 11.5t-1 9.5
q-8 59 -12 125q-2 47 -2 91v91h2q0 10 1 28.5t1 28.5q2 43 2 85t4 85q4 53 10 104.5t12 102.5q4 33 8.5 65t8.5 64q4 39 8 81t8 81q4 35 8 72t8 71q4 33 10.5 66t12.5 66q20 154 68 305v-2q8 10 3 14t-16 4q-12 -4 -26.5 -6t-28.5 -2q-88 -14 -174 -37t-172 -51
q-25 -10 -55.5 -22.5t-57.5 -24.5l-6 -4q-14 -6 -26.5 -14.5t-16.5 -26.5q-2 -10 -13.5 -9.5t-17.5 7.5q-14 14 -10 22zM38 -600l5 10l14 29l6 6q10 12 23.5 26.5t30.5 24.5q49 39 105.5 74t115.5 59l63 29q53 23 107.5 46.5t107.5 47.5q29 14 55.5 28.5t51.5 29.5l55 30
l8 4h-2l19 6q4 0 11 -1t11 -5q2 -4 4 -10t-2 -10t-9 -10.5t-9 -10.5l-6 -6q-47 -35 -98.5 -62.5t-98.5 -49.5l-119 -52q-33 -12 -66.5 -27.5t-64.5 -29.5q-59 -29 -115.5 -60.5t-103.5 -72.5l-29.5 -29.5t-19.5 -34.5q-5 -22 -25 -22q-27 4 -24 41q-4 -4 -1 2z" />
    <glyph glyph-name="J" unicode="J" horiz-adv-x="903" 
d="M-158 1352q-2 10 5.5 21t17.5 16h10t10 2q16 2 31.5 4t32.5 6q47 8 95 15t97 14q68 10 134.5 17t132.5 13l38 4l80 9l54 4q18 2 36.5 6t30.5 22q4 4 14.5 3t16.5 -5q14 -16 39 -16q123 8 252 12q18 0 37.5 1t37.5 1q76 0 151 -7t151 -28q2 0 4 -1t4 -1l8 -4q2 -2 6 -2
q4 -4 9 -8t5 -8q0 -10 -14 -15q-18 -4 -31 0q-84 14 -165.5 17.5t-167.5 3.5q-66 -2 -127.5 -4t-122.5 -6q-10 -2 -16.5 -2h-12.5q-23 -2 -28 -6.5t-3 -24.5q0 -4 1 -8t1 -11v-55l4 -106q4 -47 7.5 -96.5t5.5 -100.5q4 -45 5 -89t3 -89l4 -86v-17.5t2 -17.5q4 -18 29 -6
l59 47q33 25 69 49.5t68 48.5l125 90q10 10 25 15q4 -2 9 -5t9 -7v-9.5t-2 -7.5l-18 -16l-8 -8q-51 -37 -101.5 -75t-99.5 -77q-47 -33 -96 -72l-39 -30h2q-18 -10 -23.5 -23.5t-5.5 -30.5v-82q0 -41 1 -82v-28q0 -28 -1 -55q0 -59 -4 -115.5t-8 -112.5q-6 -115 -25 -227
q-14 -74 -33.5 -161t-40.5 -163q-16 -47 -35.5 -95t-41.5 -93q-20 -35 -45 -67.5t-62 -61.5q-47 -37 -98 -37q-47 0 -96 39q-12 12 -25.5 26.5t-24.5 26.5q-37 59 -60.5 132t-33.5 138q-4 29 -6 56.5t-2 54.5q0 31 3 61.5t7 63.5q16 119 74 225q27 57 59.5 109.5t73.5 103.5
l17 21q33 41 67.5 83t69.5 83q23 25 51.5 52.5t52.5 51.5l76 72q10 10 18.5 25.5t8.5 31.5q-6 104 -9.5 210t-7.5 212v23q-2 39 -2 77.5v79.5q0 27 -1 52.5t-1 52.5q0 23 -5 27.5t-30 2.5q-53 -4 -109.5 -9t-109.5 -11q-94 -10 -189.5 -20.5t-187.5 -24.5q-16 -2 -36.5 -3
t-36.5 -5l-60 -9q-31 -6 -39 9zM141 -309q0 -33 3 -66t12 -63q12 -53 30.5 -107.5t49.5 -101.5q20 -31 53 -51q23 -18 47 -18q26 0 53 22q63 57 98 127q31 59 52.5 123.5t38.5 130.5q4 25 9 49t11 51q4 25 10 50.5t13 49.5q0 6 2 12.5t2 12.5q6 45 12 89t10 89q4 35 5 72
t3 71q0 16 2 35t2 35l9 133v60.5t-2 58.5q0 4 -3.5 9t-5.5 9q-6 -4 -11 -5t-7 -3q-35 -33 -73 -71.5t-70 -73.5q-16 -16 -30.5 -33.5t-29.5 -36.5l-43 -51q-51 -66 -98 -135.5t-82 -147.5q-29 -59 -46 -126.5t-22 -133.5q-2 -16 -3 -32.5t-1 -32.5z" />
    <glyph glyph-name="K" unicode="K" horiz-adv-x="956" 
d="M-156 364q10 34 43 37q25 2 48.5 -2t46.5 -12q31 -10 61.5 -23.5t60.5 -25.5q10 -4 15.5 -4t5.5 12q0 4 1 7t1 7q0 10 2 15q8 72 15.5 143.5t17.5 143.5q12 102 31 204l18 107q12 86 29.5 173t35.5 169l13 55q0 2 1 4t1 4l12 31v-2q2 2 6 5t8 1q10 -4 15 -14q7 -19 7 -36
q0 -19 -9 -36q-12 -23 -18.5 -48.5t-10.5 -51.5q-16 -84 -29.5 -166t-27.5 -168q-8 -47 -13.5 -93t-11.5 -93q-4 -29 -8 -59l-8 -60q-8 -59 -15.5 -119.5t-13.5 -124.5v-10q-4 -27 12 -37h-2q12 -10 24.5 -14t27.5 4q6 4 18 11t20 11q16 10 35 19.5t29 17.5q12 8 27.5 20.5
t27.5 22.5q141 113 250 257.5t189.5 311t134 354t82.5 388.5l12 31v-2q10 16 26 16q14 -8 15 -37q4 -35 -2 -61q-31 -182 -84 -364.5t-134 -352.5t-192.5 -322.5t-259.5 -271.5q-16 -16 -38.5 -30.5t-43.5 -29.5q-6 -4 -17.5 -10t-15.5 -10t-8 -4q-10 -6 -9 -12.5t7 -10.5
l31 -24l205 -127l135 -80l63 -35q41 -23 83 -44t83 -44q20 -10 43 -19.5t45 -15.5q26 -6 48 -6q14 0 26 2q33 6 55 35l25 49q0 2 1 2t1 2q8 12 25 6q4 -4 10 -9t4 -9q0 -16 -1 -30.5t-5 -24.5q-43 -84 -131 -84q-16 0 -34 2t-38 8q-53 14 -101.5 37.5t-97.5 48.5l-20 10
q-35 16 -66.5 35.5t-66.5 40.5l-47 27q-35 18 -66 38.5t-65 42.5l-64 39q-20 10 -37.5 22.5t-38.5 25.5q-20 12 -39.5 23t-38.5 24q-25 14 -48 1.5t-27 -36.5q-2 -35 -5.5 -71t-5.5 -71q-2 -33 -4 -67.5t-6 -69.5q-6 -53 -10 -107.5t-4 -107.5q0 -16 1 -30.5t1 -30.5
q0 -35 6 -68l6 -35q4 -33 31 -51q16 -12 16 -28q-8 -20 -28 -7q-20 10 -37 25.5t-21 40.5l-6 41l-12 74q-2 12 -2 25.5v27.5v51l10 176l14 178q0 10 1 21.5t3 23.5l5 48q0 20 -3.5 24t-23.5 8l-31 4q-8 0 -14 1t-14 3q-47 10 -92.5 39t-80.5 72q-10 18 -10 37q0 13 4 26z
M-96 328q-6 -10 10 -27l6 -6v2q4 -6 14 -12h-2q23 -16 48.5 -27.5t54.5 -13.5h65q8 4 17 12l-8 8v-2l-5 8q-39 27 -80.5 41.5t-89.5 24.5q-10 2 -18 2t-12 -10z" />
    <glyph glyph-name="L" unicode="L" 
d="M61 -27v105q-2 0 1.5 31.5t5.5 119.5l8 103q2 35 5 71.5t7 71.5l6 60q14 113 30.5 231.5t33.5 230.5q16 88 33.5 178.5t35.5 182.5q2 10 5.5 24.5t13.5 30.5q2 4 13 9t17 10q4 -2 9.5 -8.5t9.5 -14.5v2q4 -39 6 -79t4 -79q0 -14 -3 -26.5t-19 -20.5q-23 -10 -30 -26.5
t-11 -38.5q0 -4 -1 -5t-1 -3l-7 -54q-14 -104 -29.5 -206.5t-33.5 -202.5q-23 -141 -35 -278.5t-16 -280.5q-1 -24 -1 -49q0 -51 3 -108q4 -85 8 -161q2 -29 7 -56.5t16 -43.5q35 -59 95 -93q46 -26 100 -26q16 0 32 2q78 16 151.5 48t133.5 69q16 10 32.5 22.5t34.5 26.5
q8 6 15.5 12t15.5 10l20 17l37 33l15 4q14 14 34 20q12 4 25 -4q0 -2 -4 -18h2l-12 -15l-7 -8v2l-38 -26q-8 -8 -13 -9q-4 -2 -8 -5t-14 -15l-31 -21q4 0 -5 -5t-15 -9l-15 -10q-33 -23 -65.5 -45.5t-67.5 -42.5q-61 -37 -127.5 -56.5t-136.5 -23.5q-8 -1 -17 -1
q-26 0 -53 9q-37 12 -70.5 35.5t-60 53.5t-41.5 65q-18 72 -24.5 145.5t-8.5 138.5z" />
    <glyph glyph-name="M" unicode="M" horiz-adv-x="1718" 
d="M-233 401q4 12 12 13q8 0 14 -6q0 -2 2 -2q2 -2 4 -3q0 -8 2 -10v2q9 -31 30 -31q8 0 19 5l9 4q23 10 42 19t36 20q53 35 103 81t93 93q51 53 101.5 114.5t93.5 120.5q14 18 28.5 42t30.5 52v-2q12 16 14 27l33 154q20 88 49 178q18 55 37 109.5t41 107.5q45 125 133 244
q14 23 32.5 44t47.5 33q12 8 25.5 -1t19.5 -27q2 -8 4 -15.5t-2 -15.5q-4 -25 -10 -49.5t-12 -46.5q-41 -115 -93.5 -226.5t-111.5 -220.5q-23 -43 -46.5 -86t-47.5 -88l-47 -86q-10 -25 -19 -51l-18 -115q-10 -53 -17.5 -103t-13.5 -104q-10 -92 -17.5 -184t-9.5 -182
q-2 -53 -3 -104.5t-5 -104.5l-6 -133q-2 -31 -1 -60.5t1 -60.5v-63q0 -8 8 -9v2q0 2 1 2t1 5q0 8 2 12q0 6 4 14q6 82 19 162q0 4 1 5t1 5q10 86 19.5 172t19.5 172q10 72 21.5 142.5t27.5 142.5q10 47 21.5 95t25.5 95q18 59 45 119l23 60q14 33 35.5 71.5t42.5 71.5
q31 35 65 65q16 13 32 13l42 -23q10 -10 15 -22.5t9 -24.5q14 -55 19.5 -112.5t5.5 -114.5q0 -129 -6 -254q0 -25 -1 -54.5t-5 -56.5q-4 -20 -4 -37q-2 -37 -5.5 -71.5t-7.5 -69.5l-8 -86l-18 -207v-13t2 -15q0 -4 1 -7.5t1 -7.5h4q4 8 8 19.5t8 21.5q18 59 40 129t38 129
l61 195q18 59 41 128.5t45 129.5q35 92 76 188.5t88 186.5q4 14 17.5 33.5t23.5 35.5l13 19q14 16 31.5 32.5t39.5 24.5q7 1 13 1q39 0 67 -32q27 -35 40 -78t24 -83l6 -33q8 -45 14 -89t10 -91q2 -35 4 -72t7 -72q2 -33 5 -70.5t5 -72.5q2 -68 3 -136.5t1 -138.5
q1 -23 1 -46v-23q-1 -34 -1 -70v-242q0 -20 16 -20q18 -8 19 -25l-21 -55v2q-14 -23 -4 -57q4 -8 4 -17q2 -6 1 -12t-9 -10q-16 -8 -25 8q-2 0 -4 4t-2 6q-4 4 -8 14.5t-6 16.5q0 4 -1 9t-1 9q-4 23 -6 44.5t-2 44.5q-2 29 -1 59.5t1 60.5v62q0 23 -1 47t-1 49v96
q-4 78 -5 159t-3 159q0 10 -1.5 21.5t-1.5 21.5q0 23 -1 43t-3 43l-18 243q-8 57 -18.5 113.5t-34.5 112.5q-12 27 -23 43q-14 25 -41 4q-27 -20 -41 -45v2q-41 -61 -73.5 -130t-61.5 -140q-29 -68 -54.5 -135.5t-47.5 -137.5l-29 -92q-8 -25 -15.5 -49.5t-17.5 -48.5
q-20 -80 -47 -160l-12 -37q-12 -35 -24.5 -74t-22.5 -73q-12 -35 -23.5 -73t-21.5 -73l-21 -47l-14 -37q-6 -10 -16.5 -16t-22.5 -4q-23 2 -27 28q0 10 -1 19.5t-1 19.5v58q6 72 13.5 141.5t15.5 140.5q2 29 5 63t5 62q6 61 11.5 119.5t9.5 118.5q2 33 2 64.5v64.5
q0 23 1 43t1 43q1 24 1 48t-1 50q-2 51 -10 98q-2 16 -6.5 38t-10.5 38q-4 16 -15 17.5t-22 -9.5q-12 -10 -26.5 -26.5t-24.5 -30.5q-29 -47 -55.5 -106.5t-46.5 -114.5q-25 -70 -45.5 -145.5t-36.5 -147.5q-4 -23 -8.5 -46.5t-8.5 -45.5l-12 -70l-14 -106q-4 -35 -9.5 -72
t-9.5 -72l-18 -168q-4 -45 -9 -88t-12 -86q-4 -29 -8 -59.5t-8 -58.5l-8 -50q-2 -6 -4 -14t-6 -12q-10 -23 -29 -23q-25 4 -29 27t-6 41t-2 35q-2 63 -2 123.5v121.5v101l4 100q0 23 1 50.5t3 50.5q6 94 13.5 195t15.5 196l16 75q6 43 11.5 86t9.5 89v12q0 4 2 6
q-14 -8 -19 -14v2q-35 -49 -74.5 -99.5t-78.5 -93.5q-55 -59 -119 -118.5t-129 -106.5q-20 -12 -43 -24.5t-41 -20.5q-18 -9 -37 -9l-41 11h2q-30 21 -30 49q0 8 2 16zM475 1087q0 -6 4 -6h4q4 4 9 13q2 4 6 13t8 13q16 29 37.5 72t38.5 74q37 76 73.5 150.5t71.5 152.5
l31 84l33 84l-7 26q-16 0 -28 -12q-8 -2 -13 -14v2q-68 -90 -125 -207q-37 -86 -65.5 -174t-54.5 -178l-11 -37q0 -4 -2 -9.5t-2 -9.5q-2 -10 -4 -18t-4 -19z" />
    <glyph glyph-name="N" unicode="N" horiz-adv-x="1124" 
d="M-86 664q0 45 3 93t9 93q10 74 25.5 147.5t44.5 145.5l18 49q14 41 31.5 87t34.5 85q29 66 65.5 129t94.5 117l16 16t18 16q22 13 50 13q6 -1 13 -1q36 -4 52 -34q10 -20 19.5 -43t13.5 -45q8 -41 14 -86t8 -86q6 -57 7.5 -112.5t1.5 -110.5v-64q-1 -105 -5 -211
q-6 -140 -14 -272q-4 -49 -8 -99.5t-8 -99.5l-10 -135q-2 -47 -6.5 -91t-8.5 -89v-35q-4 -2 -5 -1t-1 -11l8 10l4 10q4 4 5.5 12.5t3.5 12.5l65 241l10 33q14 47 26.5 94t29.5 90q39 117 83 231t107 222q8 14 21.5 32.5t29.5 41.5q12 16 31 26q12 7 23 7q21 0 34 -27
q6 -12 11.5 -25.5t7.5 -27.5q4 -35 6 -73q1 -19 1 -37t-1 -36v-80v-93t-2 -93v-47q0 -92 1 -186.5t11 -184.5q4 -55 10.5 -114.5t16.5 -116.5q8 -59 24.5 -116.5t38.5 -115.5q12 -23 24.5 -43t29.5 -36q24 -25 54 -25q12 0 25 4q29 10 49.5 21.5t34.5 27.5q115 94 170 226
l4 8q12 18 31 14q20 -8 12 -27q-6 -18 -16 -38.5t-20 -40.5q-29 -51 -69 -97.5t-93 -93.5q-25 -16 -54.5 -28.5t-58.5 -20.5q-31 -8 -57.5 5t-48.5 36q-33 35 -51.5 70.5t-32.5 72.5q-20 53 -30.5 106.5t-21.5 108.5q-2 23 -4 44.5t-6 43.5q-4 23 -6 42.5t-4 39.5
q-4 55 -7 110.5t-7 112.5v62v74t2 73q2 88 3 175.5t1 173.5q0 14 -1 26t-3 25q-2 12 -2 24.5v22.5q-2 6 -5.5 11t-7.5 11q-10 -10 -12 -10t-6 -2q-6 -8 -13.5 -16t-11.5 -17q-29 -43 -53 -95t-47 -103l-10 -25q-29 -72 -58.5 -149.5t-50.5 -151.5l-14 -45
q-23 -74 -44.5 -149.5t-41.5 -147.5q-14 -49 -23.5 -98t-19.5 -103l-19 -92l-38 -201l-19 -88q-8 -37 -12 -71l-10 -72q0 -14 -7 -27v2q-8 -12 -28 -12q-16 6 -17 19q-2 4 -2 10q0 4 -1 6t-1 6l15 115q4 27 6 50.5t6 45.5l6 47l8 96q2 25 5 52.5t8 64.5l12 101
q10 92 20.5 184t16.5 186q0 43 6 90l8 90q4 53 5 119t3 121q4 59 6 118.5t4 119.5q0 33 1.5 66.5t1.5 66.5q0 66 -3.5 132t-11.5 132q-2 41 -8 86t-21 84q-6 6 -6 12q-4 10 -9 18.5t-17 12.5q-16 4 -28.5 -4t-20.5 -17q-35 -35 -60.5 -72.5t-50.5 -78.5q-45 -86 -82 -173
t-61 -173q-23 -74 -40.5 -152t-23.5 -149q-4 -35 -5 -71t-1 -71t2 -71.5t6 -69.5q0 -4 1 -6t1 -6q0 -8 2 -12q0 -10 4 -17.5t21 -3.5q8 4 20 -12v2q2 -8 4 -8q10 -33 10.5 -62t-3.5 -59q-4 -14 -15.5 -15.5t-21.5 7.5q-6 10 -17.5 26.5t-15.5 26.5q-12 33 -20.5 68.5
t-12.5 72.5q-4 35 -6 72t-2 74z" />
    <glyph glyph-name="O" unicode="O" horiz-adv-x="1239" 
d="M80 483q0 35 1 72t3 72q4 104 19.5 210.5t43.5 204.5q16 47 36 98.5t42 94.5q4 8 11.5 15t11.5 16q10 14 20.5 26.5t20.5 24.5q23 23 50.5 39t61.5 20h9q2 0 4 1t6 1q23 -4 29 -16q0 -2 1 -3t1 -3q8 -16 -2.5 -33.5t-28 -30t-38 -19.5t-30.5 -3q-12 2 -19 -6.5t-11 -18.5
v2q-23 -31 -41.5 -69.5t-34.5 -79.5q-25 -70 -42.5 -141.5t-29.5 -145.5q-12 -72 -19.5 -152.5t-9.5 -154.5q-2 -25 -2 -50.5v-50.5q0 -150 19 -297q10 -68 21.5 -134t27.5 -134q14 -47 31.5 -97t40.5 -95q16 -31 33.5 -59.5t37.5 -47.5q39 -37 88 -39q23 -2 52 8
q45 18 81.5 48t67.5 67q23 27 43.5 53.5t38.5 55.5q10 14 21.5 30.5t21.5 30.5h-27q-10 -4 -20 -10t-21 -12l-20 -11q-37 -16 -81 -19q-15 -1 -29 -1q-29 0 -56 4q-35 10 -66.5 33.5t-54.5 48.5q-37 47 -61.5 100.5t-40.5 102.5q-25 90 -34 182t-13 184v30q0 103 12 202
q8 72 22.5 144.5t36.5 141.5q23 68 47.5 134.5t59.5 130.5q27 49 57.5 101t67.5 103q43 55 90 106.5t106 96.5q43 35 90.5 60.5t102.5 35.5q23 4 43 4q34 0 62 -12q44 -20 79 -59q20 -23 32.5 -47.5t23.5 -50.5q25 -74 31.5 -148t6.5 -147q0 -78 -7 -159t-19 -159
q-10 -66 -24.5 -134.5t-30.5 -133.5q-12 -55 -25.5 -109.5t-28.5 -107.5l-12 -45l-16 -51q-6 -16 -12.5 -35t-10.5 -35l-29 -76q-14 -37 -28.5 -72.5t-30.5 -72.5q-12 -33 -28.5 -65t-32.5 -64l-25 -49q-16 -33 -37.5 -67t-48.5 -75t-56.5 -81t-66.5 -74q-55 -55 -121 -82
q-31 -16 -71 -17q-72 0 -134 62q-35 35 -57 69.5t-39 75.5q-33 76 -55.5 159t-38.5 161q-16 96 -29.5 197.5t-17.5 199.5q0 27 -1 51.5t-1 50.5zM287 420q0 -82 6 -158q6 -70 18.5 -136.5t34.5 -131.5q18 -43 40 -84t52 -74q16 -20 42 -35.5t55 -19.5q27 -4 54 -2t50 12
q25 10 52.5 23.5t47.5 27.5q35 25 67 60t54 75q27 51 49.5 108.5t42.5 111.5q0 8 4 12q35 86 63 181t50 188q27 98 49.5 207.5t32.5 213.5q10 66 14 135.5t6 135.5q-4 43 -9 86t-11 84q-10 35 -21.5 70.5t-29.5 66.5q-27 37 -63 55q-27 14 -61 14q-11 0 -22 -1l-59 -17
q-55 -25 -101 -57.5t-87 -71.5t-80 -86t-72 -94q-37 -55 -73 -124t-64 -132q-27 -66 -50.5 -131.5t-35.5 -136.5q-4 -31 -11.5 -62t-13.5 -61q0 -4 -2 -11.5t-2 -11.5q-8 -55 -12 -113.5t-4 -115.5z" />
    <glyph glyph-name="P" unicode="P" horiz-adv-x="735" 
d="M2 1438v10q0 30 10 63q18 41 53 82t72 72q70 53 147.5 88t164.5 49q39 6 79 6q70 0 142 -18q59 -14 119.5 -40t111.5 -64q59 -47 104.5 -105.5t67.5 -130.5q16 -61 17 -117q0 -45 -11 -92q-6 -31 -20.5 -66.5t-32.5 -70.5t-37.5 -69t-38.5 -60l-24 -33
q-12 -16 -22.5 -32.5t-26.5 -32.5q-29 -35 -60 -67t-63 -65q-51 -51 -106.5 -95t-117.5 -81q-82 -51 -161 -80q-27 -8 -27 -32q0 -16 -2 -39t-2 -39q-2 -20 -3 -41t-1 -37q0 -14 -2 -32.5t-2 -32.5q-2 -12 -3 -32t-1 -32q-4 -59 -7.5 -119.5t-7.5 -120.5q-4 -82 -8 -173
t-6 -173q-2 -78 -2 -153.5v-153.5q2 -57 4 -120.5t6 -121.5q0 -6 -1 -16t-3 -14v2q-6 -10 -20 -15l-17 13q-10 25 -10 51q-4 59 -6 117.5t-4 117.5v56q-2 0 -3 1t-3 1l6 293q0 41 1 80.5t3 80.5q2 47 4 93.5t6 93.5q0 12 1 23.5t1 23.5v23.5t2 23.5l25 354q0 10 -4 18.5
t-21 8.5q-6 0 -13 1t-13 1h-26.5t-25.5 4q-43 10 -74.5 38t-54.5 67v-3q-14 31 2 41q16 8 31 -16q14 -27 35.5 -47.5t50.5 -30.5q25 -10 50.5 -11t49.5 1q20 2 21 25l8 79q2 20 3 40t5 40q6 88 19 178q8 78 15 156t17 156l19 157l20 158q0 10 2.5 25.5t2.5 25.5l6 52l6 38
q2 12 18 13q6 -2 12.5 -7.5t6.5 -11.5v-12q0 -2 -1 -4t-1 -6t-2 -11.5t-2 -11.5q-10 -82 -20.5 -162.5t-20.5 -160.5q-6 -57 -11.5 -113.5t-9.5 -116.5q-4 -66 -10 -129t-12 -129q-4 -47 -7.5 -95t-7.5 -97v-19q0 -29 4 -31.5t33 7.5q96 41 177 101.5t155 131.5q41 41 81 85
t74 91q47 66 89.5 133.5t60.5 151.5q4 25 7 48.5t3 45.5q0 115 -69 215q-31 41 -76 80t-94 64q-74 37 -156 54q-66 14 -134 14q-16 0 -32 -1q-59 -4 -116.5 -21.5t-110.5 -45.5q-41 -23 -78 -50.5t-66 -58.5q-27 -33 -51 -82v2q-12 -22 -11 -46q0 -17 5 -36q4 -8 3 -15
t-13 -13q-10 -6 -21 12q-8 14 -12 33z" />
    <glyph glyph-name="Q" unicode="Q" horiz-adv-x="909" 
d="M4 260q0 72 8 143.5t25 141.5l6 18l8 36t8 34q45 190 140 368q37 70 92 142q25 35 54.5 60.5t64.5 41.5q33 16 71 17q43 0 86 -25q35 -18 60.5 -48t42.5 -65q23 -47 40 -93t25 -97q0 -14 4 -27.5t9 -25.5l6 -23q4 -20 -4 -27h-2q-12 -8 -13.5 -16t2.5 -18
q16 -82 28.5 -167t18.5 -165q2 -35 3 -67.5t1 -67.5q0 -78 -6 -154q-6 -78 -22.5 -152.5t-48.5 -146.5q-16 -33 -12.5 -43t36.5 -27l457 -253q25 -14 43 -24.5t41 -27.5l57 -34h-2q10 -8 19.5 -16.5t17.5 -18.5q6 -10 2 -23v2q-6 -8 -22 -8q-10 0 -19 8q-35 25 -77 49.5
t-89 49.5l-80 43l-335 188h2l-70 37q-16 8 -22.5 6t-14.5 -14q-25 -31 -56.5 -55.5t-64.5 -41.5q-51 -24 -104 -24h-4q-43 0 -86 12q-59 16 -105.5 55t-85.5 86q-33 43 -56.5 91.5t-39.5 95.5q-25 78 -31 155q-6 57 -6 115zM57 250q0 -55 6 -113q10 -98 44 -183t98 -157
q35 -39 78 -64.5t100 -31.5q12 -1 24 -1q55 0 100 24q54 28 97 75q12 16 -6 29l-68 39l-24 14l-47 29h2q-59 37 -118.5 75t-119.5 78l-18 15q-16 14 -41 25.5t-51 15.5q-8 4 -14.5 13t-4.5 20q2 10 10.5 16t20.5 4q10 0 22 -6h-2l23 -12q4 -4 13 -9.5t16.5 -9.5t13.5 -7
t4 -1l139 -90l95 -60l159 -98q27 -16 35 -13t21 32l10 28q10 27 19 56.5t18 56.5q18 86 25 170q4 53 4 109q0 31 -1 63q-2 88 -11 176t-28 174q-16 76 -38.5 150.5t-57.5 142.5q-12 23 -25.5 44.5t-27.5 37.5q-33 33 -62 33q-33 0 -63 -35q-8 -10 -16.5 -21.5t-18.5 -33.5
q-25 -45 -40 -92.5t-29 -94.5l-11 -35l-24 -96l-13 -55q0 -2 -1 -4t-1 -4q0 -6 -4 -15v2q-6 -10 -16 -10q-6 2 -14 17v10t2 10q18 86 38.5 172t53.5 168q12 35 31.5 66.5t48.5 58.5q16 16 37.5 24.5t42.5 8.5q16 0 33.5 -6.5t29.5 -14.5q14 -12 29.5 -26.5t25.5 -30.5
l19 -33l33 -47q0 -2 3 -4t5 -4v-21h4v2q-2 6 -2 21q-2 0 -4 4t-4 6q-4 45 -36 91t-71 73q-34 24 -69 24h-3q-37 0 -73 -24q-43 -29 -82 -74q-45 -59 -79 -124.5t-65 -135.5q-23 -49 -39 -102.5t-30 -106.5q-25 -96 -42.5 -197.5t-17.5 -199.5z" />
    <glyph glyph-name="R" unicode="R" horiz-adv-x="921" 
d="M-51 965q6 43 23.5 88t39.5 80q72 109 181 178q75 45 159 59q28 5 56 4q56 0 112 -18q88 -33 142 -103q41 -53 64.5 -119.5t31.5 -132.5q2 -23 2 -47q0 -58 -10 -116q-14 -82 -43 -156q-29 -76 -72 -150.5t-90 -136.5l-60 -73q-6 -10 -9 -19.5t7 -26.5v3
q45 -66 88 -133.5t87 -135t92.5 -132t103.5 -122.5l27 -16q29 -18 49 -6t24 47q0 2 -1 3t-1 7v12q-4 25 15 29q10 4 16 -2t10 -14q10 -29 3 -58.5t-29 -52.5q-18 -20 -49 -20t-58 16h2q-68 45 -120 107.5t-98 132t-88 141.5t-87 133l-23 35q-8 12 -16 7t-18 -13
q-37 -31 -82 -66t-92 -51q-14 -8 -19.5 -14.5t-7.5 -20.5q0 -10 -1 -22.5t-1 -26.5q-4 -147 -5 -290.5t-1 -291.5q2 -51 6 -102t14 -100q4 -20 9.5 -38t21.5 -28h-2q10 -4 10 -12t-4 -17q-2 -6 -8 -8q-29 2 -44.5 21.5t-22.5 45t-11 54.5t-6 51q-12 178 -12 364.5t4 356.5
v17q0 10 1 21t1 19q4 18 -8 31q-27 25 -28 59v9q0 28 5 55q0 2 2 6t2 6q2 8 4 16.5t6 12.5q16 29 23 51q8 37 8 72t4 72l8 147q4 53 7.5 104.5t7.5 102.5q6 66 13 137.5t19 136.5q2 14 7.5 34t12.5 34t17.5 16t21.5 -20q-4 -16 -6.5 -34.5t-6.5 -37.5q-20 -143 -29.5 -284.5
t-20.5 -284.5l-4 -125q-2 -8 4.5 -11t10.5 -3q25 12 51 12q22 0 45 -9q49 -20 84 -53q18 -8 29 7l10 10q16 16 30.5 33.5t30.5 42.5q76 113 132 235q54 118 53 254v10q0 88 -29 166q-14 33 -34.5 68t-47.5 61q-48 47 -108 67q-43 14 -89 13q-19 0 -39 -2
q-84 -16 -159.5 -65.5t-128.5 -114.5q-33 -41 -53.5 -87t-26.5 -100q-1 -10 -1 -20q0 -49 25 -94v2q4 -4 6.5 -11.5t-8.5 -17.5q-8 -8 -17 -3t-18 15q-23 29 -27 66q-2 20 -3 39q0 17 2 33zM215 223q-2 -35 5 -39t38 13q33 23 63.5 46t57.5 52l11 16.5t1 14.5l-18 14l-58 31
h2q-11 4 -21 4q-22 1 -42 -17q-30 -26 -35 -61q-2 -10 -2 -21.5v-21.5q-2 -10 -2 -31z" />
    <glyph glyph-name="S" unicode="S" horiz-adv-x="1071" 
d="M33 750q4 38 14 77q37 113 105.5 209.5t159.5 176t196.5 140t216.5 99.5q37 14 82 25q47 10 93 15q10 1 20 1q36 0 73 -14q41 -14 71 -44t34 -79q0 -29 -5.5 -57.5t-15.5 -57.5q-10 -43 -31.5 -83t-37.5 -58q-18 -20 -17 3q0 20 25 89q8 27 15 55.5t13 55.5q4 10 4.5 25
t-1.5 28q-4 23 -21.5 42t-40.5 29q-31 12 -67 13q-10 0 -29 -2t-31 -6q-41 -6 -80 -19q-113 -37 -215 -92t-189 -131t-155.5 -169t-112.5 -206q-13 -38 -13 -77q0 -16 2 -30q7 -54 36 -100q51 -68 121 -113.5t142.5 -86.5t141 -86.5t117.5 -112.5v2l17 -31l28 -67
q92 53 195.5 98t193.5 74q25 12 37 -6q-10 -27 -26 -39h2q-53 -10 -110.5 -31t-110 -46.5t-96.5 -52t-72 -47.5q-2 -2 -6.5 -12t-6.5 -16q-2 -59 -21.5 -124t-41.5 -118q-49 -104 -129 -213q-23 -31 -50.5 -60.5t-58.5 -51.5q-23 -23 -50.5 -29t-47.5 16q-21 21 -21 44
q0 7 2 17q10 32 25 64q39 82 95.5 172t113.5 162q12 16 24.5 30.5t26.5 30.5l56 64q16 12 12 39q-2 51 -27.5 92t-60.5 74q-55 47 -111.5 79.5t-114.5 65.5q-41 23 -86 51.5t-83.5 63.5t-69.5 78t-43 92q-5 25 -5 50q0 13 1 26zM340 -479q4 -14 11 -14.5t15.5 6t15.5 15.5
t13 13q10 10 20.5 19.5t16.5 17.5q49 61 93 128t73 144q12 37 23 78v23l-27 -21l-12 -18v2q-29 -37 -54.5 -74t-54.5 -78q-23 -33 -53.5 -84t-50.5 -92l-21 -41v2q-4 -4 -5 -11t-3 -15z" />
    <glyph glyph-name="T" unicode="T" horiz-adv-x="536" 
d="M-422 1171q8 20 23 15q23 -10 47 -9t47 5l20 4l58 16q281 102 560 197.5t570 163.5q72 23 145.5 38t145.5 27q51 10 100 15.5t101 9.5q23 4 31 -2t10 -17q2 -18 -33 -24q-23 -4 -44.5 -7.5t-45.5 -7.5q-236 -37 -465.5 -100t-458.5 -135q-25 -6 -27 -35q1 -25 1 -49v-24
q-1 -36 -1 -72v-138q0 -224 4 -445q3 -150 4 -301q0 -140 -3 -282q-4 -63 -6.5 -136t-4.5 -136q-2 -39 -3 -77t-1 -75q0 -10 -8 -30q-4 -14 -14 -11q-4 0 -10.5 5.5t-10.5 9.5t-5 11t-1 11q0 2 -1 4t-1 4q-4 41 -13 77t-22 73l-4 8q-4 12 -4 10q-4 14 4 25q4 2 14.5 -1
t14.5 -7q10 -8 13 -4t3 12v37q0 4 1 10t1 12q5 246 5 490q0 122 -1 244q-1 86 -1 173q0 280 10 562q-2 16 -9.5 16t-25.5 -8q-78 -25 -152 -52.5t-149.5 -53t-151.5 -48t-156 -34.5q-23 -2 -49 4q-10 0 -22.5 5t-22.5 11q-14 4 -6 16z" />
    <glyph glyph-name="U" unicode="U" horiz-adv-x="761" 
d="M30 476.5q1 29.5 1 62.5v73q4 94 10 197.5t18 208.5q8 66 17.5 131t25.5 127l11 29l8 18v-2q8 14 22 16q8 4 13 0q4 -2 7 -9t-1 -11q-25 -35 -33 -75t-12 -81q0 -6 -2 -13t-2 -13q-23 -152 -29 -304.5t-6 -304.5q0 -100 9 -208.5t26 -206.5q6 -39 21.5 -86.5t31.5 -81.5
q8 -20 14 -27q12 -16 26.5 -27.5t29.5 -11.5q16 0 28 7t29 22q63 63 94 149q25 70 44.5 141.5t31.5 143.5q10 59 17 116.5t16 116.5q8 72 15 147t11 146q4 35 4 67t2 66q0 23 1 45.5t3 45.5q4 59 8.5 116.5t8.5 116.5q0 10 8 16q4 4 9 9.5t9 5.5q6 0 12.5 -5.5t10.5 -9.5
q8 -12 4 -28l-6 -109q-2 -23 -3 -52.5t-1 -49.5q-4 -90 -5 -177t-3 -175v-55.5t2 -55.5q4 -68 7 -135.5t7 -134.5q10 -121 28.5 -239t49.5 -234l6 -23l8 -23q0 -2 1 -3t1 -3q4 -12 10.5 -21t26.5 -14q14 -2 18.5 -23.5t-4.5 -37.5q-8 -8 -25.5 -9t-27.5 11q-25 25 -35 49
l-6 15q-8 20 -16 43.5t-12 46.5q-14 59 -27.5 120.5t-24.5 122.5q-8 41 -12 81t-10 81l-6 55l-15 48h-4q0 -4 -2 -11.5t-2 -11.5q-4 -8 -4 -16q-14 -78 -30.5 -155t-43.5 -148q-31 -96 -98 -179q-33 -39 -74 -55q-23 -10 -43 -7t-43 15q-37 20 -61 66q-27 53 -42 108.5
t-24 114.5q-10 72 -16 142.5t-10 142.5q-2 31 -1 60.5z" />
    <glyph glyph-name="V" unicode="V" horiz-adv-x="917" 
d="M0 858q0 57 2 113.5t10 115.5q10 94 29.5 186.5t54.5 182.5q16 45 36 88l40 86q16 41 43 78t59 74q12 18 26.5 27.5t31.5 15.5q18 4 33.5 2t27.5 -19q10 -14 17.5 -26.5t11.5 -24.5q14 -57 18 -121q2 -20 2 -40.5v-41.5q0 -66 -4 -131t-10 -131q-10 -90 -17.5 -179
t-15.5 -181q0 -4 -1 -12.5t-1 -12.5q-8 -66 -14 -128t-12 -128q-6 -82 -12.5 -166t-10.5 -168q-4 -61 -7 -122.5t-7 -122.5q-2 -35 -2 -71v-71q0 -55 2 -109t6 -110q6 -55 18.5 -111.5t38.5 -105.5q4 -8 8.5 -14t8.5 -10q27 -27 53 -9q8 4 15 11.5t14 13.5q29 29 48 66.5
t35 72.5q31 68 54.5 139.5t42.5 141.5l6 24q14 47 27.5 97.5t23.5 97.5q35 143 59 291q12 66 20.5 130t16.5 130q4 29 4 57.5v57.5q0 10 -2 16q-4 18 -10 32.5t-29 18.5q-4 4 -8 10t-4 11q-2 14 17 18q16 6 36.5 -4t28.5 -27q6 -12 11 -26.5t5 -28.5q0 -49 -2 -98t-6 -99
q-4 -51 -11 -104t-15 -104q-8 -47 -16.5 -90.5t-18.5 -86.5l-14 -65q-14 -63 -30 -125t-32 -125q-16 -59 -34.5 -117.5t-39.5 -118.5q-14 -49 -36.5 -94t-53.5 -90q-27 -43 -65 -72q-14 -10 -31.5 -15t-30.5 -5q-27 0 -50 15.5t-40 41.5q-27 47 -41 100.5t-20 106.5
t-10.5 110.5t-6.5 112.5q-1 24 -1 49q0 24 1 50q2 50 6 102q4 86 8.5 169t10.5 169q4 57 9 112.5t11 112.5l9 76q6 70 12 137.5t14 137.5q0 6 1 12t1 12q2 16 3 32.5t5 33.5l7 45q0 8 2 19t2 22q4 23 5 45t3 45q0 23 2 43t2 43q4 63 7 125.5t5 124.5q0 23 -3 50t-7 52l-4 23
q0 10 -4 14q0 2 -1 4t-1 4q-11 26 -28 26q-11 0 -25 -12l-19 -20l-18 -18q-29 -33 -50.5 -73t-41.5 -81q-51 -102 -84 -218t-50 -231q-8 -68 -13 -145.5t-7 -142.5l12 -213q2 -20 10 -47q0 -6 -2 -13.5t-10 -11.5t-13 1t-9 11l-4 15l-13 49q0 12 -1 27.5t-3 27.5
q-6 86 -6 174z" />
    <glyph glyph-name="W" unicode="W" horiz-adv-x="1214" 
d="M68 254q0 311 8 619.5t35 617.5q0 6 4 14q0 4 2 8.5t2 8.5q4 10 14 19t21 13q10 0 17 -7t13 -15q10 -14 12.5 -22.5t6.5 -16.5l16 -37q12 -20 -12 -31q-4 -4 -12.5 0.5t-18.5 14.5l-10 8q-6 -6 -6 -14q-2 -18 -3 -37t-5 -35t-6.5 -34.5t-2.5 -35.5q-24 -500 -24 -996v-40
q0 -258 6 -516q2 -25 3 -51.5t5 -53.5q0 -8 6 -16q6 6 6 14l19 156q6 61 10 122.5t8 125.5q12 176 30.5 355t59.5 351q4 8 10.5 18.5t16.5 24.5q10 18 30.5 24.5t37.5 -1.5l12 -12l22 -21q29 -41 55.5 -82t55.5 -84q59 -94 128 -189t155 -167q29 -23 62.5 -43.5t68.5 -26.5
q8 -1 16 -1q32 0 59 20q18 14 29.5 37.5t20.5 48.5q16 90 24 177t8 177q0 180 -29.5 357.5t-82.5 347.5l-19 34q-10 10 -15 8.5t-11 -14.5q0 -4 -2 -6q-4 -4 -8.5 -9t-8.5 -3q-12 0 -18 12q-10 23 6 46.5t43 21.5q25 -2 41 -17.5t29 -36.5v2q61 -184 98 -378.5t37 -393.5
q0 -92 -10.5 -188t-28.5 -188l-18.5 -37t-28.5 -33q-49 -47 -107 -47q-41 0 -90 24q-74 43 -136 102.5t-117.5 128t-103.5 143.5t-91 147l-37 63q-8 12 -15 16l-14 15l-10 -12q-4 -4 -7 -9.5t-5 -15.5q-41 -166 -57.5 -337t-28.5 -341q-8 -104 -16.5 -208.5t-22.5 -209.5
q-4 -20 -7.5 -42.5t-7.5 -43.5q-2 -4 -9 -14t-15 -19q-25 -12 -39.5 -1.5t-23.5 31t-13 46t-4 41.5q-4 16 -5 36t-3 36q-2 141 -3 278.5t-1 278.5z" />
    <glyph glyph-name="X" unicode="X" horiz-adv-x="1011" 
d="M-22.5 -776q-0.5 31 4.5 59q10 59 27.5 126t33.5 126q8 29 17.5 57.5t19.5 57.5l31 96q10 25 18 50.5t16 49.5l15 39q12 31 24.5 66t22.5 65q10 23 18 46.5t19 48.5l12 30q12 29 22.5 59.5t20.5 59.5l25 59l32 74l11 33l12 35l8 16q16 35 31 72q4 10 8 20.5t8 20.5l21 51
q2 6 0 16.5t-6 16.5q-39 106 -78 203l-6 18q-6 16 -12.5 35.5t-14.5 36.5q-8 23 -17.5 49t-19.5 49l-25 65q-18 45 -36.5 91.5t-38.5 89.5q-20 45 -45 91t-54 83l-8 6l-8 8q-14 -14 -18 -22q-4 -10 -5.5 -22.5t-3.5 -24.5q0 -2 -1 -4.5t-1 -4.5q0 -6 -4 -14q-12 -23 -35 -23
q-14 0 -32 25v-2q-4 12 -4 23q-2 15 -2 30q0 30 8 62q16 35 49 43q10 2 20 2q23 0 47 -13h-2q47 -29 81 -66.5t57 -84.5q0 -2 2 -4t2 -4q16 -25 32.5 -53.5t26.5 -51.5t21.5 -49.5t21.5 -50.5q16 -43 31.5 -91t32.5 -93l10 -31l4 -19l6 -18q14 -41 27.5 -81t25.5 -81l9 -16
q0 -2 1 -4t1 -6q4 4 6 9t6 9q0 2 4 6q16 41 32.5 79t35.5 77l34 88l39 90q14 33 28.5 63.5t31.5 63.5l45 96q23 49 46 101.5t48 101.5q18 37 41.5 76t48.5 73q8 14 18.5 23.5t22.5 19.5t26.5 6.5t20.5 -16.5l19 -30v2q2 -8 1 -14.5t-12 -10.5q-14 -8 -26 8v-2
q-8 14 -13.5 11t-11.5 -13l-39 -68v3l-33 -60l-63 -133l-39 -80q-2 -6 -5 -12t-5 -12l-13 -31q-23 -45 -43 -94.5t-40 -96.5l-99 -215q-10 -20 -24.5 -46.5t-16.5 -49.5l-39 -96q-2 -4 0 -12.5t6 -14.5q6 -18 17.5 -47t19.5 -47q14 -43 37 -92l17 -33l39 -74l43 -73v2l4 -6
l16 -33q31 -47 71 -95.5t87 -89.5q29 -29 67 -38q27 -10 43.5 0t32.5 32q29 38 29 93v14q0 12 4 33v-2q8 8 20 12q4 -2 9.5 -4t9.5 -6v2q14 -27 10 -37t-5 -15.5t-1 -9.5v-12q-4 -35 -14.5 -66.5t-40.5 -54.5q-38 -33 -80 -33q-15 0 -31 4q-29 6 -55 21h2l-13.5 9t-13.5 11
l-25 21l-18 14l-88 98l-37 50q-10 12 -18 23t-19 26v-2q-23 35 -42 70.5t-36 70.5q-12 23 -22 44.5t-21 43.5l-12 25q-4 8 -8 24l-14 37q0 6 -4 10q-10 -6 -11 -12l-37 -88q-8 -20 -15 -39.5t-17 -38.5l-50 -117l-28 -65l-15 -39l-24 -68l-25 -63l-24 -62l-8 -24
q-10 -29 -20.5 -58.5t-20.5 -58.5q-4 -16 -10.5 -29.5t-12.5 -29.5l-31 -86q-8 -29 -17 -60.5t-20 -60.5q-6 -20 -13 -39.5t-13 -42.5q-10 -33 -18.5 -64.5t-16.5 -64.5q-4 -14 -6 -28.5t-4 -28.5l-10 -60q2 -16 4 -29.5t6 -25.5q4 -16 23.5 -20.5t37.5 6.5q16 12 31 6
q8 -12 -6 -31q-14 -10 -30.5 -16t-29.5 -6q-45 0 -71 49q-12 18 -12.5 49z" />
    <glyph glyph-name="Y" unicode="Y" horiz-adv-x="935" 
d="M-41 678q0 41 2 83t6 87q10 123 31.5 251t69.5 244q2 10 22 31q12 12 16.5 12t14.5 -14q18 -18 6 -31q-72 -170 -90.5 -356t-18.5 -371v-77l7 -68q2 -10 6 -23.5t14 -17.5q12 -4 27.5 5t25.5 18q47 43 84 94t68 104q66 111 120 227.5t103 243.5q16 45 31.5 88t30.5 88
l49 140q8 18 13 36.5t11 36.5l13 37l8 21q10 16 26.5 18t28.5 -14v2q12 -20 18 -47q23 -76 35.5 -152t22.5 -153q14 -104 26.5 -216t24.5 -219l4 -41l6 -40q2 -23 25 -17q4 0 8 2t16 6l31 13q2 0 3 1t3 1q10 4 17 2q6 0 12 -6q0 -4 -1 -9.5t-3 -7.5q-10 -10 -17 -10l-47 -21
l-18 -6q-23 -12 -21 -32q8 -70 14.5 -137.5t10.5 -139.5t7 -143.5t3 -143.5q0 -53 -2 -111.5t-6 -111.5q-6 -104 -24.5 -210.5t-49.5 -209.5q-18 -59 -44.5 -118.5t-61.5 -114.5q-18 -27 -39 -50.5t-49 -41.5q-47 -31 -90 -31q-59 0 -113 57q-31 35 -50.5 73t-31.5 79
q-23 72 -32 145.5t-9 149.5q2 76 10.5 147.5t22.5 143.5q18 98 48 197.5t69 191.5q35 74 77.5 147.5t102.5 132.5q39 39 78 69t84 52q23 12 27.5 21.5t0.5 31.5q-10 76 -21 151t-24 148l-55 367l-6 37l-8 55l-9 10l-6 -6q-10 -18 -16 -38.5t-10 -39.5l-21 -71l-149 -367
q-29 -76 -71 -156.5t-87 -156.5q-29 -47 -60.5 -94.5t-68.5 -88.5q-18 -20 -39 -38h2l-16 -13q-23 -23 -58 -23q-7 0 -14 1q-37 6 -53 39q-18 72 -25.5 136t-7.5 130zM301 -386q-1 -29 -1 -58.5t1 -59.5q4 -68 16.5 -137.5t40.5 -132.5q12 -27 30 -54.5t40 -45.5
q35 -29 70 -29q31 0 61 18q29 16 49.5 38t36.5 48q45 68 74 143.5t49 157.5q20 84 32.5 171t16.5 173l12 275l-10 147l-12 191q-4 35 -7 69.5t-7 67.5q-2 25 -27 14q-51 -29 -100.5 -68.5t-87.5 -82.5q-41 -51 -74 -112.5t-62 -125.5q-33 -78 -58.5 -156.5t-41.5 -160.5
l-31 -174q-8 -57 -10 -116zM870 696l2 2z" />
    <glyph glyph-name="Z" unicode="Z" horiz-adv-x="1024" 
d="M25 1100q-1 11 -1 22q0 28 7 57q10 40 24 74q20 45 49 91.5t58 87.5q70 92 157 161q23 18 46.5 36t50.5 34q39 23 79 41t87 20h9q31 0 55 -12q28 -14 44 -49q18 -37 24 -77q4 -29 4 -59q0 -11 -1 -22q-4 -59 -19.5 -120.5t-35.5 -116.5l-64 -154q-16 -35 -35.5 -74
t-38.5 -71q-10 -23 -27.5 -47.5t-35.5 -53.5l-55 -94q-10 -18 -29 -39l-17 -22q-20 -29 -39.5 -55.5t-41.5 -55.5q-23 -31 -45.5 -60.5t-47.5 -60.5l-22 -28q-23 -27 -41 -54h2q-4 -2 -10 -12l-9 -14q12 0 17 2q31 12 64.5 27.5t62.5 27.5q18 8 35.5 16.5t36.5 18.5l28 14
l58 23l53 18l67 23q94 35 191 35q23 0 47 -7q4 0 9 -2t9 -2q16 -4 33 -13t33 -22q20 -16 32.5 -34.5t20.5 -38.5q11 -35 19 -70q5 -23 6 -50q0 -14 -2 -30v-14q0 -43 -10 -87q-12 -52 -29 -106q-4 -14 -10.5 -25t-12.5 -24l-12 -26q-12 -29 -31.5 -62t-42.5 -63l-26 -45v2
l-45 -68q-33 -43 -69 -88t-75 -86l-28 -29l-55.5 -55.5t-59.5 -50.5q-35 -29 -77 -53.5t-83 -34.5q-25 -6 -48.5 -7t-47.5 7q-23 12 -21 26q4 20 29 19q10 -1 20 -1q37 0 70 12q41 15 80 42l41 29l8 4l12 12l76 72l17 18l30 37l37 45l21 25q23 25 42 49t38 51l84 131l26 41
q14 27 21 51q2 2 2 4q0 4 2 7l14 32q4 6 8 17.5t6 17.5q18 41 26.5 89t8.5 93q1 12 1 23q0 23 -3 45q-4 33 -18 61q-10 23 -24.5 38.5t-37.5 23.5q-18 8 -36.5 9t-38.5 1h-18q-28 0 -55 -4q-36 -6 -71 -16q-8 -4 -12 -4q-61 -18 -125 -45q-14 -4 -40 -16.5t-40 -18.5
l-33 -15l-49 -22q-16 -8 -36.5 -19.5t-37.5 -17.5q-25 -10 -52 -18.5t-54 -14.5q-20 -6 -33.5 10.5t-7.5 36.5q4 14 9 25.5t11 21.5v-2q23 39 50.5 74t56.5 70l61 78q72 96 138 194q20 29 38.5 57.5t36.5 57.5l45 86v-2l7 10q12 23 32.5 62.5t32.5 64.5q6 10 14.5 30.5
t12.5 35.5l20 51l27 73q8 27 14 54.5t10 56.5q8 45 8 94q0 15 -1 29q-2 23 -6.5 42t-18.5 36q-12 16 -29.5 19t-36.5 1q-61 -12 -112 -41h2l-27 -16q-12 -6 -22.5 -11.5t-14.5 -9.5q-8 -4 -18 -13t-19 -15l-18 -15q-16 -14 -35.5 -31.5t-34.5 -31.5q-41 -45 -77 -90
q-14 -16 -27.5 -38t-30.5 -44q-23 -41 -43 -84t-30 -90q-4 -18 0 -37q0 -6 1 -12.5t1 -12.5q0 -10 2 -12q0 -4 4 -8v2q6 -14 -6 -27h2q-20 -8 -29 11q-4 10 -8 26.5t-8 26.5z" />
    <glyph glyph-name="bracketleft" unicode="[" horiz-adv-x="421" 
d="M74 -158q2 86 7 174t21 174q4 37 5.5 77t5.5 81q6 49 14 99.5t14 97.5q4 43 7.5 84t7.5 86q4 35 9 69.5t11 71.5q2 35 3 67.5t1 65.5q6 66 8 130.5t7 129.5q6 41 34 25q25 -12 49.5 -17.5t53.5 -9.5h12t14 -2q14 -6 13 -18q2 -6 -3.5 -10.5t-9.5 -4.5q-16 -2 -33.5 -2
h-33.5h-6q-29 4 -35 -1t-10 -40v-55.5t-2 -56.5q-4 -55 -7.5 -109.5t-11.5 -109.5l-10 -154l-16 -145q-10 -68 -17.5 -134.5t-11.5 -138.5q-10 -78 -15.5 -157.5t-15.5 -161.5v-46t2 -46v-50.5t2 -50.5q0 -10 1 -18t3 -19q16 -27 37 -26q10 2 23.5 3t23.5 9q35 18 68 36.5
t61 41.5q10 2 17.5 5t13.5 5q14 8 23 -10q6 -20 -2 -29q-47 -35 -91.5 -67.5t-95.5 -49.5q-16 -6 -29.5 -7t-25.5 1q-70 14 -82 99q-4 29 -6 57.5t-2 56.5z" />
    <glyph glyph-name="backslash" unicode="\" horiz-adv-x="665" 
d="M121 1389q-2 12 4 18q0 20 14 18q4 0 10.5 -11t10.5 -15l6 -31l29 -223q4 -51 14 -101.5t20 -105.5q4 -41 10.5 -89t16.5 -99q0 -6 2 -17q16 -96 32.5 -197.5t35.5 -203.5l53 -283q16 -72 30.5 -142.5t36.5 -148.5q2 -12 2.5 -9t0.5 13.5t-1.5 20.5t1.5 14q4 16 16 17
q12 -10 18 -29q9 -54 21 -111q6 -29 6 -46t6 -48q-2 -12 -1 -22.5t1 -24.5q-4 -23 -14 -22.5t-27 10.5q-10 10 -16 23.5t-13 27.5q-41 129 -68.5 242.5t-49.5 226.5l-33 168l-29 164q-12 59 -19 119.5t-18 121.5q-10 53 -19 107.5t-13 101.5q-10 57 -17.5 114.5t-15.5 113.5
l-31 235q-4 23 -6 48.5t-6 54.5z" />
    <glyph glyph-name="bracketright" unicode="]" horiz-adv-x="434" 
d="M8 -319q-4 8 4 28q8 16 19 17h28q25 -10 51.5 -19.5t59.5 -13.5q10 -4 21.5 -1t23.5 5q20 8 43 37q6 16 7 22t3 15q4 25 7.5 50t7.5 50q2 20 4 44t2 48q0 78 2 157t0 154q4 72 3 138.5t-3 132.5q-4 39 -4 72.5t2 70.5q0 39 2 75t0 77q-2 53 1 105t3 108l10 112
q0 35 -8 40t-53 1h-109q-4 0 -11 4t-7 11q0 6 4 11t20 9q8 4 19.5 4h17.5q41 2 81 6t65 17q16 10 26 6t8 -27q-2 -63 -7 -126.5t-5 -129.5q-4 -33 -6 -65.5t-2 -67.5q2 -37 4 -70.5t0 -68.5q2 -43 2 -85t-4 -83q4 -47 7 -96t5 -99q-4 -41 -6 -78.5t0 -72.5q8 -86 3 -172
t-11 -172q-4 -55 -19 -113q-10 -43 -36.5 -64.5t-67.5 -43.5q-12 -4 -25.5 -9.5t-29.5 -3.5q-47 -2 -84 14.5t-68 39.5z" />
    <glyph glyph-name="asciicircum" unicode="^" horiz-adv-x="702" 
d="M135 907q8 18 17.5 38t19.5 38l80 145q4 4 5 8.5t5 8.5q16 23 34.5 23.5t31.5 -25.5q14 -29 25.5 -58.5t23.5 -58.5q16 -37 30.5 -72.5t36.5 -68.5q10 -14 21.5 -25.5t28.5 -19.5q4 -2 9 -5.5t9 -7.5q10 -8 5 -19t-15 -15h-13q-37 0 -63 30q-12 16 -24.5 35t-22.5 37
q-23 41 -40 82t-30 84l-8 22q-8 12 -14 2q-8 -10 -14.5 -22t-12.5 -23q-14 -27 -27.5 -51t-25.5 -51l-23 -51q-14 -29 -39 -17q-23 12 -10 37z" />
    <glyph glyph-name="underscore" unicode="_" horiz-adv-x="1011" 
d="M47 -25q4 6 6 9.5t6 9.5l7 -2q55 8 113.5 16.5t117.5 14.5q154 12 302.5 18t297.5 -21q14 -4 28.5 -10t14.5 -14q0 -25 -16 -25q-4 0 -9.5 1t-9.5 1q-68 12 -134 15.5t-133 1.5t-133.5 -6t-133.5 -7q-72 -4 -142.5 -9t-142.5 -13q-4 -2 -10 -2q-10 0 -19.5 3t-9.5 19z
" />
    <glyph glyph-name="grave" unicode="`" horiz-adv-x="299" 
d="M88 860h2q-4 4 1 13.5t20 13.5q6 -2 19 -4t17 -6q16 -10 39 -54l25 -45q8 -10 4 -11t-13 2t-22.5 10t-23.5 18q-8 8 -17.5 16t-13.5 12q-6 6 -18.5 15.5t-18.5 19.5z" />
    <glyph glyph-name="a" unicode="a" 
d="M-35 113q16 78 52 153.5t92 134.5q12 12 24 19.5t25 15.5q14 8 27 8q19 0 34 -18q16 -18 25 -39q4 -10 4 -18q0 -22 -33 -29q-18 -4 -18 -18q-2 -12 -3 -29t-1 -31q0 -39 10 -67q12 -29 34.5 -46.5t51.5 -3.5q23 10 42 23.5t36 30.5q14 14 35.5 42.5t27.5 39.5l12 28v-4
q23 33 28 21q1 -1 1 -4q0 -18 -33 -91l-10 -18v2l-8 -12q-27 -29 -64 -55.5t-71 -36.5q-13 -3 -26 -3q-21 0 -40 8q-31 13 -47 42l-4 4l-4 10q-8 16 -21 -4q-10 -23 -24.5 -45.5t-26.5 -44.5q-18 -25 -47 -47q-18 -16 -44 -10t-30 30q-4 12 -5 30.5t-1 31.5zM4 86l6 -20
q2 0 4 1t4 1q4 2 8.5 2t8.5 6q2 4 5 6t5 6v-2q10 12 21.5 26.5t21.5 34.5q23 41 39 87.5t27 93.5q8 27 22 34q12 6 19 15q4 4 4 10t-2 8q-8 8 -19 8q-6 -2 -13 -5t-11 -7q-10 -10 -21.5 -22.5t-21.5 -22.5q-35 -41 -58.5 -93t-40.5 -106l-8 -41v-20z" />
    <glyph glyph-name="b" unicode="b" horiz-adv-x="655" 
d="M26 278q4 158 23 318t47.5 319.5t59.5 313.5q16 72 37.5 144.5t48.5 135.5q14 39 37.5 84t62.5 74l8 6q13 8 25 8q23 0 39 -32q24 -59 24 -122q0 -14 -2 -29q-6 -79 -16 -150q-25 -137 -66 -262t-94 -244q-31 -61 -64.5 -127t-72.5 -131q-31 -49 -37 -107v-14
q-6 -84 -11 -167q-2 -38 -2 -76q0 -46 3 -91l8 -98q0 -6 4 -11l6 11q12 51 29.5 101t40.5 99q16 35 41.5 71t60.5 63q16 12 31 8q27 0 49 -39q16 -25 22.5 -53.5t6.5 -57.5q2 -19 2 -38q-1 -44 -11 -83q-14 -55 -55 -106q41 20 79 35.5t80 39t90 64.5t110 117q8 6 13 19.5
t13 7.5q16 -16 6 -37q-59 -90 -122.5 -139.5t-125 -82t-117.5 -57t-101 -63.5q-16 -6 -27.5 6t-11.5 28q4 4 5 16.5t7 18.5l18 17h-2q23 12 39.5 21t26.5 26q16 41 28.5 77.5t14.5 71.5q0 18 -2 39t-8 41q-2 25 -13 41v-2l-6 21q-8 4 -22 4q-25 -16 -39.5 -43t-30.5 -54
q-14 -27 -25.5 -54.5t-21.5 -55.5q-33 -86 -41 -164l-8 -21q-2 -4 -2 -8q-10 -14 -24.5 -15t-24.5 13q-4 8 -7.5 15.5t-7.5 15.5q-2 2 -3 7t-3 9q-19 125 -19 256q-1 25 0 51zM104 651h5l10 15v-2q25 37 45 79.5t41 85.5l14 31q37 84 70 169t57.5 172t36.5 177q9 68 9 138
q0 23 -1 47l-6 45q-2 6 -7 13t-9 7q-8 4 -13 -12v2l-16 -21q-6 -6 -10 -15t-11 -19q-25 -47 -45 -99.5t-34 -97.5q-23 -86 -46.5 -185.5t-37.5 -185.5q-18 -96 -31 -184q-6 -37 -10 -70.5t-9 -72.5q0 -4 -1 -8.5t-1 -8.5z" />
    <glyph glyph-name="c" unicode="c" horiz-adv-x="462" 
d="M12 154q2 45 10.5 89t18.5 85q18 66 46 128t67 122q23 27 57 43q35 10 51 -25q12 -23 17.5 -48.5t7.5 -51.5q1 -20 1 -39q0 -115 -30 -234q-12 -18 -20.5 -15t-11.5 16.5t-2 29.5t5 27q16 76 17 149q0 25 -2 51.5t-6 50.5l-11 39q-12 18 -26 7l-8 -11q4 4 -1.5 -4
t-9.5 -12q-20 -29 -37.5 -67t-29.5 -74q-23 -57 -37.5 -117t-18.5 -121v-31.5t2 -27.5q2 -29 8.5 -58.5t22.5 -50.5q16 -16 41 -23.5t49 -3.5q51 8 92 34t75 59.5t62.5 72.5t55.5 76q16 23 27 41q25 16 21.5 -2t-28.5 -61q-27 -41 -55.5 -83t-62 -77t-74.5 -60.5t-94 -33.5
q-29 -6 -56 -6q-31 2 -65.5 26.5t-46.5 52.5q-20 63 -21 138z" />
    <glyph glyph-name="d" unicode="d" horiz-adv-x="466" 
d="M-10 86q6 84 35 162q8 31 22 60.5t31 58.5q23 47 54.5 71.5t76.5 32.5q29 -10 35 16l67 295q10 45 16.5 91.5t10.5 93.5q8 98 16 195.5t21 197.5q8 47 15 99t40 93q29 20 45 -16q12 -25 12 -49q1 -20 1 -40q0 -73 -17 -149l-88 -417q-4 -14 -7 -35t-3 -35
q-18 -252 -32.5 -501t-29.5 -500q-2 -90 -2 -176.5v-174.5q-2 -12 0 -27.5t6 -27.5q0 -4 1 -5t1 -5q2 -4 8.5 -11.5t10.5 -9.5q10 -4 17 -7t3 -15q-2 -10 -14 -16.5t-23 -6.5q-4 4 -13 9.5t-13 9.5q-16 14 -20.5 32.5t-4.5 36.5q-2 20 -3 50t-2 62t-2 61.5t-1 52.5l6 184
q2 47 3 91t5 91q4 78 10.5 155t12.5 154q4 35 5 75t3 75l4 113q-4 -16 -10 -30.5t-6 -19.5q0 -29 -10.5 -61.5t-14.5 -65.5q-4 -29 -12 -57.5t-18 -56.5q-23 -59 -47.5 -124t-67.5 -118q-10 -10 -22.5 -23.5t-22.5 -21.5q-8 -4 -20.5 -6t-22.5 2q-25 6 -35 29q0 4 -1 5t-1 5
q-4 12 -6 25.5t-2 23.5zM33 45q0 -8 8 -14q12 0 14 2l25 35q10 12 19.5 24t19.5 33q33 61 60.5 130t45.5 138l4 23v2q-2 2 -2 4t-1 4t-1 4h-16q-23 -8 -40 -23.5t-28 -31.5q-35 -47 -55 -103.5t-35 -115.5q-2 -23 -6 -45.5t-8 -49.5zM389 1165q-2 -41 4 -55l4 14
q4 13 9.5 34.5t10.5 48t9 48.5q4 35 8 63t4 25v23q0 2 2 17.5t4 27.5t3.5 21.5t1.5 13.5h-5q-2 -4 -6 -14.5t-8 -22.5t-7 -23.5t-3 -13.5q-4 -6 -10.5 -42t-12.5 -80t-8 -85z" />
    <glyph glyph-name="e" unicode="e" horiz-adv-x="372" 
d="M0 147q6 76 31.5 153t64.5 146q21 32 51 32q12 0 25 -5q14 -8 26.5 -24.5t14.5 -36.5q0 -33 -14 -72q-8 -16 -22.5 -35.5t-31 -37t-33 -29t-28.5 -13.5q-18 -4 -23 -8q-4 -4 -4 -12q0 -33 -5 -66t3 -63q0 -2 1 -4t1 -4q10 -35 26.5 -40t43.5 -1q27 8 49.5 19t40.5 24
q35 25 60.5 49t48.5 53q14 23 32.5 45.5t28.5 48.5q14 29 37 29q6 -4 5 -15.5t-15 -37.5v2q-51 -78 -119 -149.5t-164 -102.5q-14 -2 -31.5 -1t-33.5 9q-25 10 -40.5 34.5t-19.5 53.5q-6 31 -6 59zM75 284q1 -1 1 -5v-7q23 10 31 18.5t20 22.5q35 47 37 99v4l-2 12l-21 2
l-12 -10q-18 -35 -29.5 -64.5t-21.5 -58.5q-2 -4 -2 -6v-2q-2 -4 -1 -5z" />
    <glyph glyph-name="f" unicode="f" horiz-adv-x="436" 
d="M-309 -188q6 10 16 18t21 12q25 10 50 18.5t50 10.5t47.5 7t42.5 22q23 18 46.5 33.5t47.5 31.5q12 12 13 31q4 59 5 116.5t3 116.5q10 190 20 378t29 378q10 115 25.5 228.5t39.5 224.5q10 51 23.5 105t36.5 102q12 25 31.5 53t44.5 47q18 10 41 6q25 -16 28 -47
q4 -28 4 -55q0 -45 -12 -88q-16 -57 -35.5 -121t-36.5 -119q-29 -86 -59.5 -171t-69.5 -167q-14 -31 -20 -62.5t-8 -60.5q-16 -199 -24.5 -397.5t-18.5 -396.5v-33q0 -18 14 -6q23 18 69 40.5t89 45.5l104 51q29 16 55.5 38.5t45.5 59.5v-2l10 10h-2q2 2 11 2h13
q12 -4 13 -14q0 -10 -11 -25q-23 -35 -52.5 -59t-65 -44.5t-72.5 -40t-74 -40.5q-43 -25 -79 -46t-50 -32q-8 -8 -14 -20t-6 -27v-55q0 -8 5 -13.5t9 -9.5q16 -4 36.5 -12t37.5 -18q4 0 8 -2t8 -2q45 -20 96.5 -59.5t85.5 -82.5q74 -104 93 -229q6 -43 6 -88q0 -20 -1 -43
t-5 -43q-10 -55 -28 -106.5t-52 -96.5q-14 -20 -47 -45q-35 -20 -66 -20q-16 0 -35.5 9t-38.5 21q-23 16 -39 39t-28 45q-18 39 -30.5 81t-23.5 87q-23 115 -28.5 229.5t-9.5 231.5v59q0 16 -15 19q-2 0 -3 1t-3 1q-20 4 -50 7t-54 1q-23 -6 -44.5 -16.5t-44 -20.5t-46 -17
t-50.5 -7q-14 4 -22 16t0 27zM-37 -125q6 -4 12.5 -5t4.5 -1l30 -6q12 0 13 14v19v4l-7 6l-8 -4l-8 -4q-6 -2 -10 -4zM70 -211v-88q0 -86 5 -173t19 -171q8 -47 18.5 -97.5t30.5 -97.5q16 -51 54 -88q26 -30 59 -30h2q29 0 55 22q10 10 21.5 23.5t23.5 36.5l7 14
q27 55 38 116q9 49 9 98q0 14 -1 28q-3 63 -21.5 122.5t-49.5 112.5q-47 72 -114.5 114t-143.5 70q-4 0 -8 -3t-4 -9zM137 1100l10 2l7 22q8 16 14 35t12 35q35 94 65.5 191.5t57.5 189.5v8q0 2 1 4t1 6l12 68l-12 37l-2 2q-20 -12 -31.5 -30.5t-19.5 -38t-15.5 -42
t-15.5 -43.5q-33 -111 -52 -222.5t-32 -223.5z" />
    <glyph glyph-name="g" unicode="g" horiz-adv-x="481" 
d="M-184 -1268v16q0 69 16 135q18 73 41 144q47 141 106.5 272.5t124.5 264.5l121 235q4 10 11.5 21.5t11.5 21.5l35 70v-2q4 8 5 18.5t1 20.5q-2 35 -3 71.5t-5 71.5l-9 152l-4 102q0 4 -2 14.5t-4 22.5q-4 -6 -7 -15.5t-5 -17.5q-10 -47 -26.5 -90t-39.5 -84
q-12 -25 -28.5 -45t-40.5 -37q-23 -16 -47.5 -14t-40.5 33q-12 34 -12 69q0 37 11 76q9 37 22 73t28 68q6 12 13 22.5t17 20.5q18 23 42 28t49 -3q16 -6 24 -4t12 22l23 117q0 6 2 10q10 18 29 21q8 -4 12 -10.5t8 -12.5q2 -6 2 -18q2 -59 3 -125t5 -125l7 -184l6 -142
q0 -4 2 -6q0 -2 2 -2l6 6l68 103l63 92q4 6 12.5 18.5t17.5 24.5t18 21.5t13 9.5t2 -18.5t-18 -65.5v2l-31 -43l-96 -144l-53 -96q-4 -12 -4 -18v-95q1 -36 1 -73q0 -168 -15 -334q-19 -201 -64 -399q0 -4 -1 -6.5t-1 -6.5q-16 -53 -30.5 -105t-33 -103.5t-45 -99.5
t-63.5 -91q-20 -20 -46 -37.5t-54 -26.5q-9 -2 -19 -2q-26 0 -50 13q-32 18 -53.5 47.5t-32.5 67.5q-9 32 -9 61v10v12zM-139 -1294q4 -31 13 -59.5t30 -51.5q25 -28 54 -28q14 0 28 6q29 10 51 31.5t37 43.5q55 88 90 191.5t55 206.5q35 158 49.5 316.5t22.5 318.5v49.5
t-2 58.5q0 4 -1 6t-1 6v13h-4q-41 -72 -80 -146t-74 -149l-106 -219q-35 -86 -70 -170t-57 -174q-16 -59 -28 -123q-8 -47 -8 -94q0 -17 1 -33zM66 137q4 -29 22 -10l12 16v-2q23 23 37 45q29 47 45.5 103.5t32.5 111.5q2 12 -12 21q-23 12 -38 9t-34 -25q-16 -18 -25 -44
q-23 -53 -38 -108q-7 -31 -7 -63q0 -26 5 -54z" />
    <glyph glyph-name="h" unicode="h" horiz-adv-x="589" 
d="M14 -41q2 29 3 57.5t1 57.5q6 92 10.5 161.5t7.5 132t6 126t9 143.5t17.5 183.5t29.5 246.5q14 86 23.5 175t25 176t44 170t81.5 155q10 6 21.5 10t23.5 -4q25 -23 25 -61v-14q0 -104 -28 -200q-30 -102 -56 -206q-29 -98 -59.5 -195.5t-63.5 -195.5q-10 -27 -16 -56.5
t-6 -60.5q-2 -27 -4.5 -51.5t-6.5 -51.5q-4 -47 -8 -97t-6 -97q-6 -63 -9 -125t-7 -127l-9 -127v-14q0 -4 1.5 -8.5t1.5 -8.5q10 -10 10 0q2 12 12 31q10 41 21.5 80t23.5 78q23 78 50.5 142.5t72.5 125.5q8 14 20.5 21.5t28.5 3.5t27.5 -22.5t15.5 -35.5
q18 -74 28.5 -149.5t37.5 -147.5q12 -31 25.5 -60.5t29.5 -51.5q23 -28 52 -29q15 0 30 8l29 25q4 4 11 6t13 -6q16 -12 8 -29q-14 -29 -53 -41q-21 -7 -40 -7q-16 0 -30 5q-27 10 -44 30.5t-29 41.5v2q-39 66 -58.5 130t-29.5 130q-4 27 -8.5 53.5t-8.5 54.5l-6 31l-6 6
q-12 4 -12 -2v2q-61 -98 -99 -210.5t-73 -231.5l-2 -12q-10 -25 -15.5 -53.5t-11.5 -57.5t-14 -53.5t-27 -42.5q-10 0 -14 9t-6 15q-10 12 -11 31l2 86h-2zM143 1096q0 -4 2 -9q0 -8 7 -10q8 8 8 13l10 24l27 94q20 66 40.5 135.5t36.5 135.5q14 45 21.5 93t15.5 95l-6 2
q0 4 1 4t1 2v8q0 10 -8 19q-10 0 -12 -10q-10 -14 -20.5 -33t-18.5 -37q-31 -80 -48.5 -169t-31.5 -177q-8 -41 -13 -82l-10 -82q-2 -4 -2 -16z" />
    <glyph glyph-name="i" unicode="i" horiz-adv-x="182" 
d="M20 246q0 33 2.5 63.5t8.5 59.5q-2 20 9 31.5t22.5 11.5t18.5 -11.5t-1 -35.5q-4 -39 -6 -81t-2 -81q0 -57 6 -107q4 -10 12 -16q23 -4 23 -25.5t-29 -19.5q-12 0 -21 8q-26 16 -28 43q-6 39 -10.5 79t-4.5 81zM86 682q6 10 12 14q4 0 9.5 -1t7.5 -3q12 -12 17 -24.5
l9 -22.5v-4q-2 -10 2 -17.5t-10 -19.5q-2 -4 -12 2t-15 10v-2q-14 33 -20 68z" />
    <glyph glyph-name="j" unicode="j" horiz-adv-x="309" 
d="M-327 -1390q1 135 18 266q45 217 110.5 428t182.5 403q35 68 100 127q4 6 5 15.5t-1 17.5q-10 123 -28.5 243.5t-24.5 243.5q0 12 2 19q4 16 22 12q6 0 9.5 -6t5.5 -12q4 -117 20.5 -232t30.5 -231q0 -6 1 -7t1 -3q6 -14 16 -7l35 23l72 35h2h6q14 -4 14 -11q4 -6 0 -10
q-4 -10 -7 -12t-7 -2l-8 -4l-96 -60h2q-23 -10 -19 -36q16 -115 19.5 -227.5t3.5 -227.5q-10 -199 -41 -392.5t-92 -381.5q-14 -43 -28.5 -87t-35 -86t-48.5 -79t-67 -62q-25 -6 -46 -1t-38.5 17.5t-29 30t-15.5 35.5q-46 124 -46 256v5zM-279 -1239q-3 -53 -3 -107
q0 -58 4 -116q6 -111 63 -211q12 -17 32 -17q14 0 33 9q41 43 68 95t47.5 109.5t35.5 118t34 115.5q10 43 18 86t17 88q37 193 45 387q3 63 3 125q0 131 -12 262l-6 66q0 4 -4 12l-16 -8l-10 -13l-43 -59q-123 -217 -198 -455.5t-108 -486.5zM-18 664q4 31 8 49q8 23 28 22
q12 0 24.5 -6t20.5 -22q4 -4 -2 -9.5t-12 -9.5q-16 -2 -19 -9t-3 -20l8 -41q4 -8 4 -16q0 -20 -14 -27q-14 0 -23 17z" />
    <glyph glyph-name="k" unicode="k" horiz-adv-x="608" 
d="M-16 700v27q0 2 2 4t2 4l59 121q8 18 19.5 43t21.5 43q6 16 9 34.5t5 35.5q18 184 39 367.5t66 363.5q14 66 35.5 130t66.5 114q20 20 44 15t34 -34q10 -25 11 -49.5t1 -48.5q-4 -72 -16 -144.5t-29 -140.5q-23 -90 -49 -178q-12 -43 -24.5 -86t-28.5 -86
q-37 -109 -82 -217l-6 -14q-4 -8 -7 -20.5t-5 -8.5q-4 -16 -9 -45q-10 -137 -23.5 -274.5t-21.5 -274.5q-4 -35 -6 -72t-4 -73v-9q0 -2 1 -6t1 -6q10 10 14 18q18 94 43 185.5t80 171.5q16 23 35 42t45 27q14 4 26 4q31 0 52 -30q18 -31 18 -64v-9q0 -78 -32 -157
q-14 -29 -29.5 -56.5t-42.5 -49.5q-14 -14 -29.5 -25.5t-31.5 -23.5h2l-19 -12l-10 -11q2 0 5 -1t7 -1l25 -6q82 -17 166 -23q13 -1 25 -1q71 0 136 32q12 4 25 15q6 6 17.5 19t22.5 23.5t20.5 12.5t13.5 -16l-6 -11l-6 -6q-50 -78 -142 -99q-52 -12 -103 -12q-39 0 -77 7
q-23 4 -46.5 9t-45.5 9q-16 4 -33.5 3t-36.5 -1h-31q-8 0 -11 -6t-3 -12l-20 -201q-4 -57 -7.5 -113.5t-7.5 -115.5q0 -6 -1 -15.5t-1 -15.5q-2 -10 -3 -29.5t-1 -31.5q-4 -59 -5 -118t-3 -118v-10q0 -4 1 -5t1 -3v-12.5t-2 -12.5q-4 -6 -11 -11t-14 -3q-8 0 -13 6t-7 12
v26.5t-2 28.5l-6 217v74q0 223 10 443q12 258 33 518l8 129v16l-8 -10l-47 -96v2l-19 -31h-16l-2 4l-2 10zM82 137h4q4 12 4 21h-6q0 -14 -2 -21zM152 250q8 0 12 2l20 12q70 33 109 84q35 52 57 118q12 36 12 73q0 30 -8 59q-8 14 -21.5 19.5t-29.5 -5.5
q-29 -23 -49.5 -56.5t-36.5 -68.5q-23 -53 -39 -109t-26 -116v-12zM164 1155l4 -2l16 29q4 14 8.5 30.5t14.5 38.5q41 121 74.5 241t56.5 245l12 88l6 55l-8 62q-6 25 -18 4q-16 -25 -23 -43q-51 -131 -76.5 -265.5t-44.5 -273.5z" />
    <glyph glyph-name="l" unicode="l" horiz-adv-x="235" 
d="M39 274v36q-1 176 17 358q20 200 55 393q29 119 59.5 244t71.5 243.5t98 229t141 202.5q12 10 28.5 19.5t33.5 13.5q18 2 39 -4q31 -16 43 -49t15 -73q2 -20 2 -40.5t-2 -41.5q-3 -42 -5 -79q-14 -147 -45 -291.5t-72 -285.5q-29 -90 -61.5 -172t-69.5 -160t-80 -155.5
t-94 -159.5q-25 -35 -51.5 -70t-59.5 -70l-6 -266q4 -135 17.5 -271t42.5 -269q2 -25 16 -56q0 -6 4 -9t12 5q12 12 29 0q16 -10 6 -31v3l-15 -22.5t-24 -10.5q-33 0 -53 37q-29 92 -46 192t-26.5 203.5t-13.5 206t-6 200.5zM94 477l2 -49q162 207 260.5 434.5t161.5 485.5
q35 142 62 290q15 80 15 160q0 68 -11 135q-8 33 -29 33l2 4l-2 2l-2 -2h2q-8 -4 -15.5 -7t-11.5 -7q-80 -84 -135 -183.5t-95 -208t-68.5 -222t-53.5 -224.5q-41 -168 -57.5 -318.5t-24.5 -322.5z" />
    <glyph glyph-name="m" unicode="m" horiz-adv-x="796" 
d="M31 -10q0 26 2 61v144q10 137 16 273t43 271l14 33q8 8 19 12h-2q10 6 17 0t5 -16l-6 -31q-23 -117 -32 -235.5t-15 -239.5q0 -33 -1 -75t-2 -85t-1 -82.5v-68.5v-10q2 0 3 1t3 1l8 102q18 170 76 334q6 18 16.5 38.5t26.5 31.5q16 6 29 -7q25 -53 33 -111.5t24 -113.5
q4 -16 11.5 -36.5t17.5 -30.5q10 -27 26 -5q6 6 12.5 14.5t10.5 16.5q23 31 39 68t47 63q14 12 31.5 11t32.5 -11q41 -33 66.5 -81t60.5 -89l12 -12q10 -8 19 -13.5t22 1.5q16 10 24 26l4 6h2q2 0 3.5 1t5.5 1l2 -8v-14q0 -4 1 -8t1 -8l-23 -25q-20 -7 -36 -7q-15 0 -27 6
q-24 13 -41 36q-37 43 -59.5 78.5t-57.5 78.5q-10 14 -25 0q-29 -33 -48 -69.5t-42 -69.5v2q-8 -16 -24 -33q-14 -10 -31.5 -8t-28.5 15q-6 8 -12 19t-10 20q-14 29 -23.5 64.5t-15.5 64.5l-4 20q-12 47 -19 90q-2 2 -2 4l-4 -4q-2 -2 -4 -2v2l-8 -22l-6 -17
q-45 -119 -58.5 -245.5t-23.5 -249.5q-2 -18 -3 -40t-5 -38q0 -2 -1 -2t-1 -2q-2 -2 -2 -4q-10 -10 -24.5 -14.5t-20.5 5.5q-8 8 -11 13q-10 41 -14 82l-8 82q-4 25 -4 51z" />
    <glyph glyph-name="n" unicode="n" horiz-adv-x="636" 
d="M29 442q0 74 5 148t19 145q12 25 29 17q18 -2 12 -25q-4 -16 -7 -36.5t-3 -37.5q-4 -43 -6 -89t-2 -91q0 -59 1 -121.5t5 -120.5v-10q2 -31 3 -61.5t5 -59.5l4 -53l6 -8q10 16 19.5 41.5t13.5 42.5l17 55l10 35q10 35 22.5 72t24.5 71q10 27 22.5 56.5t24.5 54.5
q6 16 26.5 20.5t34.5 -10.5q14 -25 20.5 -52.5t12.5 -51.5l12 -51q16 -63 46 -119q10 -23 25 -44.5t38 -35.5q14 -11 31 -11q18 0 39 13q25 18 44 36.5t50 55.5q37 29 42 17.5t-11 -39.5q-20 -31 -49 -57.5t-58 -47.5q-25 -18 -55.5 -19t-55.5 15q-37 27 -59 61
q-23 31 -38 69t-25 69l-33 141q-6 6 -6 12q-4 -4 -11 -14q-14 -29 -25 -61.5t-22 -61.5l-45 -158l-20 -65q-10 -35 -21.5 -71t-34.5 -58q-12 -6 -18 -2q-6 2 -13 7t-12 13l-2 8q-8 35 -12 75t-6 77q-4 80 -9 157.5t-5 157.5z" />
    <glyph glyph-name="o" unicode="o" horiz-adv-x="315" 
d="M14 102q0 43 6.5 86t16.5 86q10 35 20 58q12 25 34 30.5t48 -10.5q23 -12 41 -35q0 -2 3 -4t5 -4q8 -16 -8 -20q-4 -2 -14 -2l4 -13q4 -14 7 -20t11 -18q4 -4 4.5 -12.5t4.5 -4.5q2 -2 14 -4t30.5 1t39 12.5t38.5 29.5q10 10 25.5 20.5t24.5 6.5q10 -6 3 -22.5t-26.5 -34
t-48.5 -32t-61 -16.5q-20 0 -38 2t-18 -16q0 -70 -39 -135q-8 -16 -22.5 -26.5t-29.5 -13.5t-30.5 1t-23.5 20q-12 23 -16.5 45.5t-4.5 44.5zM59 82q-4 -29 4 -47q12 -29 23.5 -16.5t22.5 32.5q18 39 23 78t9 86q4 16 -4 26.5t-26 24.5q-6 4 -15.5 8.5t-13.5 -12.5l-8 -47
q-4 -33 -9.5 -65.5t-5.5 -67.5z" />
    <glyph glyph-name="p" unicode="p" horiz-adv-x="632" 
d="M0 -731q0 317 7.5 645t23.5 623q6 66 11 135t12 139t20.5 138.5t36.5 131.5q10 16 27.5 16.5t29.5 -16.5q12 -18 16 -37.5t4 -39.5v-13q-10 -100 -30.5 -199.5t-44.5 -197.5l-31 -102q-4 -10 -5 -21.5t-3 -21.5l-8 -244l-13 -279v-35l4 -12q4 2 7.5 5t5.5 5q4 8 4 11
q0 2 1 3t1 3q18 70 42.5 140.5t51.5 137.5q31 68 57.5 135.5t77.5 122.5q16 8 34.5 9.5t31.5 -13.5q8 -8 10 -14t6 -12q20 -43 25 -88q2 -24 2 -48q0 -22 -2 -45v-32q0 -18 16 -11q47 25 96 50.5t103 42.5l28 10h2h5q8 -4 12 -4q2 -2 4 -2q2 -4 0 -9.5t-6 -7.5h2l-27 -14
q-68 -25 -126 -55.5t-120 -69.5q-8 -8 -20 -25l-12 -20q-10 -18 -21.5 -35.5t-30.5 -32.5l-26 -18h2q-27 -12 -41 2q-8 6 -10 16.5t8 20.5l37 43l10 12q4 6 6 7l6 3q35 20 47.5 50t16.5 63q3 24 3 47q0 53 -16 105l-4 10q-2 6 -3 12t-5 10v-2q-14 23 -29 4l-24 -41
q-18 -41 -38.5 -88t-37.5 -88q-33 -72 -57.5 -146.5t-46.5 -146.5q-20 -61 -31.5 -122.5t-28.5 -122.5q-2 -26 -2 -52.5t2 -51.5q4 -52 4 -105v-19l7 -133q2 -43 3 -85t1 -83q0 -10 -1 -18t-3 -19q0 -16 -17 -16q-10 0 -22 12q-6 6 -7 17q0 6 -1 11t-1 11q-6 39 -10 76
t-8 78zM88 678q0 -2 1 -3t1 -3q27 43 33 99t18 110q4 25 8.5 49t4.5 49l-4 61q0 2 -5 7l-4 6h-4l-10 -11h2q-6 -4 -6 -14l-21 -154q-4 -47 -7 -94t-7 -94v-8z" />
    <glyph glyph-name="q" unicode="q" horiz-adv-x="634" 
d="M-15 -154.5q-3 19.5 13 29.5q41 35 89 35h11q54 -4 105 -27l22 -12q14 -6 17 10q20 111 40.5 221.5t39.5 221.5v13t-11 7q-10 4 -11 4t-5 -4l-62 -111q-33 -51 -71.5 -106t-95.5 -84q-23 -4 -40.5 6t-23.5 29q-1 17 -1 33q0 80 25 155q29 90 83 174q14 20 31.5 36
t45.5 16q29 2 51.5 -13.5t38.5 -38.5q8 -10 12.5 -10t10.5 12l49 107q8 20 15.5 38.5t17.5 37.5q4 16 22 12q8 0 12.5 -6t4.5 -13q0 -18 -4 -38q-37 -166 -68 -330t-59 -332l-10 -41h6q55 4 109.5 48t103.5 105.5t92 133.5t80 131q12 10 17 7t6 -11t-2 -19.5t-5 -17.5
q-47 -72 -84 -135.5t-79 -116.5t-98 -95t-138 -73q-12 -4 0 -20q16 -23 30.5 -49.5t24.5 -53.5q27 -96 37 -195q8 -82 8 -164v-33q-2 -99 -14.5 -198.5t-28.5 -197.5t-37.5 -193.5t-62.5 -187.5l-6 -17q-12 -33 -45 -59q-18 -16 -38 -13t-30 23q-12 25 -19 54q-2 6 -2 16
q-9 71 -9 140v14q1 75 7 153q12 186 38 369.5t53 369.5q8 53 17 105.5t17 105.5q2 10 -12 11q-29 -6 -61.5 -11.5t-61.5 -9.5q-23 -4 -45 3t-43 20q-16 10 -19 29.5zM35 -150q29 -16 59.5 -13t61.5 7q4 4 4 9q0 2 -2 2l-31 6q-16 8 -32.5 6t-33.5 -6q-10 -3 -26 -11zM39 123
q-4 -25 7 -34t32 9l27.5 27.5t25.5 30.5l12 14q4 4 9.5 11t9.5 16q6 8 12 18v-2l76 133l8 12v-2q4 6 8 14.5t0 16.5l-12 25q-14 23 -42.5 37t-51.5 -9q-10 -10 -18.5 -18t-14.5 -25q-23 -39 -41 -85t-29 -89q-6 -25 -12 -50.5t-6 -49.5zM138 -1294q-1 -21 -1 -40
q0 -76 17 -149q0 -8 4 -12q23 14 39 42t28.5 59.5t21.5 66.5t17 63q53 229 74 462q7 73 7 146q0 158 -32 314q-6 20 -13 43t-17 41l-9 16q-4 0 -10 -6q-4 -4 -4 -12l-37 -221l-30 -205q-6 -39 -11.5 -79t-9.5 -81q0 -4 -1 -10t-1 -10q-6 -57 -11 -116.5t-9 -119.5zM319 385
q4 -12 5 -8l4 -2q4 4 4 8l8 37q-18 -18 -21 -35z" />
    <glyph glyph-name="r" unicode="r" horiz-adv-x="319" 
d="M32 543.5q3 27.5 38 46.5q6 2 12 0q8 -2 16 -13.5t11 -19.5l-7 -14v2q-6 -6 -13 -19.5t-9 -23.5q-2 -38 -2 -72q0 -26 1 -51q3 -57 3 -121v-80q0 -6 6 -12q0 2 1 5t1 7l14 53q25 111 58 216.5t98 201.5q6 8 14.5 14.5t16.5 10.5q25 12 45 -12q18 -16 25.5 -38t9.5 -44
v-11q-4 -25 -19 -24q-18 0 -18 22q-2 16 -4 31.5t-11 28.5q-8 10 -12 10t-14 -10q-16 -20 -29.5 -46t-25.5 -55q-53 -123 -83 -252t-49 -262q-2 -16 -4 -30.5t-6 -30.5q0 -4 -1 -6t-1 -4v-9q-4 -6 -7 -11t-13 -5q-6 0 -11.5 6t-7.5 10q0 4 -1 10.5t-1 10.5q-2 10 -3 21.5
t-1 21.5l-6 135l-8 275v43q2 8 2 16v18q-8 33 -5 60.5z" />
    <glyph glyph-name="s" unicode="s" horiz-adv-x="344" 
d="M-61 -113q2 18 13 49t28.5 67t40 69.5t47.5 56.5q10 10 7 18.5t-7 26.5q-10 41 -24.5 74t-24 68.5t-12.5 76.5q-1 9 -1 20q0 35 8 81q8 51 40 76.5t69 27.5h7q32 0 64 -18q34 -20 54 -58q4 -6 9 -18t-1 -17q-2 -2 -7 -10t-13.5 -13t-16.5 -2t-16 25q-2 4 3 17.5t1 15.5
q-10 20 -29.5 29.5t-42 7.5t-42 -16.5t-27.5 -40.5q-9 -48 -9 -85q1 -5 1 -11q2 -42 11 -76.5t21 -65.5t25 -63q0 -10 4 -11q78 53 137 83t137 55q4 2 10 2q4 -2 7.5 -3t7.5 -6q6 -10 -4 -16q-4 -4 -10.5 -7t-10.5 -5q-74 -33 -137 -68t-135 -100q-4 -4 -4 -8q4 -16 7 -32.5
t7 -33.5q6 -43 6 -88q0 -17 -1 -35q-3 -64 -42 -112q-16 -23 -39.5 -41.5t-54.5 -18.5q-46 2 -58 41q-6 22 -7 48q0 21 4 44zM-19 -159q3 -23 19 -40q11 -6 27 0q33 23 47 54.5t19 67.5q3 20 3 40q0 16 -2 33q-4 37 -8 72q-2 6 -2 11t-4 9t-4 1t-4 -7q-31 -43 -54.5 -92
t-33.5 -103q-6 -23 -3 -46z" />
    <glyph glyph-name="t" unicode="t" horiz-adv-x="237" 
d="M-807 1036q-4 2 0 17q10 10 27 14q55 23 114 39q180 53 365.5 75.5t368.5 49.5q27 0 28 29q6 51 8 104t8.5 106.5t18.5 103.5t37 97q12 14 26.5 11t24.5 -17q14 -23 14 -37q5 -42 5 -83q0 -49 -7 -98q-12 -89 -20 -181q0 -18 20 -19q31 4 61 5t62 3l105 9l127 8
q14 0 30 -4q12 -4 13 -13q2 -6 -11 -14h3q-4 -2 -15 -2q-4 0 -5 -1t-5 -1l-193 -14q-45 -4 -91 -8.5t-91 -8.5q-23 0 -24 -18q-4 -39 -10.5 -76t-16.5 -78q-4 -29 -11 -59.5t-16 -61.5q-25 -74 -26 -159q-20 -260 -29.5 -538.5t-13.5 -543.5v-20q0 -37 1 -79t3 -77
q0 -20 1 -38.5t1 -39.5q2 -27 -5 -33t-16.5 0.5t-16.5 20.5t-3 33q-8 162 -8 335q0 52 1 104q3 228 9 435q4 61 10 157.5t12.5 202t12.5 210t12 184.5q0 25 1 54.5t3 56.5q0 14 -16 14l-39 -6q-186 -29 -368.5 -54.5t-364.5 -72.5q-20 -6 -40 -12.5t-40 -14.5q-8 -4 -15 -2
q-10 0 -16 6zM129 1090l18 59q0 4 2.5 12t2.5 13v24q-14 0 -15 -14q0 -8 -1 -12.5t-1 -8.5v-8zM139 1255q0 -6 4 -10t6.5 -3t4.5 1q4 2 6 4t4 2q2 6 2 17l14 104l17 205l-2 2q-2 4 -1 5t1 5q-2 6 -4.5 12.5t-2.5 4.5l-10 -7q0 -4 -2 -10t-2 -10q-4 -12 -5 -23.5t-3 -23.5
q-6 -49 -11 -102.5t-10 -106.5q-2 -10 -3 -22.5t-1 -22.5q0 -6 -1 -11t-1 -10z" />
    <glyph glyph-name="u" unicode="u" horiz-adv-x="530" 
d="M-6 131q0 106 39 213q6 16 22 21q14 6 27 -7q4 -4 6 -9t-2 -13q-12 -23 -19.5 -45.5t-11.5 -46.5q-16 -72 -16 -129v-21.5t4 -17.5q23 12 37 32.5t29 43.5q25 35 43 70.5t41 70.5q10 6 22 3t18 -13q4 -16 5 -31q2 -12 2 -23.5v-25.5q0 -43 11 -89t36 -81q20 -23 51 -15
q66 27 105.5 76t82.5 111q14 27 23.5 47t25.5 24l15 5q2 -2 2 -5l-12 -36q-23 -49 -57 -104.5t-70 -88.5q-14 -14 -30.5 -27.5t-37.5 -23.5h2q-29 -14 -59 -14q-31 0 -58 20q-43 33 -56 80t-17 98v2q0 2 -4 11l-11 -9l-22 -32q-20 -37 -48 -72t-67 -49q-10 0 -18 4
q-12 6 -18.5 15t-10.5 18q-2 14 -3 31.5t-1 31.5z" />
    <glyph glyph-name="v" unicode="v" horiz-adv-x="542" 
d="M34 228q-1 33 -1 66q0 65 4 129q6 95 21.5 180t43.5 140v-2q6 10 15.5 15.5t25.5 1.5q6 -2 11.5 -14.5t7.5 -20.5q4 -26 4 -62q0 -17 -1 -37q-3 -60 -14.5 -123t-26.5 -118t-34 -82q-12 -25 -12 -18v-19v-26q0 -74 4 -148t24 -115q12 -35 32 -40t32 8q76 68 112.5 177
t59.5 230q2 27 19.5 41.5t31.5 -22.5q6 -35 24.5 -71t47.5 -50q13 -6 28 -5q31 0 68 25q18 16 30.5 13.5t-9.5 -29.5q-18 -26 -54 -44q-21 -11 -41 -10q-14 0 -28 5q-25 6 -46.5 26.5t-29.5 40.5q-10 10 -10 4t-6 -22l-2 -19l-3 3q0 -4 -5 -16.5t1 -4.5
q-16 -53 -32.5 -104.5t-39 -95.5t-51 -76.5t-67.5 -51.5q-33 -6 -49.5 4.5t-26.5 26.5q-33 55 -45 127q-10 83 -13 183zM78 346q16 33 27.5 98.5t19.5 137.5q0 6 -1 35.5t-5 48.5l-17 -62z" />
    <glyph glyph-name="w" unicode="w" horiz-adv-x="565" 
d="M16 227q4 109 26.5 214.5t53.5 207.5q2 6 7.5 13.5t11.5 17.5q10 10 26 -4q25 -16 21 -31q4 -8 -4 -16q-4 -4 -6 -14.5t-7 -20.5l-6 -14q-51 -104 -65.5 -218t-14.5 -237q10 -100 15.5 -146.5t34.5 -52.5q6 2 8 8v-2q10 16 23.5 45t23.5 58q27 88 43 184q4 6 7 11.5
t13 0.5q4 -2 8.5 -9t6.5 -11l12 -59q4 -16 12 -38t19 -38q16 -27 38.5 -37t47.5 0q18 10 34.5 33.5t27.5 51.5t17.5 56.5t6.5 52.5q2 16 1 31t-12 25q-16 14 -15 28.5t7 28.5q4 20 21 14q10 -2 21.5 -9t15.5 -15v-16.5t2 -16.5q4 -16 4 -24q-6 -66 -20 -130.5t-56 -111.5
q-14 -14 -36.5 -29.5t-45.5 -9.5q-31 6 -62.5 39t-50.5 61q-14 -23 -14 -39q-10 -23 -16 -41q-10 -41 -27.5 -76.5t-52.5 -58.5q-20 -6 -45 13q-20 18 -31 53q-23 51 -28 130q-3 44 -3 85q0 32 2 63z" />
    <glyph glyph-name="x" unicode="x" horiz-adv-x="372" 
d="M-174 -246q2 29 13 58.5t26 54.5q41 63 97 128.5t108 121.5q12 12 4 22q-35 57 -47.5 117.5t-16.5 132.5q-4 8 8 17q8 16 29 10q18 -8 19 -15q-2 -24 -2 -48q0 -37 4 -73q6 -62 34 -116v2l4 -14l11 10q43 43 82 91t80 95q14 16 32.5 29.5t40.5 3.5l8 -4q4 -10 -10 -25
q-18 -14 -43 -41q-43 -43 -80 -93t-86 -87q-4 -4 -4 -11t2 -11q23 -35 49.5 -64t57.5 -49l8 -4l8 -6q2 -4 4 -6.5t2 -4.5v-2q-8 -8 -20 -8q-4 0 -8 4q-47 23 -76 49.5t-47 61.5q-4 2 -8.5 3t-8.5 -3q-53 -49 -102 -110.5t-90 -125.5q-12 -25 -21.5 -52.5t-13.5 -51.5l-8 -14
q-2 -8 -9.5 -11.5t-15.5 0.5q-6 2 -12 13q-2 4 -2 13v13z" />
    <glyph glyph-name="y" unicode="y" horiz-adv-x="464" 
d="M-74 -1354q-1 25 -1 50q0 236 69 460q76 248 207 473q20 35 40.5 67t47.5 64l18 21q8 10 10 20.5t2 24.5v291q-2 68 -2 137.5v134.5v66q0 8 -2 10l-12 -4q-20 -51 -36.5 -101.5t-43.5 -99.5q-8 -16 -15 -30.5t-18 -30.5q-16 -20 -30.5 -44t-29.5 -45.5t-34.5 -39
t-46.5 -25.5q-4 -1 -8 -1q-32 0 -41 42q-4 20 -3 42t5 42q6 53 20.5 108.5t36.5 102.5q10 20 19.5 24.5t15.5 -1t6 -17.5t-6 -27q-23 -49 -31 -105l-18 -126q-2 -6 -1 -15.5t5 -13.5q12 -6 27 9l6 6q25 33 47.5 68.5t44.5 76.5q35 76 65.5 164t51.5 168q4 10 8 23.5t10 23.5
q8 14 23 12q14 -4 20 -15t8 -24.5t1 -28t1 -26.5q2 -80 2.5 -161t0.5 -165l2 -352v-16q0 -16 20 -6q39 29 83 51t89 49q8 4 17.5 6t15.5 -8q12 -12 -14 -27q-53 -33 -111.5 -65.5t-97.5 -79.5q-4 -12 -4 -25q2 -40 2 -81q0 -65 -5 -129q-6 -105 -10 -212
q-14 -115 -26.5 -235.5t-37 -237t-65.5 -226.5t-112 -204q-14 -14 -29.5 -19t-30.5 -5q-45 0 -76 49q-29 47 -36 92t-13 96zM-31 -1241q-1 -20 -1 -41q0 -41 3 -82q4 -63 27 -123q10 -27 22 -41q14 -18 26.5 -18t33.5 14q51 68 84 147.5t54.5 164.5t34.5 172t30 169
q14 119 23 235t11 234v111q0 6 -4 10v-2q-4 4 -5 4h-5l-8 -6q-47 -63 -85 -133t-71 -143q-66 -162 -115 -328t-55 -344z" />
    <glyph glyph-name="z" unicode="z" horiz-adv-x="374" 
d="M14 439q0 22 11 38q33 66 75.5 127.5t104.5 100.5q29 16 53.5 1.5t28.5 -42.5q2 -18 2 -35.5t-2 -35.5q-4 -36 -13 -71q-12 -57 -31.5 -112.5t-41.5 -110.5l-31 -82q-10 -25 -18.5 -52.5t-16.5 -51.5q-12 -35 10 -54q35 -29 76 -45t78 -39q20 -12 41 5q10 10 22.5 19
t22.5 17q14 10 23 11q10 0 16 -11v2q6 -10 -2 -18q-14 -14 -23 -18l-10 -7q-23 -16 -25 -28.5t25 -30.5q31 -20 56.5 -44t43.5 -52q23 -35 39.5 -75t20.5 -81q2 -14 3 -30.5t1 -30.5q0 -72 -20.5 -137.5t-55.5 -129.5q-27 -51 -61.5 -97t-79.5 -85q-29 -27 -61.5 -48
t-71.5 -28q-6 -1 -12 -1q-41 0 -68 36q-18 20 -27.5 44.5t-13.5 49.5q-8 61 -8 121q0 122 34 240q50 178 152 332q16 23 15 30t-27 21l-103 51q-43 24 -55 54q-5 13 -5 29q0 21 9 48q16 47 33.5 96.5t36.5 96.5q20 53 38.5 108t30.5 109q6 23 8.5 47t2.5 49q2 23 -7.5 27
t-25.5 -9q-16 -14 -33.5 -29.5t-30.5 -29.5q-20 -25 -37.5 -50.5t-33.5 -53.5q-12 -20 -19.5 -42t-5.5 -49q4 -14 -10 -20q-6 -4 -12 3t-11 13q-4 18 -4 40zM119 -729q2 -53 26 -107q12 -25 25.5 -30.5t36.5 0.5q10 4 25.5 9t23.5 11h-2l16 10q18 16 41 37t39 41
q60 70 101 154q20 37 33.5 83t17.5 93q1 17 1 34q0 30 -4 61q-7 48 -30 91t-57.5 78t-75.5 64q-6 4 -14.5 4t-12.5 -6l-16 -21q-8 -10 -18.5 -24.5t-18.5 -30.5q-66 -128 -106 -266q-33 -114 -32 -236q0 -24 1 -49z" />
    <glyph glyph-name="braceleft" unicode="{" horiz-adv-x="382" 
d="M-14 -47q-2 33 7 65.5t23 65.5q12 41 31 77t39 70q31 53 60.5 105.5t58.5 105.5q6 10 10 25q6 31 -22 29q-4 0 -8.5 -3.5t-10.5 -3.5q-16 0 -22 17q-4 18 8 24q12 10 28 17q78 53 45 145q-8 20 -19 40t-21 36q-14 23 -28.5 41t-31.5 41q-16 20 -24 39q-57 88 2 176
q23 37 49 68.5t59 60.5q16 14 27 18q45 18 61 -28q2 -8 1 -13.5t-7 -11.5t-13 -14t-16 -12q-35 -29 -63.5 -62t-50.5 -74q-16 -33 -13.5 -60.5t21.5 -55.5q16 -23 32.5 -45.5t32.5 -47.5t29.5 -52t20.5 -60q14 -76 -29 -127q-12 -18 -2 -37q27 -33 0 -76
q-16 -31 -33.5 -61.5t-34.5 -63.5q-18 -33 -36.5 -64.5t-34.5 -64.5q-20 -35 -36 -72.5t-30 -74.5q-18 -57 -14 -110.5t39 -102.5q23 -35 53 -53q51 -29 110 -31q10 -2 20.5 -4t22.5 -4q14 -2 15 -19q0 -20 -17 -20q-23 -4 -41 0q-47 4 -91 17t-79 48q-41 41 -60 88.5
t-17 108.5z" />
    <glyph glyph-name="bar" unicode="|" horiz-adv-x="542" 
d="M190 41v168q0 41 1.5 81t1.5 83q0 59 4 119.5t6 123.5q0 53 1 107.5t7 101.5q2 57 5 114.5t7 113.5l15 235q0 23 3 48.5t5 54.5q0 12 8 18q4 20 18 21q4 0 7.5 -11.5t7.5 -15.5v-31l-15 -223q-4 -51 -5 -101.5t-1 -105.5q-4 -43 -7 -91t-3 -99v-17q-2 -96 -6 -197.5
t-4 -203.5q0 -72 -1 -141.5t-1 -141.5q0 -74 2 -144.5t8 -148.5q0 -12 1 -9t2 13.5t2 20.5t3 14q8 18 21 19q12 -12 12 -29v-111q0 -29 -3 -46t-3 -48q-4 -12 -5 -22.5t-5 -24.5q-8 -23 -18.5 -23.5t-24.5 9.5q-8 10 -11.5 23.5t-7.5 27.5q-16 127 -21.5 240.5t-5.5 228.5z
" />
    <glyph glyph-name="braceright" unicode="}" horiz-adv-x="446" 
d="M84 -338q0 6 3 12.5t7 12.5q0 2 12 6q35 10 57.5 34.5t39.5 57.5q33 55 49 123q12 90 -23 160q-25 66 -69 116q-10 10 -17.5 24.5t-15.5 24.5q-10 18 -7 36t9 36q16 37 43 64.5t57 54.5q10 6 15.5 12t11.5 10q-8 4 -15.5 7.5t-15.5 7.5q-23 10 -42 18t-42 19
q-86 41 -47 129q10 27 28.5 52.5t37.5 49.5q35 43 69.5 85t69.5 83q49 61 51 135q4 61 -29.5 107.5t-74.5 64.5q-18 10 -38 14.5t-40 8.5l-31 10q-12 8 -12 22.5t14 18.5q23 8 41 4q86 -12 147.5 -73.5t71.5 -141.5v-25q-4 -53 -24 -102q-20 -47 -50 -85t-59 -73
q-29 -33 -55.5 -67.5t-54.5 -69.5q-12 -18 -19 -47q-14 -33 19 -57l49 -23q23 -8 43 -17t43 -20q8 -4 14 -8q35 -20 4 -49l-14 -10q-27 -14 -47.5 -31.5t-34.5 -42.5q-8 -10 -17.5 -21.5t-13.5 -25.5q-18 -33 11 -64q84 -84 112 -196q16 -66 5 -127.5t-40 -118.5
q-10 -18 -19 -33.5t-20 -32.5q-16 -27 -39.5 -46t-56.5 -27q-14 -6 -35 -2q-4 0 -10 6t-6 10z" />
    <glyph glyph-name="asciitilde" unicode="~" horiz-adv-x="702" 
d="M63 180q2 23 8.5 38t16.5 32q16 23 33.5 39t38.5 26q23 8 43 4t43 -14l41 -24q70 -45 145 -45q25 -2 48.5 5t47.5 17q14 6 25.5 16.5t19.5 26.5l9 10q10 10 22 0q4 -4 6 -12t-2 -14q-12 -27 -26 -43q-18 -23 -42 -32t-48 -17q-12 -4 -25 -4.5t-27 -2.5q-39 2 -77.5 12.5
t-73.5 32.5l-53 33q-29 16 -53.5 8t-47.5 -30q-31 -31 -43 -72l-8 -16q-4 -8 -10 -7.5t-8 9.5q-4 16 -3 24z" />
    <glyph glyph-name="uni00A0" unicode="&#xa0;" horiz-adv-x="479" 
 />
    <glyph glyph-name="exclamdown" unicode="&#xa1;" horiz-adv-x="491" 
d="M121 -250q12 20 18 47q41 186 80 374.5t68 377.5q8 61 19 121.5t20.5 122t11.5 122t-6 121.5q-2 18 -10 45q-8 31 12 33q8 4 14 -6q23 -43 28 -90t5 -94q-6 -281 -61.5 -556.5t-126.5 -545.5l-27 -82q2 -8 -3 -18.5t-13.5 -16.5t-16.5 -4t-12 16v33zM362 1452
q-2 4 1.5 11t13.5 7q23 4 40 -15t11 -42q-4 -22 -27 -22q-4 0 -9 3t-9 7h2q-8 10 -14 22.5t-9 28.5z" />
    <glyph glyph-name="sterling" unicode="&#xa3;" horiz-adv-x="704" 
d="M4 172q14 18 35 27q12 6 25.5 11t25.5 9q31 10 62.5 21.5t64.5 23.5l53 15q18 6 19 26l18 160q8 72 20.5 139.5t37.5 134.5q6 20 20 38t31 34q16 12 33.5 18t35.5 2q35 0 60.5 -10t48.5 -26q29 -23 47 -52.5t31 -62.5q0 -2 2 -2t2 -2q0 -6 2 -13.5t-8 -13.5
q-16 -12 -31 15q-6 10 -12 21t-15 22q-12 27 -32.5 45t-42.5 30q-66 27 -107 -24q-16 -23 -25.5 -46.5t-13.5 -47.5q-16 -57 -23.5 -114.5t-9.5 -113.5q-4 -25 -7 -47t-7 -49q-6 -33 0 -37t35 2q59 14 117.5 23.5t115.5 11.5q10 4 20.5 6t22.5 4q8 0 16.5 -2t12.5 -16
q4 -10 -1 -21.5t-17 -15.5q-10 -4 -19.5 -5t-19.5 -3q-59 -10 -114.5 -20.5t-115.5 -20.5q-8 -4 -17 -4t-18 -2q-29 -2 -34 -37q-4 -29 -8.5 -56.5t-10.5 -50.5q-10 -51 -24.5 -100t-28.5 -98q-4 -16 -11 -30.5t-12 -31.5q-4 -4 -2 -6t2 -6q10 0 15 4q23 10 45 22.5t47 22.5
q51 25 103.5 48.5t105.5 45.5q20 10 40.5 20.5t37.5 28.5q0 2 2 6.5t6 4.5t9 1t9 -1t7.5 -9.5t1.5 -11.5q-4 -6 -7.5 -16t-11.5 -15q-20 -20 -51 -41q-37 -16 -74 -31.5t-74 -31.5q-66 -31 -129 -65.5t-122 -79.5q-14 -8 -22.5 -21.5t-14.5 -26.5q-18 -29 -36 -55t-42 -51
q-6 -6 -13.5 -12t-15.5 -9q-18 -8 -31.5 0.5t-11.5 28.5q4 14 8 29.5t15 25.5q20 25 40.5 50.5t43.5 46.5q25 25 34 47q96 195 127 414l2 4q0 2 3 2q0 14 -17 12l-90 -27q-27 -6 -51.5 -15t-50.5 -17q-14 -2 -31 -19q-20 -8 -33 8q-14 14 -2 31z" />
    <glyph glyph-name="dieresis" unicode="&#xa8;" horiz-adv-x="669" 
d="M227 700q0 25 37 37h19q10 -2 19 -7t9 -17q0 -10 -4 -16.5t-8 -14.5q-6 -10 -14.5 -14t-14.5 -4q-16 0 -29.5 11t-13.5 25zM373 680q4 16 20.5 35.5t30.5 19.5q18 0 35.5 -15t17.5 -32q0 -12 -15.5 -23.5t-49.5 -11.5q-16 0 -27.5 7.5t-11.5 19.5z" />
    <glyph glyph-name="copyright" unicode="&#xa9;" horiz-adv-x="1093" 
d="M88 48q4 50 16 102q37 166 144 307q35 47 71.5 87t81.5 74q25 23 50.5 40.5t58.5 29.5q14 8 29 10q47 8 77 -30q4 -8 9.5 -17.5t9.5 -19.5q16 -23 33 -27q41 -8 79.5 -26.5t73.5 -45.5q57 -41 91 -95t51 -120q16 -66 4.5 -120t-39.5 -105q-66 -109 -159 -188.5
t-220 -124.5q-90 -31 -182 -31h-33q-23 4 -37 7t-31 9q-70 23 -108.5 69t-57.5 112q-16 53 -12 103zM131 29q2 -35 8 -70t27 -72q20 -35 49 -58.5t70 -33.5q31 -8 62.5 -9t66.5 3q66 8 126 30.5t115 57.5q141 90 228 225q33 53 43 110.5t-13 125.5q-57 168 -241 227
q-23 6 -41 -2q-16 -8 -21 8q-8 10 -16 12.5t-21 6.5q-10 4 -21 6t-24 2q-25 2 -32 29q0 6 -4 2q-12 -2 -23 -11q-63 -45 -113.5 -98t-93.5 -117q-51 -78 -88 -167q-16 -51 -30.5 -101.5t-12.5 -105.5zM370.5 160q-10.5 43 12.5 80q59 106 174 145q45 14 92 -25
q8 -8 14.5 -17t6.5 -24q0 -18 -11 -22q-6 2 -13 3t-11 5q-10 10 -18.5 19.5t-20.5 11.5q-16 0 -29.5 -4t-27.5 -8q-68 -35 -107 -97q-23 -41 -8.5 -76.5t61.5 -56.5q61 -29 117 0q8 2 14.5 7t16.5 5q4 0 10 -1t10 -5t5 -11t-1 -11q-4 -12 -16 -19q-23 -16 -49 -21t-55 -5
q-35 4 -65 15t-58 34q-33 35 -43.5 78zM516 641l31 -6l33 -8h4q2 0 4 1t4 1l-4 16q-10 12 -18.5 15.5t-22.5 -1.5q-10 -2 -18.5 -5t-12.5 -13z" />
    <glyph glyph-name="ordfeminine" unicode="&#xaa;" horiz-adv-x="397" 
 />
    <glyph glyph-name="uni00AD" unicode="&#xad;" horiz-adv-x="616" 
d="M141 285q2 6 2 16l2 -2l103 14q35 2 56.5 0t42 -3t43 -2t59.5 3q4 -2 13 -5t11 -11q6 -25 -2 -27q-4 -2 -5 -1t-5 -1q-31 -2 -51.5 -3t-38 -1h-37t-49.5 4q-33 0 -65 -1t-62 -3q-2 -2 -6 -2q-4 2 -7.5 5t-3.5 20z" />
    <glyph glyph-name="registered" unicode="&#xae;" horiz-adv-x="1064" 
d="M86 49q0 51 8 101q12 51 28.5 97t43.5 89q31 59 74 108.5t94 92.5q63 53 143 94q29 14 60.5 24.5t66.5 14.5q4 0 6 4q-6 6 -8 6q-14 0 -35 4q-4 2 -8 5t-4 7q0 10 8 17l8 4t13 2q61 -2 118.5 -20.5t104.5 -67.5q33 -29 55.5 -58.5t38.5 -64.5q70 -121 86 -252
q4 -59 -2 -112.5t-27 -106.5q-25 -74 -73.5 -125t-116.5 -86q-156 -80 -344 -70q-8 -4 -18.5 -1t-26.5 5q-51 -2 -127 27q-53 27 -91 65.5t-57 92.5q-18 53 -18 104zM127 20q2 -53 25.5 -98t70.5 -78q23 -16 46.5 -26.5t49.5 -16.5q41 -8 84 -12t84 2l113 16q115 20 207 89
q80 55 113 151q29 70 28 146q2 37 -1 71.5t-15 71.5q-20 68 -55 137q-16 41 -42 76t-57 63q-16 14 -31.5 24.5t-37.5 14.5h-4q2 0 2 -1t2 -1q-4 -23 -8.5 -25.5t-22.5 1.5q-8 2 -16 2q-53 14 -111 -6q-49 -18 -94 -41q-78 -51 -144.5 -114t-111.5 -149q-39 -66 -60.5 -139.5
t-13.5 -157.5zM332 217q0 20 5 51t15 49q45 72 125 76q25 2 47.5 -12t32.5 -39q12 -23 13 -53.5t-9 -52.5v2l-37 -52l-55 -51q-16 -10 -14 -16t20 -17q12 -8 24.5 -12t24.5 -8l47 -23q31 -10 64 -22t63 -27l27 -20q2 -4 5 -10.5t3 -8.5l-16 -8h-10l-27 12q-16 4 -32.5 12.5
t-33.5 12.5l-84 37q-29 12 -61.5 30.5t-52.5 47.5q-10 2 -16.5 3t-10.5 -7q0 -4 -2 -8.5t-2 -8.5v-16q4 -16 2 -30.5t-4 -31.5q0 -25 -6 -39q-4 -10 -15.5 -5t-17.5 16q-2 2 -2 14l-2 104q-2 25 -3 54.5t-5 56.5zM391 268q16 -16 16.5 -32.5t-8.5 -32.5q-2 -4 -2 -19
q0 -4 -1 -7t-1 -5v-10q33 2 37 10l37 33q6 10 15.5 17t15.5 18q18 18 32 57q11 41 -28 47q-66 0 -111 -55q-2 -4 -2 -10.5v-10.5z" />
    <glyph glyph-name="acute" unicode="&#xb4;" horiz-adv-x="487" 
d="M111 698q0 8 8 17q12 10 49 49t70 72q6 8 16 8q20 0 20 -19q0 -10 -6 -16q-29 -33 -58.5 -65.5t-64.5 -61.5q-4 -4 -14 -4q-20 0 -20 20z" />
    <glyph glyph-name="cedilla" unicode="&#xb8;" horiz-adv-x="604" 
d="M164 -90q0 10 10 16t21 13l6 4q23 10 49 28.5t26 59.5l-6 4q-2 2 -6 2q-14 14 -14 24q0 6 5 12.5t15 6.5q29 0 42.5 -20.5t13.5 -36.5q0 -20 -12.5 -42t-32 -40.5t-43 -32.5t-45.5 -21q-10 2 -19.5 8.5t-9.5 14.5z" />
    <glyph glyph-name="questiondown" unicode="&#xbf;" horiz-adv-x="673" 
d="M68 -416q-4 45 2 81t16 71q0 4 2 9t2 9l35 92q47 113 103.5 221.5t112.5 216t108.5 218t91.5 227.5q8 27 18 57.5t13 60.5t-3 57.5t-32 49.5q-4 0 -6.5 3.5t-6.5 7.5v12q0 6 19 6q4 4 12 -4q12 -4 20 -8q27 -25 35 -54.5t6 -62.5t-11 -64.5t-17 -60.5
q-37 -125 -90.5 -241.5t-109.5 -232.5t-113.5 -230.5t-104.5 -235.5q-18 -43 -32.5 -93t-18.5 -93q0 -4 -1 -6.5t-1 -4.5v-8q0 -10 1 -20t5 -21q6 -14 22 -20q27 -4 56.5 3t52.5 23q49 33 91 77t71 87v8q0 2 2 5l6 12q6 14 -10 31l-13 10q-4 8 0 16q0 6 11 6q25 4 37 -12
q16 -16 24 -35.5t2 -42.5t-18.5 -44t-28.5 -42q-47 -57 -95 -95t-114 -60q-20 -4 -33 -5q-63 -2 -100 54v-2q-8 16 -14 33.5t-4 33.5zM537 1358q-2 16 9 24.5t27 8.5q12 2 21.5 -6.5t9.5 -20.5q4 -12 -6 -25.5t-29 -15.5q-10 0 -21 9.5t-11 25.5z" />
    <glyph glyph-name="Agrave" unicode="&#xc0;" horiz-adv-x="866" 
d="M-511 138q-3 9 1 16q10 18 23 26q14 10 29.5 19.5t25.5 13.5q98 43 202.5 83t202.5 75l95 30q20 6 28 35q0 4 1 7t1 8q35 135 69 273t71.5 275.5t84 271.5t107.5 261q6 14 17.5 28.5t23.5 30.5q6 10 15.5 15.5t19.5 9.5q41 16 69 -14q16 -16 29.5 -36t18.5 -38l4 -15
q27 -106 42 -214.5t24 -218t15.5 -220t16.5 -219.5v-16.5t2 -14.5q0 -23 25 -18q4 0 7 1t7 1q61 10 121.5 23.5t122.5 21.5q14 4 28 0q12 0 17 -14q2 -12 -15 -17q-70 -16 -139.5 -32.5t-138.5 -28.5q-23 -4 -29 -11.5t-6 -29.5q4 -66 6 -134.5t4 -133.5l6 -256
q4 -123 7.5 -243t13.5 -241q2 -16 12 -35q4 -8 5 -17t1 -19q0 -6 -8 -11.5t-12 -9.5q-8 0 -16.5 3t-10.5 11l-6 23q-12 47 -14 96.5t-4 98.5q-6 72 -6 144.5t-5 143.5l-6 203l-8 262q-2 29 -3 56.5t-5 52.5q-2 16 -6 20t-21 0q-16 -4 -31.5 -8t-31.5 -8
q-104 -27 -203.5 -54.5t-198.5 -60.5q-45 -14 -51 -59q-39 -205 -65.5 -413t-28.5 -419q0 -20 -6 -39q-2 -8 -9.5 -13t-13.5 -5q-14 4 -20 18q-2 4 -4 11.5t-2 15.5q0 201 22.5 396.5t57.5 393.5l6 29q0 6 2 12.5t2 12.5q2 8 -3 13t-14 1q-10 -4 -30 -8q-12 -4 -23.5 -8
t-23.5 -9q-92 -35 -187.5 -71.5t-187.5 -71.5q-23 -10 -45.5 -20.5t-38.5 -26.5q-10 -12 -27 -6q-4 6 -7 15zM162 438.5q4 -4.5 20 -0.5l19 6q51 14 101 28.5t104 29.5q51 14 103 27.5t105 29.5l23 6q12 2 19.5 5t10.5 9.5t3 19.5v36q-18 217 -33.5 436t-61.5 432
q-4 10 -8 21.5t-8 21.5q-20 37 -45 6l-22.5 -31.5t-22.5 -33.5q-29 -55 -51.5 -116.5t-38.5 -115.5q-61 -188 -115.5 -378.5t-95.5 -384.5l-6 -31q-4 -18 0 -22.5zM440 1864h2q-4 4 1 13.5t20 13.5q6 -2 19 -4t17 -6q16 -10 39 -54l25 -45q8 -10 4 -11t-13 2t-22.5 10
t-23.5 18q-8 8 -17.5 16t-13.5 12q-6 6 -18.5 15.5t-18.5 19.5z" />
    <glyph glyph-name="Aacute" unicode="&#xc1;" horiz-adv-x="866" 
d="M-511 138q-3 9 1 16q10 18 23 26q14 10 29.5 19.5t25.5 13.5q98 43 202.5 83t202.5 75l95 30q20 6 28 35q0 4 1 7t1 8q35 135 69 273t71.5 275.5t84 271.5t107.5 261q6 14 17.5 28.5t23.5 30.5q6 10 15.5 15.5t19.5 9.5q41 16 69 -14q16 -16 29.5 -36t18.5 -38l4 -15
q27 -106 42 -214.5t24 -218t15.5 -220t16.5 -219.5v-16.5t2 -14.5q0 -23 25 -18q4 0 7 1t7 1q61 10 121.5 23.5t122.5 21.5q14 4 28 0q12 0 17 -14q2 -12 -15 -17q-70 -16 -139.5 -32.5t-138.5 -28.5q-23 -4 -29 -11.5t-6 -29.5q4 -66 6 -134.5t4 -133.5l6 -256
q4 -123 7.5 -243t13.5 -241q2 -16 12 -35q4 -8 5 -17t1 -19q0 -6 -8 -11.5t-12 -9.5q-8 0 -16.5 3t-10.5 11l-6 23q-12 47 -14 96.5t-4 98.5q-6 72 -6 144.5t-5 143.5l-6 203l-8 262q-2 29 -3 56.5t-5 52.5q-2 16 -6 20t-21 0q-16 -4 -31.5 -8t-31.5 -8
q-104 -27 -203.5 -54.5t-198.5 -60.5q-45 -14 -51 -59q-39 -205 -65.5 -413t-28.5 -419q0 -20 -6 -39q-2 -8 -9.5 -13t-13.5 -5q-14 4 -20 18q-2 4 -4 11.5t-2 15.5q0 201 22.5 396.5t57.5 393.5l6 29q0 6 2 12.5t2 12.5q2 8 -3 13t-14 1q-10 -4 -30 -8q-12 -4 -23.5 -8
t-23.5 -9q-92 -35 -187.5 -71.5t-187.5 -71.5q-23 -10 -45.5 -20.5t-38.5 -26.5q-10 -12 -27 -6q-4 6 -7 15zM162 438.5q4 -4.5 20 -0.5l19 6q51 14 101 28.5t104 29.5q51 14 103 27.5t105 29.5l23 6q12 2 19.5 5t10.5 9.5t3 19.5v36q-18 217 -33.5 436t-61.5 432
q-4 10 -8 21.5t-8 21.5q-20 37 -45 6l-22.5 -31.5t-22.5 -33.5q-29 -55 -51.5 -116.5t-38.5 -115.5q-61 -188 -115.5 -378.5t-95.5 -384.5l-6 -31q-4 -18 0 -22.5zM441 1742q0 8 8 17q12 10 49 49t70 72q6 8 16 8q20 0 20 -19q0 -10 -6 -16q-29 -33 -58.5 -65.5t-64.5 -61.5
q-4 -4 -14 -4q-20 0 -20 20z" />
    <glyph glyph-name="Acircumflex" unicode="&#xc2;" horiz-adv-x="866" 
d="M-511 138q-3 9 1 16q10 18 23 26q14 10 29.5 19.5t25.5 13.5q98 43 202.5 83t202.5 75l95 30q20 6 28 35q0 4 1 7t1 8q35 135 69 273t71.5 275.5t84 271.5t107.5 261q6 14 17.5 28.5t23.5 30.5q6 10 15.5 15.5t19.5 9.5q41 16 69 -14q16 -16 29.5 -36t18.5 -38l4 -15
q27 -106 42 -214.5t24 -218t15.5 -220t16.5 -219.5v-16.5t2 -14.5q0 -23 25 -18q4 0 7 1t7 1q61 10 121.5 23.5t122.5 21.5q14 4 28 0q12 0 17 -14q2 -12 -15 -17q-70 -16 -139.5 -32.5t-138.5 -28.5q-23 -4 -29 -11.5t-6 -29.5q4 -66 6 -134.5t4 -133.5l6 -256
q4 -123 7.5 -243t13.5 -241q2 -16 12 -35q4 -8 5 -17t1 -19q0 -6 -8 -11.5t-12 -9.5q-8 0 -16.5 3t-10.5 11l-6 23q-12 47 -14 96.5t-4 98.5q-6 72 -6 144.5t-5 143.5l-6 203l-8 262q-2 29 -3 56.5t-5 52.5q-2 16 -6 20t-21 0q-16 -4 -31.5 -8t-31.5 -8
q-104 -27 -203.5 -54.5t-198.5 -60.5q-45 -14 -51 -59q-39 -205 -65.5 -413t-28.5 -419q0 -20 -6 -39q-2 -8 -9.5 -13t-13.5 -5q-14 4 -20 18q-2 4 -4 11.5t-2 15.5q0 201 22.5 396.5t57.5 393.5l6 29q0 6 2 12.5t2 12.5q2 8 -3 13t-14 1q-10 -4 -30 -8q-12 -4 -23.5 -8
t-23.5 -9q-92 -35 -187.5 -71.5t-187.5 -71.5q-23 -10 -45.5 -20.5t-38.5 -26.5q-10 -12 -27 -6q-4 6 -7 15zM162 438.5q4 -4.5 20 -0.5l19 6q51 14 101 28.5t104 29.5q51 14 103 27.5t105 29.5l23 6q12 2 19.5 5t10.5 9.5t3 19.5v36q-18 217 -33.5 436t-61.5 432
q-4 10 -8 21.5t-8 21.5q-20 37 -45 6l-22.5 -31.5t-22.5 -33.5q-29 -55 -51.5 -116.5t-38.5 -115.5q-61 -188 -115.5 -378.5t-95.5 -384.5l-6 -31q-4 -18 0 -22.5zM417 1833q0 4 11.5 20t26 36.5t28.5 39t20 24.5q0 2 5.5 3.5t9.5 1.5q27 0 51.5 -21.5t44.5 -46.5
q8 -10 19.5 -22.5t19.5 -20.5q4 -4 4 -10q0 -16 -20 -17q-12 0 -25.5 13.5t-30.5 29.5q-2 0 -4 3l-4 6l-14 14q-8 10 -16.5 18t-22.5 17q0 -4 -12.5 -21.5t-22.5 -32.5l-6 -6q-16 -20 -16 -30q-6 -18 -23 -19q-8 0 -15.5 6t-7.5 15z" />
    <glyph glyph-name="Atilde" unicode="&#xc3;" horiz-adv-x="866" 
d="M-511 138q-3 9 1 16q10 18 23 26q14 10 29.5 19.5t25.5 13.5q98 43 202.5 83t202.5 75l95 30q20 6 28 35q0 4 1 7t1 8q35 135 69 273t71.5 275.5t84 271.5t107.5 261q6 14 17.5 28.5t23.5 30.5q6 10 15.5 15.5t19.5 9.5q41 16 69 -14q16 -16 29.5 -36t18.5 -38l4 -15
q27 -106 42 -214.5t24 -218t15.5 -220t16.5 -219.5v-16.5t2 -14.5q0 -23 25 -18q4 0 7 1t7 1q61 10 121.5 23.5t122.5 21.5q14 4 28 0q12 0 17 -14q2 -12 -15 -17q-70 -16 -139.5 -32.5t-138.5 -28.5q-23 -4 -29 -11.5t-6 -29.5q4 -66 6 -134.5t4 -133.5l6 -256
q4 -123 7.5 -243t13.5 -241q2 -16 12 -35q4 -8 5 -17t1 -19q0 -6 -8 -11.5t-12 -9.5q-8 0 -16.5 3t-10.5 11l-6 23q-12 47 -14 96.5t-4 98.5q-6 72 -6 144.5t-5 143.5l-6 203l-8 262q-2 29 -3 56.5t-5 52.5q-2 16 -6 20t-21 0q-16 -4 -31.5 -8t-31.5 -8
q-104 -27 -203.5 -54.5t-198.5 -60.5q-45 -14 -51 -59q-39 -205 -65.5 -413t-28.5 -419q0 -20 -6 -39q-2 -8 -9.5 -13t-13.5 -5q-14 4 -20 18q-2 4 -4 11.5t-2 15.5q0 201 22.5 396.5t57.5 393.5l6 29q0 6 2 12.5t2 12.5q2 8 -3 13t-14 1q-10 -4 -30 -8q-12 -4 -23.5 -8
t-23.5 -9q-92 -35 -187.5 -71.5t-187.5 -71.5q-23 -10 -45.5 -20.5t-38.5 -26.5q-10 -12 -27 -6q-4 6 -7 15zM162 438.5q4 -4.5 20 -0.5l19 6q51 14 101 28.5t104 29.5q51 14 103 27.5t105 29.5l23 6q12 2 19.5 5t10.5 9.5t3 19.5v36q-18 217 -33.5 436t-61.5 432
q-4 10 -8 21.5t-8 21.5q-20 37 -45 6l-22.5 -31.5t-22.5 -33.5q-29 -55 -51.5 -116.5t-38.5 -115.5q-61 -188 -115.5 -378.5t-95.5 -384.5l-6 -31q-4 -18 0 -22.5zM408 1822q4 14 16 29.5t26.5 28t29 19.5t24.5 7q23 0 55 -32q6 -2 15 -15q10 -12 23.5 -26.5t27.5 -14.5
q23 0 36 16.5t23 32.5q6 10 13.5 19.5t17.5 9.5q6 0 12 -5t6 -13q0 -4 -2 -6l-47 -62q-12 -16 -24.5 -23.5t-22.5 -7.5q-23 0 -43 17.5t-39 36.5q-14 16 -26.5 27.5t-26.5 11.5q-10 0 -29.5 -19t-23.5 -35q-6 -16 -21 -16q-16 0 -20 20z" />
    <glyph glyph-name="Adieresis" unicode="&#xc4;" horiz-adv-x="866" 
d="M-511 138q-3 9 1 16q10 18 23 26q14 10 29.5 19.5t25.5 13.5q98 43 202.5 83t202.5 75l95 30q20 6 28 35q0 4 1 7t1 8q35 135 69 273t71.5 275.5t84 271.5t107.5 261q6 14 17.5 28.5t23.5 30.5q6 10 15.5 15.5t19.5 9.5q41 16 69 -14q16 -16 29.5 -36t18.5 -38l4 -15
q27 -106 42 -214.5t24 -218t15.5 -220t16.5 -219.5v-16.5t2 -14.5q0 -23 25 -18q4 0 7 1t7 1q61 10 121.5 23.5t122.5 21.5q14 4 28 0q12 0 17 -14q2 -12 -15 -17q-70 -16 -139.5 -32.5t-138.5 -28.5q-23 -4 -29 -11.5t-6 -29.5q4 -66 6 -134.5t4 -133.5l6 -256
q4 -123 7.5 -243t13.5 -241q2 -16 12 -35q4 -8 5 -17t1 -19q0 -6 -8 -11.5t-12 -9.5q-8 0 -16.5 3t-10.5 11l-6 23q-12 47 -14 96.5t-4 98.5q-6 72 -6 144.5t-5 143.5l-6 203l-8 262q-2 29 -3 56.5t-5 52.5q-2 16 -6 20t-21 0q-16 -4 -31.5 -8t-31.5 -8
q-104 -27 -203.5 -54.5t-198.5 -60.5q-45 -14 -51 -59q-39 -205 -65.5 -413t-28.5 -419q0 -20 -6 -39q-2 -8 -9.5 -13t-13.5 -5q-14 4 -20 18q-2 4 -4 11.5t-2 15.5q0 201 22.5 396.5t57.5 393.5l6 29q0 6 2 12.5t2 12.5q2 8 -3 13t-14 1q-10 -4 -30 -8q-12 -4 -23.5 -8
t-23.5 -9q-92 -35 -187.5 -71.5t-187.5 -71.5q-23 -10 -45.5 -20.5t-38.5 -26.5q-10 -12 -27 -6q-4 6 -7 15zM162 438.5q4 -4.5 20 -0.5l19 6q51 14 101 28.5t104 29.5q51 14 103 27.5t105 29.5l23 6q12 2 19.5 5t10.5 9.5t3 19.5v36q-18 217 -33.5 436t-61.5 432
q-4 10 -8 21.5t-8 21.5q-20 37 -45 6l-22.5 -31.5t-22.5 -33.5q-29 -55 -51.5 -116.5t-38.5 -115.5q-61 -188 -115.5 -378.5t-95.5 -384.5l-6 -31q-4 -18 0 -22.5zM409 1783q0 25 37 37h19q10 -2 19 -7t9 -17q0 -10 -4 -16.5t-8 -14.5q-6 -10 -14.5 -14t-14.5 -4
q-16 0 -29.5 11t-13.5 25zM555 1763q4 16 20.5 35.5t30.5 19.5q18 0 35.5 -15t17.5 -32q0 -12 -15.5 -23.5t-49.5 -11.5q-16 0 -27.5 7.5t-11.5 19.5z" />
    <glyph glyph-name="Aring" unicode="&#xc5;" horiz-adv-x="866" 
d="M-511 138q-3 9 1 16q10 18 23 26q14 10 29.5 19.5t25.5 13.5q98 43 202.5 83t202.5 75l95 30q20 6 28 35q0 4 1 7t1 8q35 135 69 273t71.5 275.5t84 271.5t107.5 261q6 14 17.5 28.5t23.5 30.5q6 10 15.5 15.5t19.5 9.5q41 16 69 -14q16 -16 29.5 -36t18.5 -38l4 -15
q27 -106 42 -214.5t24 -218t15.5 -220t16.5 -219.5v-16.5t2 -14.5q0 -23 25 -18q4 0 7 1t7 1q61 10 121.5 23.5t122.5 21.5q14 4 28 0q12 0 17 -14q2 -12 -15 -17q-70 -16 -139.5 -32.5t-138.5 -28.5q-23 -4 -29 -11.5t-6 -29.5q4 -66 6 -134.5t4 -133.5l6 -256
q4 -123 7.5 -243t13.5 -241q2 -16 12 -35q4 -8 5 -17t1 -19q0 -6 -8 -11.5t-12 -9.5q-8 0 -16.5 3t-10.5 11l-6 23q-12 47 -14 96.5t-4 98.5q-6 72 -6 144.5t-5 143.5l-6 203l-8 262q-2 29 -3 56.5t-5 52.5q-2 16 -6 20t-21 0q-16 -4 -31.5 -8t-31.5 -8
q-104 -27 -203.5 -54.5t-198.5 -60.5q-45 -14 -51 -59q-39 -205 -65.5 -413t-28.5 -419q0 -20 -6 -39q-2 -8 -9.5 -13t-13.5 -5q-14 4 -20 18q-2 4 -4 11.5t-2 15.5q0 201 22.5 396.5t57.5 393.5l6 29q0 6 2 12.5t2 12.5q2 8 -3 13t-14 1q-10 -4 -30 -8q-12 -4 -23.5 -8
t-23.5 -9q-92 -35 -187.5 -71.5t-187.5 -71.5q-23 -10 -45.5 -20.5t-38.5 -26.5q-10 -12 -27 -6q-4 6 -7 15zM162 438.5q4 -4.5 20 -0.5l19 6q51 14 101 28.5t104 29.5q51 14 103 27.5t105 29.5l23 6q12 2 19.5 5t10.5 9.5t3 19.5v36q-18 217 -33.5 436t-61.5 432
q-4 10 -8 21.5t-8 21.5q-20 37 -45 6l-22.5 -31.5t-22.5 -33.5q-29 -55 -51.5 -116.5t-38.5 -115.5q-61 -188 -115.5 -378.5t-95.5 -384.5l-6 -31q-4 -18 0 -22.5zM478 1861q0 29 16 39q6 16 29.5 21.5t40.5 5.5q41 0 58 -24.5t17 -53.5q0 -33 -18 -54.5t-47 -21.5
q-41 0 -68.5 27.5t-27.5 60.5zM517 1855q0 -12 18 -28.5t37 -16.5q31 0 31 37q0 12 -10.5 25.5t-39.5 13.5h-6l-14 -10q-4 -2 -10 -8.5t-6 -12.5z" />
    <glyph glyph-name="AE" unicode="&#xc6;" horiz-adv-x="1495" 
d="M-511 138q-3 9 1 16q10 18 23 26q14 10 29.5 19.5t25.5 13.5q98 43 202.5 83t202.5 75l95 30q20 6 28 35q0 4 1 7t1 8q35 135 69 273t71.5 275.5t84 271.5t107.5 261q6 14 17.5 28.5t23.5 30.5q6 10 15.5 15.5t19.5 9.5q41 16 69 -14q16 -16 29.5 -36t18.5 -38l4 -15
q33 -141 49 -282q84 27 169 45t173 39q51 8 108.5 14t106.5 10q59 4 118.5 1t118.5 -11l91 -22q10 -4 16 -8.5t8 -14.5q0 -6 -8 -11t-14 -9l-31 8q-90 23 -172 22q-129 2 -253 -17.5t-237 -47.5q-45 -12 -93 -25.5t-95 -29.5q16 -133 23.5 -266.5t19.5 -266.5v-16.5t2 -14.5
q0 -23 25 -18q4 0 7 1t7 1l70 12q0 2 4 10l10 76q6 55 14 112.5t15 115.5l24 196q4 18 7 35.5t8 34.5q4 27 26 24q23 -6 23 -45v-14q0 -14 -2 -27.5t-13 -25.5q2 0 -4 -6q-16 -115 -28.5 -225.5t-24.5 -227.5q4 -16 18 -12l54 18l55 19q57 18 113.5 34.5t113.5 32.5
q20 6 37 4q6 0 14.5 -2t12.5 -6t9 -11t5 -14q0 -4 -8 -12q0 -2 -2 -1t-2 -1q-41 -4 -74 -12t-61 -21l2 -2l-27 -10q-41 -14 -86 -28.5t-86 -30.5l-61 -23l2 -2l-23 -2q-14 -10 -16 -31l-25 -204q-25 -170 -44 -338t-17 -349q-2 -6 0 -15t6 -17l4 -17q16 -4 24.5 1t14.5 10
l145 118q16 14 32.5 28.5t37.5 27.5q55 35 111.5 69.5t109.5 67.5q55 33 119 65l16.5 5.5t14.5 1.5l16 2q14 8 33 -13q10 -8 14 -18t-2 -21q-4 -12 -25 -34q-23 -20 -49 12q-8 10 -13 9t-9 -3l-53 -33q-16 -10 -39 -21.5t-39 -21.5l-37 -24l-129 -88q-16 -12 -34.5 -26.5
t-33.5 -27.5l-55 -49q-29 -23 -57.5 -45t-59.5 -45l-26 -12l2 -2q-23 -4 -44.5 8t-31.5 37l-4 8l6 -74q2 -16 12 -35q4 -8 5 -17t1 -19q0 -6 -8 -11.5t-12 -9.5q-8 0 -16.5 3t-10.5 11l-6 23q-12 47 -14 96.5t-4 98.5q-6 72 -6 144.5t-5 143.5l-6 203l-8 262q-2 29 -3 56.5
t-5 52.5q-2 16 -6 20t-21 0q-16 -4 -31.5 -8t-31.5 -8q-104 -27 -203.5 -54.5t-198.5 -60.5q-45 -14 -51 -59q-39 -205 -65.5 -413t-28.5 -419q0 -20 -6 -39q-2 -8 -9.5 -13t-13.5 -5q-14 4 -20 18q-2 4 -4 11.5t-2 15.5q0 201 22.5 396.5t57.5 393.5l6 29q0 6 2 12.5
t2 12.5q2 8 -3 13t-14 1q-10 -4 -30 -8q-12 -4 -23.5 -8t-23.5 -9q-92 -35 -187.5 -71.5t-187.5 -71.5q-23 -10 -45.5 -20.5t-38.5 -26.5q-10 -12 -27 -6q-4 6 -7 15zM162 438.5q4 -4.5 20 -0.5l19 6q51 14 101 28.5t104 29.5q51 14 103 27.5t105 29.5l23 6q12 2 19.5 5
t10.5 9.5t3 19.5v36q-10 129 -19.5 259t-21.5 261q-31 -10 -58 -22q-49 -20 -96 -43t-88 -56l-10 -10t-12 -16l-9 -9v2q-8 -14 -18 -6q-8 6 -14.5 12.5t-1.5 14.5q4 10 9 18.5t15 18.5q45 41 98 65q41 27 86 48.5t93 37.5q-10 74 -20.5 148t-27.5 145q-4 10 -8 21.5t-8 21.5
q-20 37 -45 6l-22.5 -31.5t-22.5 -33.5q-29 -55 -51.5 -116.5t-38.5 -115.5q-61 -188 -115.5 -378.5t-95.5 -384.5l-6 -31q-4 -18 0 -22.5zM727 506q4 -66 6 -134.5t4 -133.5l6 -256l5 -121q6 78 16 151.5t18 149.5q8 53 15.5 105t13.5 106q6 31 8 58.5t6 55.5q0 4 1 7.5
t1 7.5t-4 12v6l2 2v17h4v20l-67 -12q-23 -4 -29 -11.5t-6 -29.5z" />
    <glyph glyph-name="Ccedilla" unicode="&#xc7;" horiz-adv-x="1087" 
d="M23 70v45q14 330 95 654.5t236 610.5q23 37 48.5 67t60.5 52q16 10 30.5 13.5t26.5 3.5q43 0 80 -39q31 -29 45 -62t25 -67q16 -47 21 -94.5t7 -98.5q8 -274 -6 -551.5t-84 -544.5q-4 -10 -8 -21t-10 -20q-10 -16 -24.5 -12t-20.5 21q-4 8 -4 16q-2 6 -2 18q-4 25 10 29
q23 8 28 20.5t9 30.5q0 2 1 4t1 5q4 33 9 64.5t11 66.5q20 223 35.5 446t-0.5 449q-6 70 -21.5 145.5t-66.5 128.5q-27 18 -63 2q-31 -14 -52.5 -41t-40.5 -55q-51 -82 -90 -179.5t-69 -193.5q-25 -78 -49.5 -166t-45.5 -168q-33 -129 -52 -260t-19 -264v-45.5t2 -44.5
q10 -92 32.5 -176t79.5 -154q76 -84 191 -102q102 -10 190 21.5t174 96.5q55 47 102.5 101.5t88.5 116.5q53 88 96 166.5t90 164.5q18 29 25 25q20 -10 6 -43q-59 -121 -122.5 -244t-160.5 -231q-66 -80 -147 -133q-109 -76 -217 -95q6 -12 6 -24q0 -20 -12.5 -42t-32 -40
t-43 -32.5t-45.5 -20.5q-10 2 -19.5 8t-9.5 14q0 10 10.5 16.5t20.5 12.5l6 4q23 10 49.5 28.5t26.5 59.5l-6 4q-2 2 -6 2l-5 4q-66 -2 -126 13.5t-115 58.5q-90 76 -129 186.5t-47 223.5q-4 23 -4 45z" />
    <glyph glyph-name="Egrave" unicode="&#xc8;" horiz-adv-x="1093" 
d="M-84 889q4 10 9 21.5t16 21.5q49 51 100 92q135 113 281.5 186.5t302.5 145.5q51 20 108.5 40.5t106.5 37.5q117 37 237 49h90q23 -4 23 -19q0 -6 -8 -13t-15 -11h-30q-88 0 -170 -19q-129 -31 -254 -82t-242 -108q-74 -37 -156 -82t-147 -88q-49 -33 -97 -68t-89 -75
q-12 -12 -23 -31l-8 -13v3q-10 -14 -21 -11q-20 8 -14 23zM94 336q2 14 21 29q16 12 31.5 25t31.5 26l101 78q31 23 62.5 43t64.5 41q14 14 18 30l12 78q8 59 17.5 117.5t17.5 118.5l31 204q4 18 8 38t8 38q2 10 8 20.5t19 10.5q10 0 16 -12.5t6 -28.5v-14q-2 -14 -4 -27.5
t-12 -28.5l-4 -8q-18 -119 -34.5 -234.5t-31.5 -234.5q0 -16 17 -8l55 31l55 32l230 125q18 8 36 13q16 4 27 -2q14 -4 14 -21q0 -4 -8 -12q0 -2 -2 -3t-2 -3q-41 -12 -74.5 -29.5t-62.5 -38.5h2l-27 -16q-41 -25 -87 -50.5t-87 -52.5l-65 -39h2l-23 -10q-14 -10 -16 -33
l-31 -211q-29 -180 -53.5 -356t-28.5 -358q-2 -6 0 -15.5t6 -15.5l4 -16q16 0 24.5 6t14.5 14l148 156q16 18 33.5 36.5t38.5 34.5q57 49 113.5 98.5t113.5 96.5q29 25 59.5 48.5t61.5 45.5q6 4 16 9t14 8l17 8q18 8 33 -4q23 -23 12 -41q-8 -16 -27 -41q-25 -25 -49 2
q-6 6 -12 4t-10 -6l-56 -45q-16 -14 -39.5 -30.5t-40.5 -33.5l-36 -33l-132 -120q-37 -35 -71 -72l-56 -62q-57 -61 -118 -118q-6 -6 -13.5 -11.5t-15.5 -9.5h2q-23 -10 -44 -3t-30 30q-14 41 -16 74q-4 137 17.5 270t37.5 268q10 55 18.5 110.5t16.5 110.5q6 31 10 60.5
t9 58.5q0 4 1 7t1 7q0 8 -7 13q-8 0 -10 -2h-2l-82 -54q-41 -29 -76 -57q-16 -12 -32 -37q-16 -18 -37 -30.5t-39 -20.5q-12 0 -22.5 11.5t-6.5 23.5zM428 1540h2q-4 4 1 13.5t20 13.5q6 -2 19 -4t17 -6q16 -10 39 -54l25 -45q8 -10 4 -11t-13 2t-22.5 10t-23.5 18
q-8 8 -17.5 16t-13.5 12q-6 6 -18.5 15.5t-18.5 19.5z" />
    <glyph glyph-name="Eacute" unicode="&#xc9;" horiz-adv-x="1093" 
d="M-84 889q4 10 9 21.5t16 21.5q49 51 100 92q135 113 281.5 186.5t302.5 145.5q51 20 108.5 40.5t106.5 37.5q117 37 237 49h90q23 -4 23 -19q0 -6 -8 -13t-15 -11h-30q-88 0 -170 -19q-129 -31 -254 -82t-242 -108q-74 -37 -156 -82t-147 -88q-49 -33 -97 -68t-89 -75
q-12 -12 -23 -31l-8 -13v3q-10 -14 -21 -11q-20 8 -14 23zM94 336q2 14 21 29q16 12 31.5 25t31.5 26l101 78q31 23 62.5 43t64.5 41q14 14 18 30l12 78q8 59 17.5 117.5t17.5 118.5l31 204q4 18 8 38t8 38q2 10 8 20.5t19 10.5q10 0 16 -12.5t6 -28.5v-14q-2 -14 -4 -27.5
t-12 -28.5l-4 -8q-18 -119 -34.5 -234.5t-31.5 -234.5q0 -16 17 -8l55 31l55 32l230 125q18 8 36 13q16 4 27 -2q14 -4 14 -21q0 -4 -8 -12q0 -2 -2 -3t-2 -3q-41 -12 -74.5 -29.5t-62.5 -38.5h2l-27 -16q-41 -25 -87 -50.5t-87 -52.5l-65 -39h2l-23 -10q-14 -10 -16 -33
l-31 -211q-29 -180 -53.5 -356t-28.5 -358q-2 -6 0 -15.5t6 -15.5l4 -16q16 0 24.5 6t14.5 14l148 156q16 18 33.5 36.5t38.5 34.5q57 49 113.5 98.5t113.5 96.5q29 25 59.5 48.5t61.5 45.5q6 4 16 9t14 8l17 8q18 8 33 -4q23 -23 12 -41q-8 -16 -27 -41q-25 -25 -49 2
q-6 6 -12 4t-10 -6l-56 -45q-16 -14 -39.5 -30.5t-40.5 -33.5l-36 -33l-132 -120q-37 -35 -71 -72l-56 -62q-57 -61 -118 -118q-6 -6 -13.5 -11.5t-15.5 -9.5h2q-23 -10 -44 -3t-30 30q-14 41 -16 74q-4 137 17.5 270t37.5 268q10 55 18.5 110.5t16.5 110.5q6 31 10 60.5
t9 58.5q0 4 1 7t1 7q0 8 -7 13q-8 0 -10 -2h-2l-82 -54q-41 -29 -76 -57q-16 -12 -32 -37q-16 -18 -37 -30.5t-39 -20.5q-12 0 -22.5 11.5t-6.5 23.5zM441 1443q0 8 8 17q12 10 49 49t70 72q6 8 16 8q20 0 20 -19q0 -10 -6 -16q-29 -33 -58.5 -65.5t-64.5 -61.5
q-4 -4 -14 -4q-20 0 -20 20z" />
    <glyph glyph-name="Ecircumflex" unicode="&#xca;" horiz-adv-x="1093" 
d="M-84 889q4 10 9 21.5t16 21.5q49 51 100 92q135 113 281.5 186.5t302.5 145.5q51 20 108.5 40.5t106.5 37.5q117 37 237 49h90q23 -4 23 -19q0 -6 -8 -13t-15 -11h-30q-88 0 -170 -19q-129 -31 -254 -82t-242 -108q-74 -37 -156 -82t-147 -88q-49 -33 -97 -68t-89 -75
q-12 -12 -23 -31l-8 -13v3q-10 -14 -21 -11q-20 8 -14 23zM94 336q2 14 21 29q16 12 31.5 25t31.5 26l101 78q31 23 62.5 43t64.5 41q14 14 18 30l12 78q8 59 17.5 117.5t17.5 118.5l31 204q4 18 8 38t8 38q2 10 8 20.5t19 10.5q10 0 16 -12.5t6 -28.5v-14q-2 -14 -4 -27.5
t-12 -28.5l-4 -8q-18 -119 -34.5 -234.5t-31.5 -234.5q0 -16 17 -8l55 31l55 32l230 125q18 8 36 13q16 4 27 -2q14 -4 14 -21q0 -4 -8 -12q0 -2 -2 -3t-2 -3q-41 -12 -74.5 -29.5t-62.5 -38.5h2l-27 -16q-41 -25 -87 -50.5t-87 -52.5l-65 -39h2l-23 -10q-14 -10 -16 -33
l-31 -211q-29 -180 -53.5 -356t-28.5 -358q-2 -6 0 -15.5t6 -15.5l4 -16q16 0 24.5 6t14.5 14l148 156q16 18 33.5 36.5t38.5 34.5q57 49 113.5 98.5t113.5 96.5q29 25 59.5 48.5t61.5 45.5q6 4 16 9t14 8l17 8q18 8 33 -4q23 -23 12 -41q-8 -16 -27 -41q-25 -25 -49 2
q-6 6 -12 4t-10 -6l-56 -45q-16 -14 -39.5 -30.5t-40.5 -33.5l-36 -33l-132 -120q-37 -35 -71 -72l-56 -62q-57 -61 -118 -118q-6 -6 -13.5 -11.5t-15.5 -9.5h2q-23 -10 -44 -3t-30 30q-14 41 -16 74q-4 137 17.5 270t37.5 268q10 55 18.5 110.5t16.5 110.5q6 31 10 60.5
t9 58.5q0 4 1 7t1 7q0 8 -7 13q-8 0 -10 -2h-2l-82 -54q-41 -29 -76 -57q-16 -12 -32 -37q-16 -18 -37 -30.5t-39 -20.5q-12 0 -22.5 11.5t-6.5 23.5zM368 1514q0 4 11.5 20t26 36.5t28.5 39t20 24.5q0 2 5.5 3.5t9.5 1.5q27 0 51.5 -21.5t44.5 -46.5q8 -10 19.5 -22.5
t19.5 -20.5q4 -4 4 -10q0 -16 -20 -17q-12 0 -25.5 13.5t-30.5 29.5q-2 0 -4 3l-4 6l-14 14q-8 10 -16.5 18t-22.5 17q0 -4 -12.5 -21.5t-22.5 -32.5l-6 -6q-16 -20 -16 -30q-6 -18 -23 -19q-8 0 -15.5 6t-7.5 15z" />
    <glyph glyph-name="Edieresis" unicode="&#xcb;" horiz-adv-x="1093" 
d="M-84 889q4 10 9 21.5t16 21.5q49 51 100 92q135 113 281.5 186.5t302.5 145.5q51 20 108.5 40.5t106.5 37.5q117 37 237 49h90q23 -4 23 -19q0 -6 -8 -13t-15 -11h-30q-88 0 -170 -19q-129 -31 -254 -82t-242 -108q-74 -37 -156 -82t-147 -88q-49 -33 -97 -68t-89 -75
q-12 -12 -23 -31l-8 -13v3q-10 -14 -21 -11q-20 8 -14 23zM94 336q2 14 21 29q16 12 31.5 25t31.5 26l101 78q31 23 62.5 43t64.5 41q14 14 18 30l12 78q8 59 17.5 117.5t17.5 118.5l31 204q4 18 8 38t8 38q2 10 8 20.5t19 10.5q10 0 16 -12.5t6 -28.5v-14q-2 -14 -4 -27.5
t-12 -28.5l-4 -8q-18 -119 -34.5 -234.5t-31.5 -234.5q0 -16 17 -8l55 31l55 32l230 125q18 8 36 13q16 4 27 -2q14 -4 14 -21q0 -4 -8 -12q0 -2 -2 -3t-2 -3q-41 -12 -74.5 -29.5t-62.5 -38.5h2l-27 -16q-41 -25 -87 -50.5t-87 -52.5l-65 -39h2l-23 -10q-14 -10 -16 -33
l-31 -211q-29 -180 -53.5 -356t-28.5 -358q-2 -6 0 -15.5t6 -15.5l4 -16q16 0 24.5 6t14.5 14l148 156q16 18 33.5 36.5t38.5 34.5q57 49 113.5 98.5t113.5 96.5q29 25 59.5 48.5t61.5 45.5q6 4 16 9t14 8l17 8q18 8 33 -4q23 -23 12 -41q-8 -16 -27 -41q-25 -25 -49 2
q-6 6 -12 4t-10 -6l-56 -45q-16 -14 -39.5 -30.5t-40.5 -33.5l-36 -33l-132 -120q-37 -35 -71 -72l-56 -62q-57 -61 -118 -118q-6 -6 -13.5 -11.5t-15.5 -9.5h2q-23 -10 -44 -3t-30 30q-14 41 -16 74q-4 137 17.5 270t37.5 268q10 55 18.5 110.5t16.5 110.5q6 31 10 60.5
t9 58.5q0 4 1 7t1 7q0 8 -7 13q-8 0 -10 -2h-2l-82 -54q-41 -29 -76 -57q-16 -12 -32 -37q-16 -18 -37 -30.5t-39 -20.5q-12 0 -22.5 11.5t-6.5 23.5zM399 1474q0 25 37 37h19q10 -2 19 -7t9 -17q0 -10 -4 -16.5t-8 -14.5q-6 -10 -14.5 -14t-14.5 -4q-16 0 -29.5 11
t-13.5 25zM545 1454q4 16 20.5 35.5t30.5 19.5q18 0 35.5 -15t17.5 -32q0 -12 -15.5 -23.5t-49.5 -11.5q-16 0 -27.5 7.5t-11.5 19.5z" />
    <glyph glyph-name="Igrave" unicode="&#xcc;" horiz-adv-x="514" 
d="M-209 1243l13.5 22.5t17.5 18.5q16 10 31.5 19.5t21.5 13.5q72 35 153 61.5t156 44.5q43 10 86 17.5t86 15.5l109 21q104 16 213.5 29.5t216.5 15.5q31 2 62.5 -1t60.5 -16q51 -20 41 -73q-4 -23 -23 -23q-10 0 -13 6t-7 15l-4 8l-4 12t-7 8q-6 4 -19 6t-24 2
q-16 2 -37.5 2h-37.5q-59 0 -117.5 -5t-118.5 -15q-18 -4 -37.5 -6t-40.5 -4q-18 -4 -36.5 -5t-36.5 -3q-18 -4 -20.5 -8.5t5.5 -24.5q10 -14 -10 -31h2q-8 -4 -11 -11t-7 -16q-20 -68 -30.5 -132t-21.5 -130q0 -10 -2 -18t-2 -17q-4 -39 -10 -75.5t-12 -73.5l-8 -49
q-2 -16 -5.5 -37t-5.5 -37q-4 -29 -7 -54.5t-7 -53.5l-8 -68q-6 -41 -11.5 -86t-9.5 -88q-4 -63 -8 -125t-8 -123q-4 -72 -6 -143.5t0 -143.5v-10q0 -33 2 -64.5t18 -60.5q6 -10 -10 -26q-6 -4 -16.5 -3.5t-14.5 9.5q-16 14 -20 32q0 6 -1 11.5t-1 9.5q-8 59 -12 125
q-2 47 -2 91v91h2q0 10 1 28.5t1 28.5q2 43 2 85t4 85q4 53 10 104.5t12 102.5q4 33 8.5 65t8.5 64q4 39 8 81t8 81q4 35 8 72t8 71q4 33 10.5 66t12.5 66q20 154 68 305v-2q8 10 3 14t-16 4q-12 -4 -26.5 -6t-28.5 -2q-88 -14 -174 -37t-172 -51q-25 -10 -55.5 -22.5
t-57.5 -24.5l-6 -4q-14 -6 -26.5 -14.5t-16.5 -26.5q-2 -10 -13.5 -9.5t-17.5 7.5q-14 14 -10 22zM38 -600l5 10l14 29l6 6q10 12 23.5 26.5t30.5 24.5q49 39 105.5 74t115.5 59l63 29q53 23 107.5 46.5t107.5 47.5q29 14 55.5 28.5t51.5 29.5l55 30l8 4h-2l19 6q4 0 11 -1
t11 -5q2 -4 4 -10t-2 -10t-9 -10.5t-9 -10.5l-6 -6q-47 -35 -98.5 -62.5t-98.5 -49.5l-119 -52q-33 -12 -66.5 -27.5t-64.5 -29.5q-59 -29 -115.5 -60.5t-103.5 -72.5l-29.5 -29.5t-19.5 -34.5q-5 -22 -25 -22q-27 4 -24 41q-4 -4 -1 2zM274 1704h2q-4 4 1 13.5t20 13.5
q6 -2 19 -4t17 -6q16 -10 39 -54l25 -45q8 -10 4 -11t-13 2t-22.5 10t-23.5 18q-8 8 -17.5 16t-13.5 12q-6 6 -18.5 15.5t-18.5 19.5z" />
    <glyph glyph-name="Iacute" unicode="&#xcd;" horiz-adv-x="514" 
d="M-209 1243l13.5 22.5t17.5 18.5q16 10 31.5 19.5t21.5 13.5q72 35 153 61.5t156 44.5q43 10 86 17.5t86 15.5l109 21q104 16 213.5 29.5t216.5 15.5q31 2 62.5 -1t60.5 -16q51 -20 41 -73q-4 -23 -23 -23q-10 0 -13 6t-7 15l-4 8l-4 12t-7 8q-6 4 -19 6t-24 2
q-16 2 -37.5 2h-37.5q-59 0 -117.5 -5t-118.5 -15q-18 -4 -37.5 -6t-40.5 -4q-18 -4 -36.5 -5t-36.5 -3q-18 -4 -20.5 -8.5t5.5 -24.5q10 -14 -10 -31h2q-8 -4 -11 -11t-7 -16q-20 -68 -30.5 -132t-21.5 -130q0 -10 -2 -18t-2 -17q-4 -39 -10 -75.5t-12 -73.5l-8 -49
q-2 -16 -5.5 -37t-5.5 -37q-4 -29 -7 -54.5t-7 -53.5l-8 -68q-6 -41 -11.5 -86t-9.5 -88q-4 -63 -8 -125t-8 -123q-4 -72 -6 -143.5t0 -143.5v-10q0 -33 2 -64.5t18 -60.5q6 -10 -10 -26q-6 -4 -16.5 -3.5t-14.5 9.5q-16 14 -20 32q0 6 -1 11.5t-1 9.5q-8 59 -12 125
q-2 47 -2 91v91h2q0 10 1 28.5t1 28.5q2 43 2 85t4 85q4 53 10 104.5t12 102.5q4 33 8.5 65t8.5 64q4 39 8 81t8 81q4 35 8 72t8 71q4 33 10.5 66t12.5 66q20 154 68 305v-2q8 10 3 14t-16 4q-12 -4 -26.5 -6t-28.5 -2q-88 -14 -174 -37t-172 -51q-25 -10 -55.5 -22.5
t-57.5 -24.5l-6 -4q-14 -6 -26.5 -14.5t-16.5 -26.5q-2 -10 -13.5 -9.5t-17.5 7.5q-14 14 -10 22zM38 -600l5 10l14 29l6 6q10 12 23.5 26.5t30.5 24.5q49 39 105.5 74t115.5 59l63 29q53 23 107.5 46.5t107.5 47.5q29 14 55.5 28.5t51.5 29.5l55 30l8 4h-2l19 6q4 0 11 -1
t11 -5q2 -4 4 -10t-2 -10t-9 -10.5t-9 -10.5l-6 -6q-47 -35 -98.5 -62.5t-98.5 -49.5l-119 -52q-33 -12 -66.5 -27.5t-64.5 -29.5q-59 -29 -115.5 -60.5t-103.5 -72.5l-29.5 -29.5t-19.5 -34.5q-5 -22 -25 -22q-27 4 -24 41q-4 -4 -1 2zM398 1663q0 8 8 17q12 10 49 49
t70 72q6 8 16 8q20 0 20 -19q0 -10 -6 -16q-29 -33 -58.5 -65.5t-64.5 -61.5q-4 -4 -14 -4q-20 0 -20 20z" />
    <glyph glyph-name="Icircumflex" unicode="&#xce;" horiz-adv-x="514" 
d="M-209 1243l13.5 22.5t17.5 18.5q16 10 31.5 19.5t21.5 13.5q72 35 153 61.5t156 44.5q43 10 86 17.5t86 15.5l109 21q104 16 213.5 29.5t216.5 15.5q31 2 62.5 -1t60.5 -16q51 -20 41 -73q-4 -23 -23 -23q-10 0 -13 6t-7 15l-4 8l-4 12t-7 8q-6 4 -19 6t-24 2
q-16 2 -37.5 2h-37.5q-59 0 -117.5 -5t-118.5 -15q-18 -4 -37.5 -6t-40.5 -4q-18 -4 -36.5 -5t-36.5 -3q-18 -4 -20.5 -8.5t5.5 -24.5q10 -14 -10 -31h2q-8 -4 -11 -11t-7 -16q-20 -68 -30.5 -132t-21.5 -130q0 -10 -2 -18t-2 -17q-4 -39 -10 -75.5t-12 -73.5l-8 -49
q-2 -16 -5.5 -37t-5.5 -37q-4 -29 -7 -54.5t-7 -53.5l-8 -68q-6 -41 -11.5 -86t-9.5 -88q-4 -63 -8 -125t-8 -123q-4 -72 -6 -143.5t0 -143.5v-10q0 -33 2 -64.5t18 -60.5q6 -10 -10 -26q-6 -4 -16.5 -3.5t-14.5 9.5q-16 14 -20 32q0 6 -1 11.5t-1 9.5q-8 59 -12 125
q-2 47 -2 91v91h2q0 10 1 28.5t1 28.5q2 43 2 85t4 85q4 53 10 104.5t12 102.5q4 33 8.5 65t8.5 64q4 39 8 81t8 81q4 35 8 72t8 71q4 33 10.5 66t12.5 66q20 154 68 305v-2q8 10 3 14t-16 4q-12 -4 -26.5 -6t-28.5 -2q-88 -14 -174 -37t-172 -51q-25 -10 -55.5 -22.5
t-57.5 -24.5l-6 -4q-14 -6 -26.5 -14.5t-16.5 -26.5q-2 -10 -13.5 -9.5t-17.5 7.5q-14 14 -10 22zM38 -600l5 10l14 29l6 6q10 12 23.5 26.5t30.5 24.5q49 39 105.5 74t115.5 59l63 29q53 23 107.5 46.5t107.5 47.5q29 14 55.5 28.5t51.5 29.5l55 30l8 4h-2l19 6q4 0 11 -1
t11 -5q2 -4 4 -10t-2 -10t-9 -10.5t-9 -10.5l-6 -6q-47 -35 -98.5 -62.5t-98.5 -49.5l-119 -52q-33 -12 -66.5 -27.5t-64.5 -29.5q-59 -29 -115.5 -60.5t-103.5 -72.5l-29.5 -29.5t-19.5 -34.5q-5 -22 -25 -22q-27 4 -24 41q-4 -4 -1 2zM350 1651q0 4 11.5 20t26 36.5
t28.5 39t20 24.5q0 2 5.5 3.5t9.5 1.5q27 0 51.5 -21.5t44.5 -46.5q8 -10 19.5 -22.5t19.5 -20.5q4 -4 4 -10q0 -16 -20 -17q-12 0 -25.5 13.5t-30.5 29.5q-2 0 -4 3l-4 6l-14 14q-8 10 -16.5 18t-22.5 17q0 -4 -12.5 -21.5t-22.5 -32.5l-6 -6q-16 -20 -16 -30
q-6 -18 -23 -19q-8 0 -15.5 6t-7.5 15z" />
    <glyph glyph-name="Idieresis" unicode="&#xcf;" horiz-adv-x="514" 
d="M-209 1243l13.5 22.5t17.5 18.5q16 10 31.5 19.5t21.5 13.5q72 35 153 61.5t156 44.5q43 10 86 17.5t86 15.5l109 21q104 16 213.5 29.5t216.5 15.5q31 2 62.5 -1t60.5 -16q51 -20 41 -73q-4 -23 -23 -23q-10 0 -13 6t-7 15l-4 8l-4 12t-7 8q-6 4 -19 6t-24 2
q-16 2 -37.5 2h-37.5q-59 0 -117.5 -5t-118.5 -15q-18 -4 -37.5 -6t-40.5 -4q-18 -4 -36.5 -5t-36.5 -3q-18 -4 -20.5 -8.5t5.5 -24.5q10 -14 -10 -31h2q-8 -4 -11 -11t-7 -16q-20 -68 -30.5 -132t-21.5 -130q0 -10 -2 -18t-2 -17q-4 -39 -10 -75.5t-12 -73.5l-8 -49
q-2 -16 -5.5 -37t-5.5 -37q-4 -29 -7 -54.5t-7 -53.5l-8 -68q-6 -41 -11.5 -86t-9.5 -88q-4 -63 -8 -125t-8 -123q-4 -72 -6 -143.5t0 -143.5v-10q0 -33 2 -64.5t18 -60.5q6 -10 -10 -26q-6 -4 -16.5 -3.5t-14.5 9.5q-16 14 -20 32q0 6 -1 11.5t-1 9.5q-8 59 -12 125
q-2 47 -2 91v91h2q0 10 1 28.5t1 28.5q2 43 2 85t4 85q4 53 10 104.5t12 102.5q4 33 8.5 65t8.5 64q4 39 8 81t8 81q4 35 8 72t8 71q4 33 10.5 66t12.5 66q20 154 68 305v-2q8 10 3 14t-16 4q-12 -4 -26.5 -6t-28.5 -2q-88 -14 -174 -37t-172 -51q-25 -10 -55.5 -22.5
t-57.5 -24.5l-6 -4q-14 -6 -26.5 -14.5t-16.5 -26.5q-2 -10 -13.5 -9.5t-17.5 7.5q-14 14 -10 22zM38 -600l5 10l14 29l6 6q10 12 23.5 26.5t30.5 24.5q49 39 105.5 74t115.5 59l63 29q53 23 107.5 46.5t107.5 47.5q29 14 55.5 28.5t51.5 29.5l55 30l8 4h-2l19 6q4 0 11 -1
t11 -5q2 -4 4 -10t-2 -10t-9 -10.5t-9 -10.5l-6 -6q-47 -35 -98.5 -62.5t-98.5 -49.5l-119 -52q-33 -12 -66.5 -27.5t-64.5 -29.5q-59 -29 -115.5 -60.5t-103.5 -72.5l-29.5 -29.5t-19.5 -34.5q-5 -22 -25 -22q-27 4 -24 41q-4 -4 -1 2zM301 1679q0 25 37 37h19q10 -2 19 -7
t9 -17q0 -10 -4 -16.5t-8 -14.5q-6 -10 -14.5 -14t-14.5 -4q-16 0 -29.5 11t-13.5 25zM447 1659q4 16 20.5 35.5t30.5 19.5q18 0 35.5 -15t17.5 -32q0 -12 -15.5 -23.5t-49.5 -11.5q-16 0 -27.5 7.5t-11.5 19.5z" />
    <glyph glyph-name="Eth" unicode="&#xd0;" horiz-adv-x="1124" 
d="M-70 717q18 100 64 186q51 106 129 205q66 86 144.5 156.5t172.5 117.5q33 18 68 30.5t70 23.5q18 6 31.5 14t19.5 29q2 6 3 11t5 9q6 16 20 17q4 -4 10.5 -9.5t10.5 -9.5q2 -4 2 -16q2 -23 5 -27t22 -6q23 -4 41 -9t38 -14q76 -33 132 -106q57 -88 91.5 -186.5t48 -201
t6.5 -206.5t-32 -205q-27 -104 -73 -204.5t-105 -192.5q-66 -98 -144.5 -196.5t-166.5 -178.5q-10 -10 -18.5 -27.5t-8.5 -35.5q2 -10 3 -21.5t1 -23.5q4 -47 8 -95.5t17 -95.5q4 -12 9 -26.5t13 -24.5v2q10 -23 25 0q0 2 1 4t1 4q0 4 2 6q8 12 18 13q12 0 17 -15
q4 -8 2 -17t-6 -20q-10 -18 -37 -26t-51 18q-16 16 -24.5 38t-14.5 44q-10 41 -15.5 83t-9.5 83v14.5t-2 14.5q-4 29 -8 33t-33 -9q-37 -16 -72 -14q-23 0 -39 12t-26 31q-20 45 -21 82q0 35 19 69q20 33 37 25q18 -10 4 -43q-8 -16 -10 -37.5t2 -42t17 -35t36 -12.5
q27 4 46 16.5t38 28.5q4 4 5 14.5t1 20.5v162q2 115 7 228.5t11 227.5q-29 0 -56.5 -1t-55.5 -3q-2 -2 -6 -2q-4 2 -7.5 5t-3.5 20q2 6 2 16l2 -2l103 15h27q14 213 36.5 422.5t57.5 422.5l12 64q4 18 -1 21t-22 -3q-76 -25 -141 -64.5t-125 -90.5q-78 -70 -144.5 -155
t-117.5 -179q-18 -35 -36.5 -79t-26.5 -85q-4 -20 -4 -45t10 -49q0 -2 1 -3t1 -3q2 -10 -4 -15.5t-17 -1.5q-14 4 -21 15.5t-11 21.5q-6 16 -8.5 36.5t-0.5 37.5zM514 0l2 -2v-174q0 -6 4 -10v2l4 -11q6 6 11 9q4 2 6 4v-2l49 55q27 29 52.5 55.5t47.5 55.5q27 33 52.5 67.5
t48.5 69.5q33 53 64.5 110.5t59.5 120.5q23 47 39.5 98.5t26.5 100.5q25 98 30 203.5t-11.5 207t-56.5 197.5t-107 176q-35 35 -76 48.5t-90 9.5q-20 0 -23 -21l-20 -135q-31 -199 -51.5 -394.5t-34.5 -394.5q27 -2 52 -3t73 3q4 -2 13 -5t11 -11q6 -25 -2 -27q-4 -2 -5 -1
t-5 -1q-27 -2 -44.5 -3t-32.5 -1h-30.5h-33.5q-6 -98 -12.5 -197.5t-10.5 -199.5z" />
    <glyph glyph-name="Ntilde" unicode="&#xd1;" horiz-adv-x="1124" 
d="M-86 664q0 45 3 93t9 93q10 74 25.5 147.5t44.5 145.5l18 49q14 41 31.5 87t34.5 85q29 66 65.5 129t94.5 117l16 16t18 16q27 16 63 12.5t52 -34.5q10 -20 19.5 -43t13.5 -45q8 -41 14 -86t8 -86q6 -57 7.5 -112.5t1.5 -110.5q2 -135 -4.5 -274.5t-14.5 -272.5
q-4 -49 -8 -99.5t-8 -99.5l-10 -135q-2 -47 -6.5 -91t-8.5 -89v-35q-4 -2 -5 -1t-1 -11l8 10l4 10q4 4 5.5 12.5t3.5 12.5l65 241l10 33q14 47 26.5 94t29.5 90q39 117 83 231t107 222q8 14 21.5 32.5t29.5 41.5q12 16 31 26q37 20 57 -20q6 -12 11.5 -25.5t7.5 -27.5
q4 -35 6 -73t0 -73v-80v-93t-2 -93v-47q0 -92 1 -186.5t11 -184.5q4 -55 10.5 -114.5t16.5 -116.5q8 -59 24.5 -116.5t38.5 -115.5q12 -23 24.5 -43t29.5 -36q33 -35 79 -21q29 10 49.5 21.5t34.5 27.5q115 94 170 226l4 8q12 18 31 14q20 -8 12 -27q-6 -18 -16 -38.5
t-20 -40.5q-29 -51 -69 -97.5t-93 -93.5q-25 -16 -54.5 -28.5t-58.5 -20.5q-31 -8 -57.5 5t-48.5 36q-33 35 -51.5 70.5t-32.5 72.5q-20 53 -30.5 106.5t-21.5 108.5q-2 23 -4 44.5t-6 43.5q-4 23 -6 42.5t-4 39.5q-4 55 -7 110.5t-7 112.5v62v74t2 73q2 88 3 175.5t1 173.5
q0 14 -1 26t-3 25q-2 12 -2 24.5v22.5q-2 6 -5.5 11t-7.5 11q-10 -10 -12 -10t-6 -2q-6 -8 -13.5 -16t-11.5 -17q-29 -43 -53 -95t-47 -103l-10 -25q-29 -72 -58.5 -149.5t-50.5 -151.5l-14 -45q-23 -74 -44.5 -149.5t-41.5 -147.5q-14 -49 -23.5 -98t-19.5 -103l-19 -92
l-38 -201l-19 -88q-8 -37 -12 -71l-10 -72q0 -14 -7 -27v2q-8 -12 -28 -12q-16 6 -17 19q-2 4 -2 10q0 4 -1 6t-1 6l15 115q4 27 6 50.5t6 45.5l6 47l8 96q2 25 5 52.5t8 64.5l12 101q10 92 20.5 184t16.5 186q0 43 6 90l8 90q4 53 5 119t3 121q4 59 6 118.5t4 119.5
q0 33 1.5 66.5t1.5 66.5q0 66 -3.5 132t-11.5 132q-2 41 -8 86t-21 84q-6 6 -6 12q-4 10 -9 18.5t-17 12.5q-16 4 -28.5 -4t-20.5 -17q-35 -35 -60.5 -72.5t-50.5 -78.5q-45 -86 -82 -173t-61 -173q-23 -74 -40.5 -152t-23.5 -149q-4 -35 -5 -71t-1 -71t2 -71.5t6 -69.5
q0 -4 1 -6t1 -6q0 -8 2 -12q0 -10 4 -17.5t21 -3.5q8 4 20 -12v2q2 -8 4 -8q10 -33 10.5 -62t-3.5 -59q-4 -14 -15.5 -15.5t-21.5 7.5q-6 10 -17.5 26.5t-15.5 26.5q-12 33 -20.5 68.5t-12.5 72.5q-4 35 -6 72t-2 74zM742 1411q4 14 16 29.5t26.5 28t29 19.5t24.5 7
q23 0 55 -32q6 -2 15 -15q10 -12 23.5 -26.5t27.5 -14.5q23 0 36 16.5t23 32.5q6 10 13.5 19.5t17.5 9.5q6 0 12 -5t6 -13q0 -4 -2 -6l-47 -62q-12 -16 -24.5 -23.5t-22.5 -7.5q-23 0 -43 17.5t-39 36.5q-14 16 -26.5 27.5t-26.5 11.5q-10 0 -29.5 -19t-23.5 -35
q-6 -16 -21 -16q-16 0 -20 20z" />
    <glyph glyph-name="Ograve" unicode="&#xd2;" horiz-adv-x="1239" 
d="M80 483q0 35 1 72t3 72q4 104 19.5 210.5t43.5 204.5q16 47 36 98.5t42 94.5q4 8 11.5 15t11.5 16q10 14 20.5 26.5t20.5 24.5q23 23 50.5 39t61.5 20h9q2 0 4 1t6 1q23 -4 29 -16q0 -2 1 -3t1 -3q8 -16 -2.5 -33.5t-28 -30t-38 -19.5t-30.5 -3q-12 2 -19 -6.5t-11 -18.5
v2q-23 -31 -41.5 -69.5t-34.5 -79.5q-25 -70 -42.5 -141.5t-29.5 -145.5q-12 -72 -19.5 -152.5t-9.5 -154.5q-2 -25 -2 -50.5v-50.5q0 -150 19 -297q10 -68 21.5 -134t27.5 -134q14 -47 31.5 -97t40.5 -95q16 -31 33.5 -59.5t37.5 -47.5q39 -37 88 -39q23 -2 52 8
q45 18 81.5 48t67.5 67q23 27 43.5 53.5t38.5 55.5q10 14 21.5 30.5t21.5 30.5h-27q-10 -4 -20 -10t-21 -12l-20 -11q-37 -16 -81 -19t-85 3q-35 10 -66.5 33.5t-54.5 48.5q-37 47 -61.5 100.5t-40.5 102.5q-25 90 -34 182t-13 184q-2 119 12 232q8 72 22.5 144.5
t36.5 141.5q23 68 47.5 134.5t59.5 130.5q27 49 57.5 101t67.5 103q43 55 90 106.5t106 96.5q43 35 90.5 60.5t102.5 35.5q61 12 105 -8t79 -59q20 -23 32.5 -47.5t23.5 -50.5q25 -74 31.5 -148t6.5 -147q0 -78 -7 -159t-19 -159q-10 -66 -24.5 -134.5t-30.5 -133.5
q-12 -55 -25.5 -109.5t-28.5 -107.5l-12 -45l-16 -51q-6 -16 -12.5 -35t-10.5 -35l-29 -76q-14 -37 -28.5 -72.5t-30.5 -72.5q-12 -33 -28.5 -65t-32.5 -64l-25 -49q-16 -33 -37.5 -67t-48.5 -75t-56.5 -81t-66.5 -74q-55 -55 -121 -82q-31 -16 -71 -17q-72 0 -134 62
q-35 35 -57 69.5t-39 75.5q-33 76 -55.5 159t-38.5 161q-16 96 -29.5 197.5t-17.5 199.5q0 27 -1 51.5t-1 50.5zM287 420q0 -82 6 -158q6 -70 18.5 -136.5t34.5 -131.5q18 -43 40 -84t52 -74q16 -20 42 -35.5t55 -19.5q27 -4 54 -2t50 12q25 10 52.5 23.5t47.5 27.5
q35 25 67 60t54 75q27 51 49.5 108.5t42.5 111.5q0 8 4 12q35 86 63 181t50 188q27 98 49.5 207.5t32.5 213.5q10 66 14 135.5t6 135.5q-4 43 -9 86t-11 84q-10 35 -21.5 70.5t-29.5 66.5q-27 37 -63 55.5t-83 12.5l-59 -17q-55 -25 -101 -57.5t-87 -71.5t-80 -86t-72 -94
q-37 -55 -73 -124t-64 -132q-27 -66 -50.5 -131.5t-35.5 -136.5q-4 -31 -11.5 -62t-13.5 -61q0 -4 -2 -11.5t-2 -11.5q-8 -55 -12 -113.5t-4 -115.5zM686 1896h2q-4 4 1 13.5t20 13.5q6 -2 19 -4t17 -6q16 -10 39 -54l25 -45q8 -10 4 -11t-13 2t-22.5 10t-23.5 18
q-8 8 -17.5 16t-13.5 12q-6 6 -18.5 15.5t-18.5 19.5z" />
    <glyph glyph-name="Oacute" unicode="&#xd3;" horiz-adv-x="1239" 
d="M80 483q0 35 1 72t3 72q4 104 19.5 210.5t43.5 204.5q16 47 36 98.5t42 94.5q4 8 11.5 15t11.5 16q10 14 20.5 26.5t20.5 24.5q23 23 50.5 39t61.5 20h9q2 0 4 1t6 1q23 -4 29 -16q0 -2 1 -3t1 -3q8 -16 -2.5 -33.5t-28 -30t-38 -19.5t-30.5 -3q-12 2 -19 -6.5t-11 -18.5
v2q-23 -31 -41.5 -69.5t-34.5 -79.5q-25 -70 -42.5 -141.5t-29.5 -145.5q-12 -72 -19.5 -152.5t-9.5 -154.5q-2 -25 -2 -50.5v-50.5q0 -150 19 -297q10 -68 21.5 -134t27.5 -134q14 -47 31.5 -97t40.5 -95q16 -31 33.5 -59.5t37.5 -47.5q39 -37 88 -39q23 -2 52 8
q45 18 81.5 48t67.5 67q23 27 43.5 53.5t38.5 55.5q10 14 21.5 30.5t21.5 30.5h-27q-10 -4 -20 -10t-21 -12l-20 -11q-37 -16 -81 -19t-85 3q-35 10 -66.5 33.5t-54.5 48.5q-37 47 -61.5 100.5t-40.5 102.5q-25 90 -34 182t-13 184q-2 119 12 232q8 72 22.5 144.5
t36.5 141.5q23 68 47.5 134.5t59.5 130.5q27 49 57.5 101t67.5 103q43 55 90 106.5t106 96.5q43 35 90.5 60.5t102.5 35.5q61 12 105 -8t79 -59q20 -23 32.5 -47.5t23.5 -50.5q25 -74 31.5 -148t6.5 -147q0 -78 -7 -159t-19 -159q-10 -66 -24.5 -134.5t-30.5 -133.5
q-12 -55 -25.5 -109.5t-28.5 -107.5l-12 -45l-16 -51q-6 -16 -12.5 -35t-10.5 -35l-29 -76q-14 -37 -28.5 -72.5t-30.5 -72.5q-12 -33 -28.5 -65t-32.5 -64l-25 -49q-16 -33 -37.5 -67t-48.5 -75t-56.5 -81t-66.5 -74q-55 -55 -121 -82q-31 -16 -71 -17q-72 0 -134 62
q-35 35 -57 69.5t-39 75.5q-33 76 -55.5 159t-38.5 161q-16 96 -29.5 197.5t-17.5 199.5q0 27 -1 51.5t-1 50.5zM287 420q0 -82 6 -158q6 -70 18.5 -136.5t34.5 -131.5q18 -43 40 -84t52 -74q16 -20 42 -35.5t55 -19.5q27 -4 54 -2t50 12q25 10 52.5 23.5t47.5 27.5
q35 25 67 60t54 75q27 51 49.5 108.5t42.5 111.5q0 8 4 12q35 86 63 181t50 188q27 98 49.5 207.5t32.5 213.5q10 66 14 135.5t6 135.5q-4 43 -9 86t-11 84q-10 35 -21.5 70.5t-29.5 66.5q-27 37 -63 55.5t-83 12.5l-59 -17q-55 -25 -101 -57.5t-87 -71.5t-80 -86t-72 -94
q-37 -55 -73 -124t-64 -132q-27 -66 -50.5 -131.5t-35.5 -136.5q-4 -31 -11.5 -62t-13.5 -61q0 -4 -2 -11.5t-2 -11.5q-8 -55 -12 -113.5t-4 -115.5zM670 1779q0 8 8 17q12 10 49 49t70 72q6 8 16 8q20 0 20 -19q0 -10 -6 -16q-29 -33 -58.5 -65.5t-64.5 -61.5q-4 -4 -14 -4
q-20 0 -20 20z" />
    <glyph glyph-name="Ocircumflex" unicode="&#xd4;" horiz-adv-x="1239" 
d="M80 483q0 35 1 72t3 72q4 104 19.5 210.5t43.5 204.5q16 47 36 98.5t42 94.5q4 8 11.5 15t11.5 16q10 14 20.5 26.5t20.5 24.5q23 23 50.5 39t61.5 20h9q2 0 4 1t6 1q23 -4 29 -16q0 -2 1 -3t1 -3q8 -16 -2.5 -33.5t-28 -30t-38 -19.5t-30.5 -3q-12 2 -19 -6.5t-11 -18.5
v2q-23 -31 -41.5 -69.5t-34.5 -79.5q-25 -70 -42.5 -141.5t-29.5 -145.5q-12 -72 -19.5 -152.5t-9.5 -154.5q-2 -25 -2 -50.5v-50.5q0 -150 19 -297q10 -68 21.5 -134t27.5 -134q14 -47 31.5 -97t40.5 -95q16 -31 33.5 -59.5t37.5 -47.5q39 -37 88 -39q23 -2 52 8
q45 18 81.5 48t67.5 67q23 27 43.5 53.5t38.5 55.5q10 14 21.5 30.5t21.5 30.5h-27q-10 -4 -20 -10t-21 -12l-20 -11q-37 -16 -81 -19t-85 3q-35 10 -66.5 33.5t-54.5 48.5q-37 47 -61.5 100.5t-40.5 102.5q-25 90 -34 182t-13 184q-2 119 12 232q8 72 22.5 144.5
t36.5 141.5q23 68 47.5 134.5t59.5 130.5q27 49 57.5 101t67.5 103q43 55 90 106.5t106 96.5q43 35 90.5 60.5t102.5 35.5q61 12 105 -8t79 -59q20 -23 32.5 -47.5t23.5 -50.5q25 -74 31.5 -148t6.5 -147q0 -78 -7 -159t-19 -159q-10 -66 -24.5 -134.5t-30.5 -133.5
q-12 -55 -25.5 -109.5t-28.5 -107.5l-12 -45l-16 -51q-6 -16 -12.5 -35t-10.5 -35l-29 -76q-14 -37 -28.5 -72.5t-30.5 -72.5q-12 -33 -28.5 -65t-32.5 -64l-25 -49q-16 -33 -37.5 -67t-48.5 -75t-56.5 -81t-66.5 -74q-55 -55 -121 -82q-31 -16 -71 -17q-72 0 -134 62
q-35 35 -57 69.5t-39 75.5q-33 76 -55.5 159t-38.5 161q-16 96 -29.5 197.5t-17.5 199.5q0 27 -1 51.5t-1 50.5zM287 420q0 -82 6 -158q6 -70 18.5 -136.5t34.5 -131.5q18 -43 40 -84t52 -74q16 -20 42 -35.5t55 -19.5q27 -4 54 -2t50 12q25 10 52.5 23.5t47.5 27.5
q35 25 67 60t54 75q27 51 49.5 108.5t42.5 111.5q0 8 4 12q35 86 63 181t50 188q27 98 49.5 207.5t32.5 213.5q10 66 14 135.5t6 135.5q-4 43 -9 86t-11 84q-10 35 -21.5 70.5t-29.5 66.5q-27 37 -63 55.5t-83 12.5l-59 -17q-55 -25 -101 -57.5t-87 -71.5t-80 -86t-72 -94
q-37 -55 -73 -124t-64 -132q-27 -66 -50.5 -131.5t-35.5 -136.5q-4 -31 -11.5 -62t-13.5 -61q0 -4 -2 -11.5t-2 -11.5q-8 -55 -12 -113.5t-4 -115.5zM725 1835q0 4 11.5 20t26 36.5t28.5 39t20 24.5q0 2 5.5 3.5t9.5 1.5q27 0 51.5 -21.5t44.5 -46.5q8 -10 19.5 -22.5
t19.5 -20.5q4 -4 4 -10q0 -16 -20 -17q-12 0 -25.5 13.5t-30.5 29.5q-2 0 -4 3l-4 6l-14 14q-8 10 -16.5 18t-22.5 17q0 -4 -12.5 -21.5t-22.5 -32.5l-6 -6q-16 -20 -16 -30q-6 -18 -23 -19q-8 0 -15.5 6t-7.5 15z" />
    <glyph glyph-name="Otilde" unicode="&#xd5;" horiz-adv-x="1239" 
d="M80 483q0 35 1 72t3 72q4 104 19.5 210.5t43.5 204.5q16 47 36 98.5t42 94.5q4 8 11.5 15t11.5 16q10 14 20.5 26.5t20.5 24.5q23 23 50.5 39t61.5 20h9q2 0 4 1t6 1q23 -4 29 -16q0 -2 1 -3t1 -3q8 -16 -2.5 -33.5t-28 -30t-38 -19.5t-30.5 -3q-12 2 -19 -6.5t-11 -18.5
v2q-23 -31 -41.5 -69.5t-34.5 -79.5q-25 -70 -42.5 -141.5t-29.5 -145.5q-12 -72 -19.5 -152.5t-9.5 -154.5q-2 -25 -2 -50.5v-50.5q0 -150 19 -297q10 -68 21.5 -134t27.5 -134q14 -47 31.5 -97t40.5 -95q16 -31 33.5 -59.5t37.5 -47.5q39 -37 88 -39q23 -2 52 8
q45 18 81.5 48t67.5 67q23 27 43.5 53.5t38.5 55.5q10 14 21.5 30.5t21.5 30.5h-27q-10 -4 -20 -10t-21 -12l-20 -11q-37 -16 -81 -19t-85 3q-35 10 -66.5 33.5t-54.5 48.5q-37 47 -61.5 100.5t-40.5 102.5q-25 90 -34 182t-13 184q-2 119 12 232q8 72 22.5 144.5
t36.5 141.5q23 68 47.5 134.5t59.5 130.5q27 49 57.5 101t67.5 103q43 55 90 106.5t106 96.5q43 35 90.5 60.5t102.5 35.5q61 12 105 -8t79 -59q20 -23 32.5 -47.5t23.5 -50.5q25 -74 31.5 -148t6.5 -147q0 -78 -7 -159t-19 -159q-10 -66 -24.5 -134.5t-30.5 -133.5
q-12 -55 -25.5 -109.5t-28.5 -107.5l-12 -45l-16 -51q-6 -16 -12.5 -35t-10.5 -35l-29 -76q-14 -37 -28.5 -72.5t-30.5 -72.5q-12 -33 -28.5 -65t-32.5 -64l-25 -49q-16 -33 -37.5 -67t-48.5 -75t-56.5 -81t-66.5 -74q-55 -55 -121 -82q-31 -16 -71 -17q-72 0 -134 62
q-35 35 -57 69.5t-39 75.5q-33 76 -55.5 159t-38.5 161q-16 96 -29.5 197.5t-17.5 199.5q0 27 -1 51.5t-1 50.5zM287 420q0 -82 6 -158q6 -70 18.5 -136.5t34.5 -131.5q18 -43 40 -84t52 -74q16 -20 42 -35.5t55 -19.5q27 -4 54 -2t50 12q25 10 52.5 23.5t47.5 27.5
q35 25 67 60t54 75q27 51 49.5 108.5t42.5 111.5q0 8 4 12q35 86 63 181t50 188q27 98 49.5 207.5t32.5 213.5q10 66 14 135.5t6 135.5q-4 43 -9 86t-11 84q-10 35 -21.5 70.5t-29.5 66.5q-27 37 -63 55.5t-83 12.5l-59 -17q-55 -25 -101 -57.5t-87 -71.5t-80 -86t-72 -94
q-37 -55 -73 -124t-64 -132q-27 -66 -50.5 -131.5t-35.5 -136.5q-4 -31 -11.5 -62t-13.5 -61q0 -4 -2 -11.5t-2 -11.5q-8 -55 -12 -113.5t-4 -115.5zM793 1867q4 14 16 29.5t26.5 28t29 19.5t24.5 7q23 0 55 -32q6 -2 15 -15q10 -12 23.5 -26.5t27.5 -14.5q23 0 36 16.5
t23 32.5q6 10 13.5 19.5t17.5 9.5q6 0 12 -5t6 -13q0 -4 -2 -6l-47 -62q-12 -16 -24.5 -23.5t-22.5 -7.5q-23 0 -43 17.5t-39 36.5q-14 16 -26.5 27.5t-26.5 11.5q-10 0 -29.5 -19t-23.5 -35q-6 -16 -21 -16q-16 0 -20 20z" />
    <glyph glyph-name="Odieresis" unicode="&#xd6;" horiz-adv-x="1239" 
d="M80 483q0 35 1 72t3 72q4 104 19.5 210.5t43.5 204.5q16 47 36 98.5t42 94.5q4 8 11.5 15t11.5 16q10 14 20.5 26.5t20.5 24.5q23 23 50.5 39t61.5 20h9q2 0 4 1t6 1q23 -4 29 -16q0 -2 1 -3t1 -3q8 -16 -2.5 -33.5t-28 -30t-38 -19.5t-30.5 -3q-12 2 -19 -6.5t-11 -18.5
v2q-23 -31 -41.5 -69.5t-34.5 -79.5q-25 -70 -42.5 -141.5t-29.5 -145.5q-12 -72 -19.5 -152.5t-9.5 -154.5q-2 -25 -2 -50.5v-50.5q0 -150 19 -297q10 -68 21.5 -134t27.5 -134q14 -47 31.5 -97t40.5 -95q16 -31 33.5 -59.5t37.5 -47.5q39 -37 88 -39q23 -2 52 8
q45 18 81.5 48t67.5 67q23 27 43.5 53.5t38.5 55.5q10 14 21.5 30.5t21.5 30.5h-27q-10 -4 -20 -10t-21 -12l-20 -11q-37 -16 -81 -19t-85 3q-35 10 -66.5 33.5t-54.5 48.5q-37 47 -61.5 100.5t-40.5 102.5q-25 90 -34 182t-13 184q-2 119 12 232q8 72 22.5 144.5
t36.5 141.5q23 68 47.5 134.5t59.5 130.5q27 49 57.5 101t67.5 103q43 55 90 106.5t106 96.5q43 35 90.5 60.5t102.5 35.5q61 12 105 -8t79 -59q20 -23 32.5 -47.5t23.5 -50.5q25 -74 31.5 -148t6.5 -147q0 -78 -7 -159t-19 -159q-10 -66 -24.5 -134.5t-30.5 -133.5
q-12 -55 -25.5 -109.5t-28.5 -107.5l-12 -45l-16 -51q-6 -16 -12.5 -35t-10.5 -35l-29 -76q-14 -37 -28.5 -72.5t-30.5 -72.5q-12 -33 -28.5 -65t-32.5 -64l-25 -49q-16 -33 -37.5 -67t-48.5 -75t-56.5 -81t-66.5 -74q-55 -55 -121 -82q-31 -16 -71 -17q-72 0 -134 62
q-35 35 -57 69.5t-39 75.5q-33 76 -55.5 159t-38.5 161q-16 96 -29.5 197.5t-17.5 199.5q0 27 -1 51.5t-1 50.5zM287 420q0 -82 6 -158q6 -70 18.5 -136.5t34.5 -131.5q18 -43 40 -84t52 -74q16 -20 42 -35.5t55 -19.5q27 -4 54 -2t50 12q25 10 52.5 23.5t47.5 27.5
q35 25 67 60t54 75q27 51 49.5 108.5t42.5 111.5q0 8 4 12q35 86 63 181t50 188q27 98 49.5 207.5t32.5 213.5q10 66 14 135.5t6 135.5q-4 43 -9 86t-11 84q-10 35 -21.5 70.5t-29.5 66.5q-27 37 -63 55.5t-83 12.5l-59 -17q-55 -25 -101 -57.5t-87 -71.5t-80 -86t-72 -94
q-37 -55 -73 -124t-64 -132q-27 -66 -50.5 -131.5t-35.5 -136.5q-4 -31 -11.5 -62t-13.5 -61q0 -4 -2 -11.5t-2 -11.5q-8 -55 -12 -113.5t-4 -115.5zM624 1804q0 25 37 37h19q10 -2 19 -7t9 -17q0 -10 -4 -16.5t-8 -14.5q-6 -10 -14.5 -14t-14.5 -4q-16 0 -29.5 11t-13.5 25
zM770 1784q4 16 20.5 35.5t30.5 19.5q18 0 35.5 -15t17.5 -32q0 -12 -15.5 -23.5t-49.5 -11.5q-16 0 -27.5 7.5t-11.5 19.5z" />
    <glyph glyph-name="Oslash" unicode="&#xd8;" horiz-adv-x="1239" 
d="M80 483q0 35 1 72t3 72q4 104 19.5 210.5t43.5 204.5q16 47 36 98.5t42 94.5q4 8 11.5 15t11.5 16q10 14 20.5 26.5t20.5 24.5q23 23 50.5 39t61.5 20h9q2 0 4 1t6 1q23 -4 29 -16q0 -2 1 -3t1 -3q8 -16 -2.5 -33.5t-28 -30t-38 -19.5t-30.5 -3q-12 2 -19 -6.5t-11 -18.5
v2q-23 -31 -41.5 -69.5t-34.5 -79.5q-25 -70 -42.5 -141.5t-29.5 -145.5q-12 -72 -19.5 -152.5t-9.5 -154.5q-2 -25 -2 -50.5v-50.5q0 -150 19 -297q10 -68 21.5 -134t27.5 -134q14 -47 31.5 -97t40.5 -95l8 -17q0 19 2 27q12 61 27.5 118.5t31.5 112.5q-23 35 -37 71
t-24 71q-25 90 -34 182t-13 184q-2 119 12 232q8 72 22.5 144.5t36.5 141.5q23 68 47.5 134.5t59.5 130.5q27 49 57.5 101t67.5 103q43 55 90 106.5t106 96.5q43 35 90.5 60.5t102.5 35.5q61 12 105 -8t79 -59q20 -23 32.5 -47.5t23.5 -50.5q25 -74 31.5 -148t6.5 -147
q0 -78 -7 -159t-19 -159q-10 -66 -24.5 -134.5t-30.5 -133.5q-12 -55 -25.5 -109.5t-28.5 -107.5l-12 -45l-16 -51q-6 -16 -12.5 -35t-10.5 -35l-29 -76q-14 -37 -28.5 -72.5t-30.5 -72.5q-12 -33 -28.5 -65t-32.5 -64l-25 -49q-16 -33 -37.5 -67t-48.5 -75t-56.5 -81
t-66.5 -74q-55 -55 -121 -82q-31 -16 -71 -17q-72 0 -134 62q-35 35 -57 69.5t-39 75.5q-33 76 -55.5 159t-38.5 161q-16 96 -29.5 197.5t-17.5 199.5q0 27 -1 51.5t-1 50.5zM287 420q0 -82 6 -158q6 -70 18.5 -136.5t34.5 -131.5l23 -51q16 53 34.5 103t36.5 99
q16 45 34 90.5t32 92.5q16 41 31.5 84t35.5 90q25 59 52.5 123.5t52.5 132.5q23 55 46.5 112.5t47.5 108.5q23 57 50.5 117.5t56.5 117.5q25 61 51 124t53 128q10 23 26.5 50.5t28.5 56.5q4 14 13 20q8 14 18 19q-49 41 -115 33l-59 -17q-55 -25 -101 -57.5t-87 -71.5
t-80 -86t-72 -94q-37 -55 -73 -124t-64 -132q-27 -66 -50.5 -131.5t-35.5 -136.5q-4 -31 -11.5 -62t-13.5 -61q0 -4 -2 -11.5t-2 -11.5q-8 -55 -12 -113.5t-4 -115.5zM313 -412q16 -25 41 -49q39 -37 88 -39q23 -2 52 8q45 18 81.5 48t67.5 67q23 27 43.5 53.5t38.5 55.5
q10 14 21.5 30.5t21.5 30.5h-27q-10 -4 -20 -10t-21 -12l-20 -11q-37 -16 -81 -19t-85 3q-23 6 -42 17.5t-38 25.5l-10 -31q-10 -27 -21.5 -45t-21.5 -53q-8 -10 -14.5 -21.5t-14.5 -27.5q-20 -20 -39 -21zM412 -131l4 -8q6 10 11 19t9 14q10 12 31 16q4 -10 5 -16.5
t-3 -16.5l-20 -53q37 -35 86 -43q27 -4 54 -2t50 12q25 10 52.5 23.5t47.5 27.5q35 25 67 60t54 75q27 51 49.5 108.5t42.5 111.5q0 8 4 12q35 86 63 181t50 188q27 98 49.5 207.5t32.5 213.5q10 66 14 135.5t6 135.5q-4 43 -9 86t-11 84q-10 35 -21.5 70.5t-29.5 66.5
l-13 14q0 -6 3 -6q-4 -12 -6.5 -20.5t-2.5 -14.5q-31 -63 -57.5 -119.5t-50.5 -115.5q-27 -53 -46.5 -107.5t-41.5 -113.5q-23 -45 -45.5 -95.5t-40.5 -103.5l-8 -21q-39 -98 -84 -205.5t-89 -215.5q-27 -76 -54 -150t-56 -149q-25 -68 -49.5 -137.5t-46.5 -147.5z" />
    <glyph glyph-name="Ugrave" unicode="&#xd9;" horiz-adv-x="761" 
d="M30 476.5q1 29.5 1 62.5v73q4 94 10 197.5t18 208.5q8 66 17.5 131t25.5 127l11 29l8 18v-2q8 14 22 16q8 4 13 0q4 -2 7 -9t-1 -11q-25 -35 -33 -75t-12 -81q0 -6 -2 -13t-2 -13q-23 -152 -29 -304.5t-6 -304.5q0 -100 9 -208.5t26 -206.5q6 -39 21.5 -86.5t31.5 -81.5
q8 -20 14 -27q12 -16 26.5 -27.5t29.5 -11.5q16 0 28 7t29 22q63 63 94 149q25 70 44.5 141.5t31.5 143.5q10 59 17 116.5t16 116.5q8 72 15 147t11 146q4 35 4 67t2 66q0 23 1 45.5t3 45.5q4 59 8.5 116.5t8.5 116.5q0 10 8 16q4 4 9 9.5t9 5.5q6 0 12.5 -5.5t10.5 -9.5
q8 -12 4 -28l-6 -109q-2 -23 -3 -52.5t-1 -49.5q-4 -90 -5 -177t-3 -175v-55.5t2 -55.5q4 -68 7 -135.5t7 -134.5q10 -121 28.5 -239t49.5 -234l6 -23l8 -23q0 -2 1 -3t1 -3q4 -12 10.5 -21t26.5 -14q14 -2 18.5 -23.5t-4.5 -37.5q-8 -8 -25.5 -9t-27.5 11q-25 25 -35 49
l-6 15q-8 20 -16 43.5t-12 46.5q-14 59 -27.5 120.5t-24.5 122.5q-8 41 -12 81t-10 81l-6 55l-15 48h-4q0 -4 -2 -11.5t-2 -11.5q-4 -8 -4 -16q-14 -78 -30.5 -155t-43.5 -148q-31 -96 -98 -179q-33 -39 -74 -55q-23 -10 -43 -7t-43 15q-37 20 -61 66q-27 53 -42 108.5
t-24 114.5q-10 72 -16 142.5t-10 142.5q-2 31 -1 60.5zM258 1608h2q-4 4 1 13.5t20 13.5q6 -2 19 -4t17 -6q16 -10 39 -54l25 -45q8 -10 4 -11t-13 2t-22.5 10t-23.5 18q-8 8 -17.5 16t-13.5 12q-6 6 -18.5 15.5t-18.5 19.5z" />
    <glyph glyph-name="Uacute" unicode="&#xda;" horiz-adv-x="761" 
d="M30 476.5q1 29.5 1 62.5v73q4 94 10 197.5t18 208.5q8 66 17.5 131t25.5 127l11 29l8 18v-2q8 14 22 16q8 4 13 0q4 -2 7 -9t-1 -11q-25 -35 -33 -75t-12 -81q0 -6 -2 -13t-2 -13q-23 -152 -29 -304.5t-6 -304.5q0 -100 9 -208.5t26 -206.5q6 -39 21.5 -86.5t31.5 -81.5
q8 -20 14 -27q12 -16 26.5 -27.5t29.5 -11.5q16 0 28 7t29 22q63 63 94 149q25 70 44.5 141.5t31.5 143.5q10 59 17 116.5t16 116.5q8 72 15 147t11 146q4 35 4 67t2 66q0 23 1 45.5t3 45.5q4 59 8.5 116.5t8.5 116.5q0 10 8 16q4 4 9 9.5t9 5.5q6 0 12.5 -5.5t10.5 -9.5
q8 -12 4 -28l-6 -109q-2 -23 -3 -52.5t-1 -49.5q-4 -90 -5 -177t-3 -175v-55.5t2 -55.5q4 -68 7 -135.5t7 -134.5q10 -121 28.5 -239t49.5 -234l6 -23l8 -23q0 -2 1 -3t1 -3q4 -12 10.5 -21t26.5 -14q14 -2 18.5 -23.5t-4.5 -37.5q-8 -8 -25.5 -9t-27.5 11q-25 25 -35 49
l-6 15q-8 20 -16 43.5t-12 46.5q-14 59 -27.5 120.5t-24.5 122.5q-8 41 -12 81t-10 81l-6 55l-15 48h-4q0 -4 -2 -11.5t-2 -11.5q-4 -8 -4 -16q-14 -78 -30.5 -155t-43.5 -148q-31 -96 -98 -179q-33 -39 -74 -55q-23 -10 -43 -7t-43 15q-37 20 -61 66q-27 53 -42 108.5
t-24 114.5q-10 72 -16 142.5t-10 142.5q-2 31 -1 60.5zM271 1525q0 8 8 17q12 10 49 49t70 72q6 8 16 8q20 0 20 -19q0 -10 -6 -16q-29 -33 -58.5 -65.5t-64.5 -61.5q-4 -4 -14 -4q-20 0 -20 20z" />
    <glyph glyph-name="Ucircumflex" unicode="&#xdb;" horiz-adv-x="761" 
d="M30 476.5q1 29.5 1 62.5v73q4 94 10 197.5t18 208.5q8 66 17.5 131t25.5 127l11 29l8 18v-2q8 14 22 16q8 4 13 0q4 -2 7 -9t-1 -11q-25 -35 -33 -75t-12 -81q0 -6 -2 -13t-2 -13q-23 -152 -29 -304.5t-6 -304.5q0 -100 9 -208.5t26 -206.5q6 -39 21.5 -86.5t31.5 -81.5
q8 -20 14 -27q12 -16 26.5 -27.5t29.5 -11.5q16 0 28 7t29 22q63 63 94 149q25 70 44.5 141.5t31.5 143.5q10 59 17 116.5t16 116.5q8 72 15 147t11 146q4 35 4 67t2 66q0 23 1 45.5t3 45.5q4 59 8.5 116.5t8.5 116.5q0 10 8 16q4 4 9 9.5t9 5.5q6 0 12.5 -5.5t10.5 -9.5
q8 -12 4 -28l-6 -109q-2 -23 -3 -52.5t-1 -49.5q-4 -90 -5 -177t-3 -175v-55.5t2 -55.5q4 -68 7 -135.5t7 -134.5q10 -121 28.5 -239t49.5 -234l6 -23l8 -23q0 -2 1 -3t1 -3q4 -12 10.5 -21t26.5 -14q14 -2 18.5 -23.5t-4.5 -37.5q-8 -8 -25.5 -9t-27.5 11q-25 25 -35 49
l-6 15q-8 20 -16 43.5t-12 46.5q-14 59 -27.5 120.5t-24.5 122.5q-8 41 -12 81t-10 81l-6 55l-15 48h-4q0 -4 -2 -11.5t-2 -11.5q-4 -8 -4 -16q-14 -78 -30.5 -155t-43.5 -148q-31 -96 -98 -179q-33 -39 -74 -55q-23 -10 -43 -7t-43 15q-37 20 -61 66q-27 53 -42 108.5
t-24 114.5q-10 72 -16 142.5t-10 142.5q-2 31 -1 60.5zM239 1491q0 4 11.5 20t26 36.5t28.5 39t20 24.5q0 2 5.5 3.5t9.5 1.5q27 0 51.5 -21.5t44.5 -46.5q8 -10 19.5 -22.5t19.5 -20.5q4 -4 4 -10q0 -16 -20 -17q-12 0 -25.5 13.5t-30.5 29.5q-2 0 -4 3l-4 6l-14 14
q-8 10 -16.5 18t-22.5 17q0 -4 -12.5 -21.5t-22.5 -32.5l-6 -6q-16 -20 -16 -30q-6 -18 -23 -19q-8 0 -15.5 6t-7.5 15z" />
    <glyph glyph-name="Udieresis" unicode="&#xdc;" horiz-adv-x="761" 
d="M30 476.5q1 29.5 1 62.5v73q4 94 10 197.5t18 208.5q8 66 17.5 131t25.5 127l11 29l8 18v-2q8 14 22 16q8 4 13 0q4 -2 7 -9t-1 -11q-25 -35 -33 -75t-12 -81q0 -6 -2 -13t-2 -13q-23 -152 -29 -304.5t-6 -304.5q0 -100 9 -208.5t26 -206.5q6 -39 21.5 -86.5t31.5 -81.5
q8 -20 14 -27q12 -16 26.5 -27.5t29.5 -11.5q16 0 28 7t29 22q63 63 94 149q25 70 44.5 141.5t31.5 143.5q10 59 17 116.5t16 116.5q8 72 15 147t11 146q4 35 4 67t2 66q0 23 1 45.5t3 45.5q4 59 8.5 116.5t8.5 116.5q0 10 8 16q4 4 9 9.5t9 5.5q6 0 12.5 -5.5t10.5 -9.5
q8 -12 4 -28l-6 -109q-2 -23 -3 -52.5t-1 -49.5q-4 -90 -5 -177t-3 -175v-55.5t2 -55.5q4 -68 7 -135.5t7 -134.5q10 -121 28.5 -239t49.5 -234l6 -23l8 -23q0 -2 1 -3t1 -3q4 -12 10.5 -21t26.5 -14q14 -2 18.5 -23.5t-4.5 -37.5q-8 -8 -25.5 -9t-27.5 11q-25 25 -35 49
l-6 15q-8 20 -16 43.5t-12 46.5q-14 59 -27.5 120.5t-24.5 122.5q-8 41 -12 81t-10 81l-6 55l-15 48h-4q0 -4 -2 -11.5t-2 -11.5q-4 -8 -4 -16q-14 -78 -30.5 -155t-43.5 -148q-31 -96 -98 -179q-33 -39 -74 -55q-23 -10 -43 -7t-43 15q-37 20 -61 66q-27 53 -42 108.5
t-24 114.5q-10 72 -16 142.5t-10 142.5q-2 31 -1 60.5zM221 1613q0 25 37 37h19q10 -2 19 -7t9 -17q0 -10 -4 -16.5t-8 -14.5q-6 -10 -14.5 -14t-14.5 -4q-16 0 -29.5 11t-13.5 25zM367 1593q4 16 20.5 35.5t30.5 19.5q18 0 35.5 -15t17.5 -32q0 -12 -15.5 -23.5
t-49.5 -11.5q-16 0 -27.5 7.5t-11.5 19.5z" />
    <glyph glyph-name="Yacute" unicode="&#xdd;" horiz-adv-x="935" 
d="M-41 678q0 41 2 83t6 87q10 123 31.5 251t69.5 244q2 10 22 31q12 12 16.5 12t14.5 -14q18 -18 6 -31q-72 -170 -90.5 -356t-18.5 -371v-77l7 -68q2 -10 6 -23.5t14 -17.5q12 -4 27.5 5t25.5 18q47 43 84 94t68 104q66 111 120 227.5t103 243.5q16 45 31.5 88t30.5 88
l49 140q8 18 13 36.5t11 36.5l13 37l8 21q10 16 26.5 18t28.5 -14v2q12 -20 18 -47q23 -76 35.5 -152t22.5 -153q14 -104 26.5 -216t24.5 -219l4 -41l6 -40q2 -23 25 -17q4 0 8 2t16 6l31 13q2 0 3 1t3 1q10 4 17 2q6 0 12 -6q0 -4 -1 -9.5t-3 -7.5q-10 -10 -17 -10l-47 -21
l-18 -6q-23 -12 -21 -32q8 -70 14.5 -137.5t10.5 -139.5t7 -143.5t3 -143.5q0 -53 -2 -111.5t-6 -111.5q-6 -104 -24.5 -210.5t-49.5 -209.5q-18 -59 -44.5 -118.5t-61.5 -114.5q-18 -27 -39 -50.5t-49 -41.5q-47 -31 -90 -31q-59 0 -113 57q-31 35 -50.5 73t-31.5 79
q-23 72 -32 145.5t-9 149.5q2 76 10.5 147.5t22.5 143.5q18 98 48 197.5t69 191.5q35 74 77.5 147.5t102.5 132.5q39 39 78 69t84 52q23 12 27.5 21.5t0.5 31.5q-10 76 -21 151t-24 148l-55 367l-6 37l-8 55l-9 10l-6 -6q-10 -18 -16 -38.5t-10 -39.5l-21 -71l-149 -367
q-29 -76 -71 -156.5t-87 -156.5q-29 -47 -60.5 -94.5t-68.5 -88.5q-18 -20 -39 -38h2l-16 -13q-27 -27 -72 -22q-37 6 -53 39q-18 72 -25.5 136t-7.5 130zM299 1632q0 8 8 17q12 10 49 49t70 72q6 8 16 8q20 0 20 -19q0 -10 -6 -16q-29 -33 -58.5 -65.5t-64.5 -61.5
q-4 -4 -14 -4q-20 0 -20 20zM301 -385.5q-2 -58.5 0 -118.5q4 -68 16.5 -137.5t40.5 -132.5q12 -27 30 -54.5t40 -45.5q35 -29 70 -29q31 0 61 18q29 16 49.5 38t36.5 48q45 68 74 143.5t49 157.5q20 84 32.5 171t16.5 173l12 275l-10 147l-12 191q-4 35 -7 69.5t-7 67.5
q-2 25 -27 14q-51 -29 -100.5 -68.5t-87.5 -82.5q-41 -51 -74 -112.5t-62 -125.5q-33 -78 -58.5 -156.5t-41.5 -160.5l-31 -174q-8 -57 -10 -115.5zM870 696l2 2z" />
    <glyph glyph-name="Thorn" unicode="&#xde;" horiz-adv-x="669" 
d="M80 1120q2 41 2 81v81q2 23 3 45.5t5 44.5q0 2 1 4t1 4l8 56q0 6 9 22v-2q4 4 4 10q4 6 11 11.5t11 1.5q16 -14 20.5 -37t-8.5 -31q-10 -8 -13 -22.5t-3 -24.5q-4 -49 -6 -98t-2 -99q4 -135 7 -267t7 -265q0 -4 1 -7t1 -7l2 -3q0 -2 1 -4t1 -4l11 6l6 21
q18 72 39.5 140.5t51.5 132t69.5 120.5t99.5 107q41 31 80 30q53 0 87 -34.5t58 -83.5q16 -41 24.5 -87.5t8.5 -87.5q0 -47 -8 -97t-25 -97q-20 -70 -64 -146.5t-85 -138.5q-37 -53 -80 -103t-92 -93q-33 -33 -68 -54h2q-43 -23 -64.5 -3t-25.5 73q0 39 13.5 77t35.5 73
q4 4 11.5 8t11.5 0q10 -10 0 -33l-7 -16q0 -2 -2 -4.5t-2 -4.5q-14 -29 -20 -57q-4 -14 -5 -26.5t-1 -28.5q0 -23 24 -19l15 9q74 57 140.5 133.5t119.5 166t87 186.5t44 198q0 94 -45 178q-47 78 -121 47q-23 -14 -46.5 -29.5t-35.5 -34.5q-49 -63 -93 -149t-71 -178
q-16 -51 -28.5 -108.5t-22.5 -108.5q-2 -12 -2 -27.5v-28.5v-47v-13t-4 -11q-12 -10 -15.5 -25.5t-1.5 -30.5v-102q6 -117 5.5 -232.5t21.5 -228.5q0 -16 -1 -29.5t-3 -29.5q0 -16 -6 -26.5t-12 -10.5q-12 0 -19.5 7t-9.5 17l-4 43q-8 104 -14.5 208t-8.5 208
q0 248 -10 492.5t-6 492.5z" />
    <glyph glyph-name="germandbls" unicode="&#xdf;" horiz-adv-x="940" 
d="M70 -31q4 53 5 112.5t5 119.5q16 219 65 432q16 70 35 136.5t41 131.5q49 145 113 275q23 53 51.5 103t65.5 91q10 10 18 19.5t18 17.5q37 31 76 21.5t62 -52.5q18 -33 22 -66.5t4 -68.5q4 -90 -10 -177t-49 -173q-29 -84 -69 -161t-85 -148q-35 -53 -67.5 -108.5
t-67.5 -113.5q0 -2 -2 -2t-2 -2q-2 -10 -2 -17t-4 -15q27 0 33 4l112 32q49 16 98.5 23.5t102.5 3.5q57 -4 101 -25.5t69 -74.5q16 -29 18 -58.5t-2 -58.5q-10 -68 -40.5 -123t-69.5 -106q-57 -74 -127 -131q-41 -35 -84 -67t-86 -62q-25 -18 -51.5 -33t-53.5 -29
q-12 -4 -24.5 -9t-28.5 -5q-29 0 -41 19.5t-2 45.5q12 29 47 49.5t70 18.5q6 0 8 -4q18 -16 34.5 -8t29.5 18l92 72q43 35 84 73.5t75 81.5q29 37 54.5 76t42.5 82q10 29 14 57.5t-2 59.5q-8 31 -30.5 50t-57.5 28q-37 10 -76 10t-76 -6q-47 -6 -94 -19.5t-92 -29.5l-47 -9
q-37 0 -52.5 20.5t-0.5 55.5q12 23 23 48.5t26 47.5l69 111q29 43 53.5 85t49.5 85q59 115 102 238q25 84 34 166.5t-1 166.5q-4 16 -10 32.5t-13 29.5q-16 41 -47 12q-20 -14 -34.5 -31.5t-28.5 -33.5q-37 -51 -64.5 -106.5t-52.5 -115.5q-23 -59 -47.5 -119.5
t-42.5 -123.5q-27 -78 -46.5 -155t-31.5 -157q-8 -45 -17 -87t-14 -85q-6 -72 -14 -142.5t-4 -141.5q0 -47 -2 -93.5t-2 -93.5q4 -61 7 -123.5t7 -128.5q6 -72 14.5 -143.5t24.5 -142.5q4 -16 10.5 -31.5t10.5 -32.5q2 -10 2 -31q0 -4 -4 -10t-9 -6q-10 -6 -22 6
q-8 2 -12 17q-18 43 -27.5 86t-17.5 86q-16 102 -22.5 202.5t-10.5 204.5q0 55 -6 133z" />
    <glyph glyph-name="agrave" unicode="&#xe0;" 
d="M-35 113q16 78 52 153.5t92 134.5q12 12 24 19.5t25 15.5q35 20 61 -10q16 -18 25 -39q16 -37 -29 -47q-18 -4 -18 -18q-2 -12 -3 -29t-1 -31q0 -39 10 -67q12 -29 34.5 -46.5t51.5 -3.5q23 10 42 23.5t36 30.5q14 14 35.5 42.5t27.5 39.5l12 28v-4q23 33 28 20.5
t-32 -94.5l-10 -18v2l-8 -12q-27 -29 -64 -55.5t-71 -36.5q-35 -8 -66 5t-47 42l-4 4l-4 10q-8 16 -21 -4q-10 -23 -24.5 -45.5t-26.5 -44.5q-18 -25 -47 -47q-18 -16 -44 -10t-30 30q-4 12 -5 30.5t-1 31.5zM4 86l6 -20q2 0 4 1t4 1q4 2 8.5 2t8.5 6q2 4 5 6t5 6v-2
q10 12 21.5 26.5t21.5 34.5q23 41 39 87.5t27 93.5q8 27 22 34q12 6 19 15q4 4 4 10t-2 8q-8 8 -19 8q-6 -2 -13 -5t-11 -7q-10 -10 -21.5 -22.5t-21.5 -22.5q-35 -41 -58.5 -93t-40.5 -106l-8 -41v-20zM131 860h2q-4 4 1 13.5t20 13.5q6 -2 19 -4t17 -6q16 -10 39 -54
l25 -45q8 -10 4 -11t-13 2t-22.5 10t-23.5 18q-8 8 -17.5 16t-13.5 12q-6 6 -18.5 15.5t-18.5 19.5z" />
    <glyph glyph-name="aacute" unicode="&#xe1;" 
d="M-35 113q16 78 52 153.5t92 134.5q12 12 24 19.5t25 15.5q35 20 61 -10q16 -18 25 -39q16 -37 -29 -47q-18 -4 -18 -18q-2 -12 -3 -29t-1 -31q0 -39 10 -67q12 -29 34.5 -46.5t51.5 -3.5q23 10 42 23.5t36 30.5q14 14 35.5 42.5t27.5 39.5l12 28v-4q23 33 28 20.5
t-32 -94.5l-10 -18v2l-8 -12q-27 -29 -64 -55.5t-71 -36.5q-35 -8 -66 5t-47 42l-4 4l-4 10q-8 16 -21 -4q-10 -23 -24.5 -45.5t-26.5 -44.5q-18 -25 -47 -47q-18 -16 -44 -10t-30 30q-4 12 -5 30.5t-1 31.5zM4 86l6 -20q2 0 4 1t4 1q4 2 8.5 2t8.5 6q2 4 5 6t5 6v-2
q10 12 21.5 26.5t21.5 34.5q23 41 39 87.5t27 93.5q8 27 22 34q12 6 19 15q4 4 4 10t-2 8q-8 8 -19 8q-6 -2 -13 -5t-11 -7q-10 -10 -21.5 -22.5t-21.5 -22.5q-35 -41 -58.5 -93t-40.5 -106l-8 -41v-20zM121 698q0 8 8 17q12 10 49 49t70 72q6 8 16 8q20 0 20 -19
q0 -10 -6 -16q-29 -33 -58.5 -65.5t-64.5 -61.5q-4 -4 -14 -4q-20 0 -20 20z" />
    <glyph glyph-name="acircumflex" unicode="&#xe2;" 
d="M-35 113q16 78 52 153.5t92 134.5q12 12 24 19.5t25 15.5q35 20 61 -10q16 -18 25 -39q16 -37 -29 -47q-18 -4 -18 -18q-2 -12 -3 -29t-1 -31q0 -39 10 -67q12 -29 34.5 -46.5t51.5 -3.5q23 10 42 23.5t36 30.5q14 14 35.5 42.5t27.5 39.5l12 28v-4q23 33 28 20.5
t-32 -94.5l-10 -18v2l-8 -12q-27 -29 -64 -55.5t-71 -36.5q-35 -8 -66 5t-47 42l-4 4l-4 10q-8 16 -21 -4q-10 -23 -24.5 -45.5t-26.5 -44.5q-18 -25 -47 -47q-18 -16 -44 -10t-30 30q-4 12 -5 30.5t-1 31.5zM4 86l6 -20q2 0 4 1t4 1q4 2 8.5 2t8.5 6q2 4 5 6t5 6v-2
q10 12 21.5 26.5t21.5 34.5q23 41 39 87.5t27 93.5q8 27 22 34q12 6 19 15q4 4 4 10t-2 8q-8 8 -19 8q-6 -2 -13 -5t-11 -7q-10 -10 -21.5 -22.5t-21.5 -22.5q-35 -41 -58.5 -93t-40.5 -106l-8 -41v-20zM84 709q0 4 11.5 20t26 36.5t28.5 39t20 24.5q0 2 5.5 3.5t9.5 1.5
q27 0 51.5 -21.5t44.5 -46.5q8 -10 19.5 -22.5t19.5 -20.5q4 -4 4 -10q0 -16 -20 -17q-12 0 -25.5 13.5t-30.5 29.5q-2 0 -4 3l-4 6l-14 14q-8 10 -16.5 18t-22.5 17q0 -4 -12.5 -21.5t-22.5 -32.5l-6 -6q-16 -20 -16 -30q-6 -18 -23 -19q-8 0 -15.5 6t-7.5 15z" />
    <glyph glyph-name="atilde" unicode="&#xe3;" 
d="M-35 113q16 78 52 153.5t92 134.5q12 12 24 19.5t25 15.5q35 20 61 -10q16 -18 25 -39q16 -37 -29 -47q-18 -4 -18 -18q-2 -12 -3 -29t-1 -31q0 -39 10 -67q12 -29 34.5 -46.5t51.5 -3.5q23 10 42 23.5t36 30.5q14 14 35.5 42.5t27.5 39.5l12 28v-4q23 33 28 20.5
t-32 -94.5l-10 -18v2l-8 -12q-27 -29 -64 -55.5t-71 -36.5q-35 -8 -66 5t-47 42l-4 4l-4 10q-8 16 -21 -4q-10 -23 -24.5 -45.5t-26.5 -44.5q-18 -25 -47 -47q-18 -16 -44 -10t-30 30q-4 12 -5 30.5t-1 31.5zM4 86l6 -20q2 0 4 1t4 1q4 2 8.5 2t8.5 6q2 4 5 6t5 6v-2
q10 12 21.5 26.5t21.5 34.5q23 41 39 87.5t27 93.5q8 27 22 34q12 6 19 15q4 4 4 10t-2 8q-8 8 -19 8q-6 -2 -13 -5t-11 -7q-10 -10 -21.5 -22.5t-21.5 -22.5q-35 -41 -58.5 -93t-40.5 -106l-8 -41v-20zM47 698q4 14 16 29.5t26.5 28t29 19.5t24.5 7q23 0 55 -32
q6 -2 15 -15q10 -12 23.5 -26.5t27.5 -14.5q23 0 36 16.5t23 32.5q6 10 13.5 19.5t17.5 9.5q6 0 12 -5t6 -13q0 -4 -2 -6l-47 -62q-12 -16 -24.5 -23.5t-22.5 -7.5q-23 0 -43 17.5t-39 36.5q-14 16 -26.5 27.5t-26.5 11.5q-10 0 -29.5 -19t-23.5 -35q-6 -16 -21 -16
q-16 0 -20 20z" />
    <glyph glyph-name="adieresis" unicode="&#xe4;" 
d="M-35 113q16 78 52 153.5t92 134.5q12 12 24 19.5t25 15.5q35 20 61 -10q16 -18 25 -39q16 -37 -29 -47q-18 -4 -18 -18q-2 -12 -3 -29t-1 -31q0 -39 10 -67q12 -29 34.5 -46.5t51.5 -3.5q23 10 42 23.5t36 30.5q14 14 35.5 42.5t27.5 39.5l12 28v-4q23 33 28 20.5
t-32 -94.5l-10 -18v2l-8 -12q-27 -29 -64 -55.5t-71 -36.5q-35 -8 -66 5t-47 42l-4 4l-4 10q-8 16 -21 -4q-10 -23 -24.5 -45.5t-26.5 -44.5q-18 -25 -47 -47q-18 -16 -44 -10t-30 30q-4 12 -5 30.5t-1 31.5zM4 86l6 -20q2 0 4 1t4 1q4 2 8.5 2t8.5 6q2 4 5 6t5 6v-2
q10 12 21.5 26.5t21.5 34.5q23 41 39 87.5t27 93.5q8 27 22 34q12 6 19 15q4 4 4 10t-2 8q-8 8 -19 8q-6 -2 -13 -5t-11 -7q-10 -10 -21.5 -22.5t-21.5 -22.5q-35 -41 -58.5 -93t-40.5 -106l-8 -41v-20zM59 700q0 25 37 37h19q10 -2 19 -7t9 -17q0 -10 -4 -16.5t-8 -14.5
q-6 -10 -14.5 -14t-14.5 -4q-16 0 -29.5 11t-13.5 25zM205 680q4 16 20.5 35.5t30.5 19.5q18 0 35.5 -15t17.5 -32q0 -12 -15.5 -23.5t-49.5 -11.5q-16 0 -27.5 7.5t-11.5 19.5z" />
    <glyph glyph-name="aring" unicode="&#xe5;" 
d="M-35 113q16 78 52 153.5t92 134.5q12 12 24 19.5t25 15.5q35 20 61 -10q16 -18 25 -39q16 -37 -29 -47q-18 -4 -18 -18q-2 -12 -3 -29t-1 -31q0 -39 10 -67q12 -29 34.5 -46.5t51.5 -3.5q23 10 42 23.5t36 30.5q14 14 35.5 42.5t27.5 39.5l12 28v-4q23 33 28 20.5
t-32 -94.5l-10 -18v2l-8 -12q-27 -29 -64 -55.5t-71 -36.5q-35 -8 -66 5t-47 42l-4 4l-4 10q-8 16 -21 -4q-10 -23 -24.5 -45.5t-26.5 -44.5q-18 -25 -47 -47q-18 -16 -44 -10t-30 30q-4 12 -5 30.5t-1 31.5zM4 86l6 -20q2 0 4 1t4 1q4 2 8.5 2t8.5 6q2 4 5 6t5 6v-2
q10 12 21.5 26.5t21.5 34.5q23 41 39 87.5t27 93.5q8 27 22 34q12 6 19 15q4 4 4 10t-2 8q-8 8 -19 8q-6 -2 -13 -5t-11 -7q-10 -10 -21.5 -22.5t-21.5 -22.5q-35 -41 -58.5 -93t-40.5 -106l-8 -41v-20zM131 733q0 29 16 39q6 16 29.5 21.5t40.5 5.5q41 0 58 -24.5t17 -53.5
q0 -33 -18 -54.5t-47 -21.5q-41 0 -68.5 27.5t-27.5 60.5zM170 727q0 -12 18 -28.5t37 -16.5q31 0 31 37q0 12 -10.5 25.5t-39.5 13.5h-6l-14 -10q-4 -2 -10 -8.5t-6 -12.5z" />
    <glyph glyph-name="ae" unicode="&#xe6;" horiz-adv-x="770" 
d="M145 96q16 78 52 154t92 135q12 12 24.5 19.5t24.5 15.5q35 20 61 -10q16 -18 25 -39q16 -37 -29 -47q-18 -4 -18 -19q-2 -12 -3 -28.5t-1 -30.5q0 -39 10 -68q2 -12 14 -28q6 74 32 150.5t65 145.5q29 45 75 27q14 -8 26.5 -24.5t14.5 -36.5q0 -33 -14 -72
q-8 -16 -22.5 -35.5t-31 -37t-32.5 -29t-29 -13.5q-18 -4 -22 -8t-4 -12q0 -33 -5.5 -66t3.5 -63q0 -2 1 -4t1 -4q10 -35 26.5 -40t42.5 -1q27 8 49.5 19t40.5 24q35 25 60.5 49t48.5 53q14 23 32.5 45.5t28.5 48.5q14 29 37 29q6 -4 5 -15.5t-15 -37.5v2
q-51 -78 -118.5 -149.5t-164.5 -102.5q-14 -2 -31.5 -1t-33.5 9q-25 10 -40 34.5t-20 53.5l-24 23q-18 14 -27 30l-4 4l-4 11q-8 16 -20 -4q-10 -23 -24.5 -45.5t-27.5 -45.5q-18 -25 -47 -47q-18 -16 -43.5 -10t-29.5 31q-4 12 -5.5 30.5t-1.5 30.5zM184 70l6 -21
q2 0 4.5 1t4.5 1q4 2 8 2t8 6q2 4 5 6.5t5 6.5v-2q10 12 21.5 26.5t21.5 34.5q23 41 39.5 87t26.5 93q8 27 22 35q12 6 19 14q4 4 4 10.5t-2 8.5q-8 8 -19 8q-6 -2 -13 -5t-11 -7q-10 -10 -21.5 -22.5t-21.5 -22.5q-35 -41 -58.5 -93.5t-39.5 -105.5l-9 -41v-20zM472 284
q1 -1 1 -5v-7q23 10 31 18.5t20 22.5q35 47 37 99v4l-2 12l-20 2l-13 -10q-18 -35 -29.5 -64.5t-21.5 -58.5q-2 -4 -2 -6v-2q-2 -4 -1 -5z" />
    <glyph glyph-name="ccedilla" unicode="&#xe7;" horiz-adv-x="462" 
d="M12 154q2 45 10.5 89t18.5 85q18 66 46 128t67 122q23 27 57 43q35 10 51 -25q12 -23 17.5 -48.5t7.5 -51.5q6 -133 -29 -273q-12 -18 -20.5 -15t-11.5 16.5t-2 29.5t5 27q16 76 17 149q0 25 -2 51.5t-6 50.5l-11 39q-12 18 -26 7l-8 -11q4 4 -1.5 -4t-9.5 -12
q-20 -29 -37.5 -67t-29.5 -74q-23 -57 -37.5 -117t-18.5 -121v-31.5t2 -27.5q2 -29 8.5 -58.5t22.5 -50.5q16 -16 41 -23.5t49 -3.5q45 6 81 27t67 47q39 35 62.5 67t49.5 70q27 31 52 72q29 20 21.5 -6.5t-42.5 -83.5q-12 -14 -22.5 -28.5t-20.5 -28.5q-33 -49 -70 -86
q-27 -29 -61.5 -48.5t-73.5 -29.5q8 -10 11.5 -20.5t3.5 -18.5q0 -20 -12.5 -42t-32 -40t-43 -32.5t-46.5 -20.5q-10 2 -19 8t-9 14q0 10 10 16.5t21 12.5l6 4q23 10 49 28.5t26 59.5l-6 4q-2 2 -6 2l-10 15q-8 -2 -23 -2q-31 2 -65.5 26.5t-46.5 52.5q-20 63 -21 138z" />
    <glyph glyph-name="egrave" unicode="&#xe8;" horiz-adv-x="372" 
d="M0 147q6 76 31.5 153t64.5 146q29 45 76 27q14 -8 26.5 -24.5t14.5 -36.5q0 -33 -14 -72q-8 -16 -22.5 -35.5t-31 -37t-33 -29t-28.5 -13.5q-18 -4 -23 -8q-4 -4 -4 -12q0 -33 -5 -66t3 -63q0 -2 1 -4t1 -4q10 -35 26.5 -40t43.5 -1q27 8 49.5 19t40.5 24q35 25 60.5 49
t48.5 53q14 23 32.5 45.5t28.5 48.5q14 29 37 29q6 -4 5 -15.5t-15 -37.5v2q-51 -78 -119 -149.5t-164 -102.5q-14 -2 -31.5 -1t-33.5 9q-25 10 -40.5 34.5t-19.5 53.5q-6 31 -6 59zM75 284q1 -1 1 -5v-7q23 10 31 18.5t20 22.5q35 47 37 99v4l-2 12l-21 2l-12 -10
q-18 -35 -29.5 -64.5t-21.5 -58.5q-2 -4 -2 -6v-2q-2 -4 -1 -5zM115 860h2q-4 4 1 13.5t20 13.5q6 -2 19 -4t17 -6q16 -10 39 -54l25 -45q8 -10 4 -11t-13 2t-22.5 10t-23.5 18q-8 8 -17.5 16t-13.5 12q-6 6 -18.5 15.5t-18.5 19.5z" />
    <glyph glyph-name="eacute" unicode="&#xe9;" horiz-adv-x="372" 
d="M0 147q6 76 31.5 153t64.5 146q29 45 76 27q14 -8 26.5 -24.5t14.5 -36.5q0 -33 -14 -72q-8 -16 -22.5 -35.5t-31 -37t-33 -29t-28.5 -13.5q-18 -4 -23 -8q-4 -4 -4 -12q0 -33 -5 -66t3 -63q0 -2 1 -4t1 -4q10 -35 26.5 -40t43.5 -1q27 8 49.5 19t40.5 24q35 25 60.5 49
t48.5 53q14 23 32.5 45.5t28.5 48.5q14 29 37 29q6 -4 5 -15.5t-15 -37.5v2q-51 -78 -119 -149.5t-164 -102.5q-14 -2 -31.5 -1t-33.5 9q-25 10 -40.5 34.5t-19.5 53.5q-6 31 -6 59zM75 284q1 -1 1 -5v-7q23 10 31 18.5t20 22.5q35 47 37 99v4l-2 12l-21 2l-12 -10
q-18 -35 -29.5 -64.5t-21.5 -58.5q-2 -4 -2 -6v-2q-2 -4 -1 -5zM105 698q0 8 8 17q12 10 49 49t70 72q6 8 16 8q20 0 20 -19q0 -10 -6 -16q-29 -33 -58.5 -65.5t-64.5 -61.5q-4 -4 -14 -4q-20 0 -20 20z" />
    <glyph glyph-name="ecircumflex" unicode="&#xea;" horiz-adv-x="372" 
d="M0 147q6 76 31.5 153t64.5 146q29 45 76 27q14 -8 26.5 -24.5t14.5 -36.5q0 -33 -14 -72q-8 -16 -22.5 -35.5t-31 -37t-33 -29t-28.5 -13.5q-18 -4 -23 -8q-4 -4 -4 -12q0 -33 -5 -66t3 -63q0 -2 1 -4t1 -4q10 -35 26.5 -40t43.5 -1q27 8 49.5 19t40.5 24q35 25 60.5 49
t48.5 53q14 23 32.5 45.5t28.5 48.5q14 29 37 29q6 -4 5 -15.5t-15 -37.5v2q-51 -78 -119 -149.5t-164 -102.5q-14 -2 -31.5 -1t-33.5 9q-25 10 -40.5 34.5t-19.5 53.5q-6 31 -6 59zM67 709q0 4 11.5 20t26 36.5t28.5 39t20 24.5q0 2 5.5 3.5t9.5 1.5q27 0 51.5 -21.5
t44.5 -46.5q8 -10 19.5 -22.5t19.5 -20.5q4 -4 4 -10q0 -16 -20 -17q-12 0 -25.5 13.5t-30.5 29.5q-2 0 -4 3l-4 6l-14 14q-8 10 -16.5 18t-22.5 17q0 -4 -12.5 -21.5t-22.5 -32.5l-6 -6q-16 -20 -16 -30q-6 -18 -23 -19q-8 0 -15.5 6t-7.5 15zM75 284q1 -1 1 -5v-7
q23 10 31 18.5t20 22.5q35 47 37 99v4l-2 12l-21 2l-12 -10q-18 -35 -29.5 -64.5t-21.5 -58.5q-2 -4 -2 -6v-2q-2 -4 -1 -5z" />
    <glyph glyph-name="edieresis" unicode="&#xeb;" horiz-adv-x="372" 
d="M0 147q6 76 31.5 153t64.5 146q29 45 76 27q14 -8 26.5 -24.5t14.5 -36.5q0 -33 -14 -72q-8 -16 -22.5 -35.5t-31 -37t-33 -29t-28.5 -13.5q-18 -4 -23 -8q-4 -4 -4 -12q0 -33 -5 -66t3 -63q0 -2 1 -4t1 -4q10 -35 26.5 -40t43.5 -1q27 8 49.5 19t40.5 24q35 25 60.5 49
t48.5 53q14 23 32.5 45.5t28.5 48.5q14 29 37 29q6 -4 5 -15.5t-15 -37.5v2q-51 -78 -119 -149.5t-164 -102.5q-14 -2 -31.5 -1t-33.5 9q-25 10 -40.5 34.5t-19.5 53.5q-6 31 -6 59zM61 700q0 25 37 37h19q10 -2 19 -7t9 -17q0 -10 -4 -16.5t-8 -14.5q-6 -10 -14.5 -14
t-14.5 -4q-16 0 -29.5 11t-13.5 25zM75 284q1 -1 1 -5v-7q23 10 31 18.5t20 22.5q35 47 37 99v4l-2 12l-21 2l-12 -10q-18 -35 -29.5 -64.5t-21.5 -58.5q-2 -4 -2 -6v-2q-2 -4 -1 -5zM207 680q4 16 20.5 35.5t30.5 19.5q18 0 35.5 -15t17.5 -32q0 -12 -15.5 -23.5
t-49.5 -11.5q-16 0 -27.5 7.5t-11.5 19.5z" />
    <glyph glyph-name="igrave" unicode="&#xec;" horiz-adv-x="182" 
d="M-55 664h2q-4 4 1 13t19 13q6 -2 19.5 -4t17.5 -6q16 -10 39 -53l25 -45q8 -10 4 -11.5t-13.5 1.5t-22.5 10.5t-24 17.5q-8 8 -17 16.5t-13 12.5q-6 6 -18.5 15t-18.5 20zM20 246q0 33 2.5 63.5t8.5 59.5q-2 20 9 31.5t22.5 11.5t18.5 -11.5t-1 -35.5q-4 -39 -6 -81
t-2 -81q0 -57 6 -107q8 -18 26 -24h-2l15 -17l-11 -14h-2q-23 -14 -41 2q-26 16 -28 43q-6 39 -10.5 79t-4.5 81z" />
    <glyph glyph-name="iacute" unicode="&#xed;" horiz-adv-x="182" 
d="M20 246q0 33 2.5 63.5t8.5 59.5q-2 20 9 31.5t22.5 11.5t18.5 -11.5t-1 -35.5q-4 -39 -6 -81t-2 -81q0 -57 6 -107q8 -18 26 -24h-2l15 -17l-11 -14h-2q-23 -14 -41 2q-26 16 -28 43q-6 39 -10.5 79t-4.5 81zM57 555q0 8 9 16q12 10 48.5 49t69.5 72q6 8 17 8
q20 0 20 -18q0 -10 -6 -16q-29 -33 -58.5 -66t-64.5 -61q-4 -4 -14 -4q-20 0 -21 20z" />
    <glyph glyph-name="icircumflex" unicode="&#xee;" horiz-adv-x="182" 
d="M-53 532q0 4 11 20.5t25.5 37t29 39t20.5 24.5q0 2 5 3t9 1q27 0 51.5 -21.5t44.5 -45.5q8 -10 19.5 -22.5t19.5 -20.5q4 -4 4 -10q0 -16 -20 -17q-12 0 -25.5 13.5l-29.5 29.5q-2 0 -4.5 3t-4.5 5l-14 15q-8 10 -16.5 18t-22.5 17q0 -4 -12 -21.5t-23 -32.5l-6 -6
q-16 -21 -16 -31q-6 -18 -23 -18q-8 0 -15 6t-7 14zM20 246q0 33 2.5 63.5t8.5 59.5q-2 20 9 31.5t22.5 11.5t18.5 -11.5t-1 -35.5q-4 -39 -6 -81t-2 -81q0 -57 6 -107q8 -18 26 -24h-2l15 -17l-11 -14h-2q-23 -14 -41 2q-26 16 -28 43q-6 39 -10.5 79t-4.5 81z" />
    <glyph glyph-name="idieresis" unicode="&#xef;" horiz-adv-x="182" 
d="M-18 610q0 18 30 29h15q8 -2 15 -5t7 -13q0 -8 -3 -13.5t-7 -11.5q-8 -14 -23 -14q-14 0 -24 9t-10 19zM20 246q0 33 2.5 63.5t8.5 59.5q-2 20 9 31.5t22.5 11.5t18.5 -11.5t-1 -35.5q-4 -39 -6 -81t-2 -81q0 -57 6 -107q8 -18 26 -24h-2l15 -17l-11 -14h-2
q-23 -14 -41 2q-26 16 -28 43q-6 39 -10.5 79t-4.5 81zM96 594q4 14 17.5 28.5t23.5 14.5q14 0 27.5 -11.5t13.5 -25.5q0 -10 -11 -18.5t-40 -8.5q-12 0 -21.5 5.5t-9.5 15.5z" />
    <glyph glyph-name="eth" unicode="&#xf0;" horiz-adv-x="366" 
d="M12 111q0 33 3 64.5t14 62.5q10 43 19 85t30 80q8 14 16 28.5t21 25.5q23 23 48 20.5t48 -26.5q8 -12 12 -24.5t13 -25.5q4 -4 6 -12t6 -14q0 -2 3 -2t3 2q4 6 7 14t7 12q23 66 37 136.5t29 140.5q10 86 15 170t1 170q-2 33 -6 59.5t-16 55.5q-2 10 -3 14t-6 10
q-35 68 -102 47q-68 -16 -108 -69q-6 -6 -9.5 -11.5t-7.5 -9.5t-10 -5t-8 3q-10 4 -12.5 10t-0.5 13q4 10 7.5 15t7.5 9q27 35 57.5 58.5t71.5 33.5q55 12 94 -8t70 -92q18 -47 23 -98.5t7 -102.5q-2 -12 -2 -21.5t-2 -13.5q2 -47 -1 -88t-7 -82q-8 -72 -21.5 -140
t-31.5 -140q-23 -78 -48.5 -152.5t-60.5 -146.5q-18 -37 -40.5 -72t-53.5 -63q-14 -10 -37 -23q-39 -14 -67 25q-16 37 -15 78zM57 90q0 -4 1 -8t1 -6q8 -31 31 -15q16 12 28.5 28.5t22.5 31.5q29 39 49.5 83t36.5 89q4 10 4 17t-14 16q-4 4 -7 13t-7 19q-6 37 -27 60
q-10 10 -15 11t-16 -9q-16 -16 -28.5 -38t-16.5 -48q-16 -47 -25 -95.5t-18 -97.5v-51z" />
    <glyph glyph-name="ntilde" unicode="&#xf1;" horiz-adv-x="636" 
d="M29 442q0 74 5 148t19 145q12 25 29 17q18 -2 12 -25q-4 -16 -7 -36.5t-3 -37.5q-4 -43 -6 -89t-2 -91q0 -59 1 -121.5t5 -120.5v-10q2 -31 3 -61.5t5 -59.5l4 -53l6 -8q10 16 19.5 41.5t13.5 42.5l17 55l10 35q10 35 22.5 72t24.5 71q10 27 22.5 56.5t24.5 54.5
q6 16 26.5 20.5t34.5 -10.5q14 -25 20.5 -52.5t12.5 -51.5l12 -51q16 -63 46 -119q10 -23 25 -44.5t38 -35.5q29 -23 70 2q25 18 44 36.5t50 55.5q37 29 42 17.5t-11 -39.5q-20 -31 -49 -57.5t-58 -47.5q-25 -18 -55.5 -19t-55.5 15q-37 27 -59 61q-23 31 -38 69t-25 69
l-33 141q-6 6 -6 12q-4 -4 -11 -14q-14 -29 -25 -61.5t-22 -61.5l-45 -158l-20 -65q-10 -35 -21.5 -71t-34.5 -58q-12 -6 -18 -2q-6 2 -13 7t-12 13l-2 8q-8 35 -12 75t-6 77q-4 80 -9 157.5t-5 157.5zM156 698q4 14 16 29.5t26.5 28t29 19.5t24.5 7q23 0 55 -32
q6 -2 15 -15q10 -12 23.5 -26.5t27.5 -14.5q23 0 36 16.5t23 32.5q6 10 13.5 19.5t17.5 9.5q6 0 12 -5t6 -13q0 -4 -2 -6l-47 -62q-12 -16 -24.5 -23.5t-22.5 -7.5q-23 0 -43 17.5t-39 36.5q-14 16 -26.5 27.5t-26.5 11.5q-10 0 -29.5 -19t-23.5 -35q-6 -16 -21 -16
q-16 0 -20 20z" />
    <glyph glyph-name="ograve" unicode="&#xf2;" horiz-adv-x="315" 
d="M14 102q0 43 6.5 86t16.5 86q10 35 20 58q12 25 34 31t48 -11q23 -12 41 -35q0 -2 3 -4t5 -4q8 -16 -8 -20q-4 -2 -14 -2l4 -13q4 -14 7 -20t11 -18q4 -4 4.5 -12.5t4.5 -4.5q2 -2 14 -4t30.5 1t39 12.5t38.5 29.5q10 10 25.5 20.5t24.5 6.5q10 -6 3 -22.5t-26.5 -34
t-48.5 -32t-61 -16.5q-20 0 -38 2t-18 -16q0 -70 -39 -135q-8 -16 -22.5 -26.5t-29.5 -13.5t-30.5 1t-23.5 20q-12 23 -16.5 45.5t-4.5 44.5zM43 596h2q-4 4 1 13.5t20 13.5q6 -2 19 -4t17 -6q16 -10 39 -54l25 -45q8 -10 4 -11t-13 2t-22.5 10t-23.5 18q-8 8 -17.5 16
t-13.5 12q-6 6 -18.5 15.5t-18.5 19.5zM59 82q-4 -29 4 -47q12 -29 23.5 -16.5t22.5 32.5q18 39 23 78t9 86q4 16 -4 26.5t-26 24.5q-6 4 -15.5 8.5t-13.5 -12.5l-8 -47q-4 -33 -9.5 -65.5t-5.5 -67.5z" />
    <glyph glyph-name="oacute" unicode="&#xf3;" horiz-adv-x="315" 
d="M14 102q0 43 6.5 86t16.5 86q10 35 20 58q12 25 34 31t48 -11q23 -12 41 -35q0 -2 3 -4t5 -4q8 -16 -8 -20q-4 -2 -14 -2l4 -13q4 -14 7 -20t11 -18q4 -4 4.5 -12.5t4.5 -4.5q2 -2 14 -4t30.5 1t39 12.5t38.5 29.5q10 10 25.5 20.5t24.5 6.5q10 -6 3 -22.5t-26.5 -34
t-48.5 -32t-61 -16.5q-20 0 -38 2t-18 -16q0 -70 -39 -135q-8 -16 -22.5 -26.5t-29.5 -13.5t-30.5 1t-23.5 20q-12 23 -16.5 45.5t-4.5 44.5zM59 82q-4 -29 4 -47q12 -29 23.5 -16.5t22.5 32.5q18 39 23 78t9 86q4 16 -4 26.5t-26 24.5q-6 4 -15.5 8.5t-13.5 -12.5l-8 -47
q-4 -33 -9.5 -65.5t-5.5 -67.5zM66 544q0 8 8 17q12 10 49 49t70 72q6 8 16 8q20 0 20 -19q0 -10 -6 -16q-29 -33 -58.5 -65.5t-64.5 -61.5q-4 -4 -14 -4q-20 0 -20 20z" />
    <glyph glyph-name="ocircumflex" unicode="&#xf4;" horiz-adv-x="315" 
d="M-3 502q0 4 11.5 20t26 36.5t28.5 39t20 24.5q0 2 5.5 3.5t9.5 1.5q27 0 51.5 -21.5t44.5 -46.5q8 -10 19.5 -22.5t19.5 -20.5q4 -4 4 -10q0 -16 -20 -17q-12 0 -25.5 13.5t-30.5 29.5q-2 0 -4 3l-4 6l-14 14q-8 10 -16.5 18t-22.5 17q0 -4 -12.5 -21.5t-22.5 -32.5
l-6 -6q-16 -20 -16 -30q-6 -18 -23 -19q-8 0 -15.5 6t-7.5 15zM14 102q0 43 6.5 86t16.5 86q10 35 20 58q12 25 34 31t48 -11q23 -12 41 -35q0 -2 3 -4t5 -4q8 -16 -8 -20q-4 -2 -14 -2l4 -13q4 -14 7 -20t11 -18q4 -4 4.5 -12.5t4.5 -4.5q2 -2 14 -4t30.5 1t39 12.5
t38.5 29.5q10 10 25.5 20.5t24.5 6.5q10 -6 3 -22.5t-26.5 -34t-48.5 -32t-61 -16.5q-20 0 -38 2t-18 -16q0 -70 -39 -135q-8 -16 -22.5 -26.5t-29.5 -13.5t-30.5 1t-23.5 20q-12 23 -16.5 45.5t-4.5 44.5zM59 82q-4 -29 4 -47q12 -29 23.5 -16.5t22.5 32.5q18 39 23 78
t9 86q4 16 -4 26.5t-26 24.5q-6 4 -15.5 8.5t-13.5 -12.5l-8 -47q-4 -33 -9.5 -65.5t-5.5 -67.5z" />
    <glyph glyph-name="otilde" unicode="&#xf5;" horiz-adv-x="315" 
d="M-20 518q4 14 16 29.5t26.5 28t29 19.5t24.5 7q23 0 55 -32q6 -2 15 -15q10 -12 23.5 -26.5t27.5 -14.5q23 0 36 16.5t23 32.5q6 10 13.5 19.5t17.5 9.5q6 0 12 -5t6 -13q0 -4 -2 -6l-47 -62q-12 -16 -24.5 -23.5t-22.5 -7.5q-23 0 -43 17.5t-39 36.5q-14 16 -26.5 27.5
t-26.5 11.5q-10 0 -29.5 -19t-23.5 -35q-6 -16 -21 -16q-16 0 -20 20zM14 102q0 43 6.5 86t16.5 86q10 35 20 58q12 25 34 31t48 -11q23 -12 41 -35q0 -2 3 -4t5 -4q8 -16 -8 -20q-4 -2 -14 -2l4 -13q4 -14 7 -20t11 -18q4 -4 4.5 -12.5t4.5 -4.5q2 -2 14 -4t30.5 1t39 12.5
t38.5 29.5q10 10 25.5 20.5t24.5 6.5q10 -6 3 -22.5t-26.5 -34t-48.5 -32t-61 -16.5q-20 0 -38 2t-18 -16q0 -70 -39 -135q-8 -16 -22.5 -26.5t-29.5 -13.5t-30.5 1t-23.5 20q-12 23 -16.5 45.5t-4.5 44.5zM59 82q-4 -29 4 -47q12 -29 23.5 -16.5t22.5 32.5q18 39 23 78
t9 86q4 16 -4 26.5t-26 24.5q-6 4 -15.5 8.5t-13.5 -12.5l-8 -47q-4 -33 -9.5 -65.5t-5.5 -67.5z" />
    <glyph glyph-name="odieresis" unicode="&#xf6;" horiz-adv-x="315" 
d="M8 532q0 25 37 37h19q10 -2 19 -7t9 -17q0 -10 -4 -16.5t-8 -14.5q-6 -10 -14.5 -14t-14.5 -4q-16 0 -29.5 11t-13.5 25zM14 102q0 43 6.5 86t16.5 86q10 35 20 58q12 25 34 31t48 -11q23 -12 41 -35q0 -2 3 -4t5 -4q8 -16 -8 -20q-4 -2 -14 -2l4 -13q4 -14 7 -20t11 -18
q4 -4 4.5 -12.5t4.5 -4.5q2 -2 14 -4t30.5 1t39 12.5t38.5 29.5q10 10 25.5 20.5t24.5 6.5q10 -6 3 -22.5t-26.5 -34t-48.5 -32t-61 -16.5q-20 0 -38 2t-18 -16q0 -70 -39 -135q-8 -16 -22.5 -26.5t-29.5 -13.5t-30.5 1t-23.5 20q-12 23 -16.5 45.5t-4.5 44.5zM59 82
q-4 -29 4 -47q12 -29 23.5 -16.5t22.5 32.5q18 39 23 78t9 86q4 16 -4 26.5t-26 24.5q-6 4 -15.5 8.5t-13.5 -12.5l-8 -47q-4 -33 -9.5 -65.5t-5.5 -67.5zM154 512q4 16 20.5 35.5t30.5 19.5q18 0 35.5 -15t17.5 -32q0 -12 -15.5 -23.5t-49.5 -11.5q-16 0 -27.5 7.5
t-11.5 19.5z" />
    <glyph glyph-name="oslash" unicode="&#xf8;" horiz-adv-x="280" 
d="M-8 111q2 57 16.5 117.5t30.5 97.5q10 23 33.5 49t48.5 31q14 0 27.5 -8.5t17.5 -24.5q39 -74 36 -158t-50 -158q-12 -16 -27.5 -29.5t-32.5 -17.5q-27 -6 -49.5 0t-38.5 33q-4 16 -8 32.5t-4 35.5zM37 113l119 182q0 10 -2 16l-4 11l-23 24q-8 8 -19.5 -1t-22.5 -27.5
t-20.5 -41t-13.5 -40.5q-10 -27 -13 -59t-1 -64zM45 68q4 -12 18.5 -19.5t34.5 8.5q25 27 37 61t17 72q0 20 6 43q0 4 1 10.5t1 12.5z" />
    <glyph glyph-name="ugrave" unicode="&#xf9;" horiz-adv-x="530" 
d="M-6 131q0 106 39 213q6 16 22 21q14 6 27 -7q4 -4 6 -9t-2 -13q-12 -23 -19.5 -45.5t-11.5 -46.5q-16 -72 -16 -129v-21.5t4 -17.5q23 12 37 32.5t29 43.5q25 35 43 70.5t41 70.5q10 6 22 3t18 -13q4 -16 5 -31q2 -12 2 -23.5v-25.5q0 -43 11 -89t36 -81q20 -23 51 -15
q66 27 105.5 76t82.5 111q14 27 23.5 47t25.5 24l15 5q2 -2 2 -5l-12 -36q-23 -49 -57 -104.5t-70 -88.5q-14 -14 -30.5 -27.5t-37.5 -23.5h2q-29 -14 -59 -14q-31 0 -58 20q-43 33 -56 80t-17 98v2q0 2 -4 11l-11 -9l-22 -32q-20 -37 -48 -72t-67 -49q-10 0 -18 4
q-12 6 -18.5 15t-10.5 18q-2 14 -3 31.5t-1 31.5zM115 614h2q-4 4 1 13.5t20 13.5q6 -2 19 -4t17 -6q16 -10 39 -54l25 -45q8 -10 4 -11t-13 2t-22.5 10t-23.5 18q-8 8 -17.5 16t-13.5 12q-6 6 -18.5 15.5t-18.5 19.5z" />
    <glyph glyph-name="uacute" unicode="&#xfa;" horiz-adv-x="530" 
d="M-6 131q0 106 39 213q6 16 22 21q14 6 27 -7q4 -4 6 -9t-2 -13q-12 -23 -19.5 -45.5t-11.5 -46.5q-16 -72 -16 -129v-21.5t4 -17.5q23 12 37 32.5t29 43.5q25 35 43 70.5t41 70.5q10 6 22 3t18 -13q4 -16 5 -31q2 -12 2 -23.5v-25.5q0 -43 11 -89t36 -81q20 -23 51 -15
q66 27 105.5 76t82.5 111q14 27 23.5 47t25.5 24l15 5q2 -2 2 -5l-12 -36q-23 -49 -57 -104.5t-70 -88.5q-14 -14 -30.5 -27.5t-37.5 -23.5h2q-29 -14 -59 -14q-31 0 -58 20q-43 33 -56 80t-17 98v2q0 2 -4 11l-11 -9l-22 -32q-20 -37 -48 -72t-67 -49q-10 0 -18 4
q-12 6 -18.5 15t-10.5 18q-2 14 -3 31.5t-1 31.5zM154 499q0 8 8 17q12 10 49 49t70 72q6 8 16 8q20 0 20 -19q0 -10 -6 -16q-29 -33 -58.5 -65.5t-64.5 -61.5q-4 -4 -14 -4q-20 0 -20 20z" />
    <glyph glyph-name="ucircumflex" unicode="&#xfb;" horiz-adv-x="530" 
d="M-6 131q0 106 39 213q6 16 22 21q14 6 27 -7q4 -4 6 -9t-2 -13q-12 -23 -19.5 -45.5t-11.5 -46.5q-16 -72 -16 -129v-21.5t4 -17.5q23 12 37 32.5t29 43.5q25 35 43 70.5t41 70.5q10 6 22 3t18 -13q4 -16 5 -31q2 -12 2 -23.5v-25.5q0 -43 11 -89t36 -81q20 -23 51 -15
q66 27 105.5 76t82.5 111q14 27 23.5 47t25.5 24l15 5q2 -2 2 -5l-12 -36q-23 -49 -57 -104.5t-70 -88.5q-14 -14 -30.5 -27.5t-37.5 -23.5h2q-29 -14 -59 -14q-31 0 -58 20q-43 33 -56 80t-17 98v2q0 2 -4 11l-11 -9l-22 -32q-20 -37 -48 -72t-67 -49q-10 0 -18 4
q-12 6 -18.5 15t-10.5 18q-2 14 -3 31.5t-1 31.5zM63 508q0 4 11.5 20t26 36.5t28.5 39t20 24.5q0 2 5.5 3.5t9.5 1.5q27 0 51.5 -21.5t44.5 -46.5q8 -10 19.5 -22.5t19.5 -20.5q4 -4 4 -10q0 -16 -20 -17q-12 0 -25.5 13.5t-30.5 29.5q-2 0 -4 3l-4 6l-14 14
q-8 10 -16.5 18t-22.5 17q0 -4 -12.5 -21.5t-22.5 -32.5l-6 -6q-16 -20 -16 -30q-6 -18 -23 -19q-8 0 -15.5 6t-7.5 15z" />
    <glyph glyph-name="udieresis" unicode="&#xfc;" horiz-adv-x="530" 
d="M-6 131q0 106 39 213q6 16 22 21q14 6 27 -7q4 -4 6 -9t-2 -13q-12 -23 -19.5 -45.5t-11.5 -46.5q-16 -72 -16 -129v-21.5t4 -17.5q23 12 37 32.5t29 43.5q25 35 43 70.5t41 70.5q10 6 22 3t18 -13q4 -16 5 -31q2 -12 2 -23.5v-25.5q0 -43 11 -89t36 -81q20 -23 51 -15
q66 27 105.5 76t82.5 111q14 27 23.5 47t25.5 24l15 5q2 -2 2 -5l-12 -36q-23 -49 -57 -104.5t-70 -88.5q-14 -14 -30.5 -27.5t-37.5 -23.5h2q-29 -14 -59 -14q-31 0 -58 20q-43 33 -56 80t-17 98v2q0 2 -4 11l-11 -9l-22 -32q-20 -37 -48 -72t-67 -49q-10 0 -18 4
q-12 6 -18.5 15t-10.5 18q-2 14 -3 31.5t-1 31.5zM61 557q0 25 37 37h19q10 -2 19 -7t9 -17q0 -10 -4 -16.5t-8 -14.5q-6 -10 -14.5 -14t-14.5 -4q-16 0 -29.5 11t-13.5 25zM207 537q4 16 20.5 35.5t30.5 19.5q18 0 35.5 -15t17.5 -32q0 -12 -15.5 -23.5t-49.5 -11.5
q-16 0 -27.5 7.5t-11.5 19.5z" />
    <glyph glyph-name="yacute" unicode="&#xfd;" horiz-adv-x="464" 
d="M-74 -1354q-8 262 68 510t207 473q20 35 40.5 67t47.5 64l18 21q8 10 10 20.5t2 24.5v291q-2 68 -2 137.5v134.5v66q0 8 -2 10l-12 -4q-20 -51 -36.5 -101.5t-43.5 -99.5q-8 -16 -15 -30.5t-18 -30.5q-16 -20 -30.5 -44t-29.5 -45.5t-34.5 -39t-46.5 -25.5q-39 -6 -49 41
q-4 20 -3 42t5 42q6 53 20.5 108.5t36.5 102.5q10 20 19.5 24.5t15.5 -1t6 -17.5t-6 -27q-23 -49 -31 -105l-18 -126q-2 -6 -1 -15.5t5 -13.5q12 -6 27 9l6 6q25 33 47.5 68.5t44.5 76.5q35 76 65.5 164t51.5 168q4 10 8 23.5t10 23.5q8 14 23 12q14 -4 20 -15t8 -24.5
t1 -28t1 -26.5q2 -80 2.5 -161t0.5 -165l2 -352v-16q0 -16 20 -6q39 29 83 51t89 49q8 4 17.5 6t15.5 -8q12 -12 -14 -27q-53 -33 -111.5 -65.5t-97.5 -79.5q-4 -12 -4 -25q4 -106 -2.5 -210.5t-10.5 -211.5q-14 -115 -26.5 -235.5t-37 -237t-65.5 -226.5t-112 -204
q-14 -14 -29.5 -19t-30.5 -5q-45 0 -76 49q-29 47 -36 92t-13 96zM-31 -1241q-2 -61 2 -123.5t27 -122.5q10 -27 22 -41q14 -18 26.5 -18t33.5 14q51 68 84 147.5t54.5 164.5t34.5 172t30 169q14 119 23 235t11 234v111q0 6 -4 10v-2q-4 4 -5 4h-5l-8 -6q-47 -63 -85 -133
t-71 -143q-66 -162 -115 -328t-55 -344zM142 698q0 8 8 17q12 10 49 49t70 72q6 8 16 8q20 0 20 -19q0 -10 -6 -16q-29 -33 -58.5 -65.5t-64.5 -61.5q-4 -4 -14 -4q-20 0 -20 20z" />
    <glyph glyph-name="thorn" unicode="&#xfe;" horiz-adv-x="378" 
d="M8 201q0 27 4 51t13 53q4 12 3 27.5t-1 29.5q2 29 2 58v53q2 66 4 130.5t8 127.5q2 53 6 103.5t8 97.5q4 57 15 98q0 10 8 23q8 10 19.5 9t13.5 -13q8 -18 8 -45q4 -4 1 -9.5t-7 -9.5q-8 -4 -9.5 -12t-5.5 -17q-6 -102 -12 -200.5t-10 -202.5q0 -33 -1 -65.5t-1 -63.5v-4
q0 -2 2 -4h10q10 8 17.5 15t15.5 11q90 33 139 -39q35 -47 41 -99t-10 -103q-6 -33 -17.5 -64t-31.5 -59q-12 -18 -26.5 -36.5t-29.5 -37.5q-2 -10 -16 -14q-18 -16 -36.5 -17.5t-35.5 21.5q0 2 -4 2t-6 4q0 -4 -2 -6t-2 -4v-27q0 -4 2 -11t2 -13h-4q6 -53 12 -105.5
t10 -105.5q4 -41 6.5 -84t8.5 -84q4 -29 9 -59.5t9 -61.5q4 -10 6 -18.5t13 -16.5q4 -4 4 -7t4 -5q2 -14 -10 -25q-16 -12 -29 0q-14 18 -16 27l-19 63q-12 72 -19.5 141.5t-13.5 141.5q-6 82 -11 164t-13 164q-2 16 -4 30.5t-11 30.5q-8 16 -9 34.5t-1 37.5zM74 254l4 -129
v-27.5t2 -29.5v-9q2 2 2 13q4 16 10 33.5t10 37.5q4 16 17 23q10 4 18 1t8 -13q0 -8 -4 -25q-8 -23 -9 -46.5t1 -45.5q0 -2 4 -10l17 6q10 14 19 26.5t17 26.5q29 51 47.5 103.5t12.5 115.5q-6 45 -39 88q-20 16 -47 16.5t-45 -16.5q-51 -51 -45 -112v-27z" />
    <glyph glyph-name="ydieresis" unicode="&#xff;" horiz-adv-x="464" 
d="M-74 -1354q-8 262 68 510t207 473q20 35 40.5 67t47.5 64l18 21q8 10 10 20.5t2 24.5v291q-2 68 -2 137.5v134.5v66q0 8 -2 10l-12 -4q-20 -51 -36.5 -101.5t-43.5 -99.5q-8 -16 -15 -30.5t-18 -30.5q-16 -20 -30.5 -44t-29.5 -45.5t-34.5 -39t-46.5 -25.5q-39 -6 -49 41
q-4 20 -3 42t5 42q6 53 20.5 108.5t36.5 102.5q10 20 19.5 24.5t15.5 -1t6 -17.5t-6 -27q-23 -49 -31 -105l-18 -126q-2 -6 -1 -15.5t5 -13.5q12 -6 27 9l6 6q25 33 47.5 68.5t44.5 76.5q35 76 65.5 164t51.5 168q4 10 8 23.5t10 23.5q8 14 23 12q14 -4 20 -15t8 -24.5
t1 -28t1 -26.5q2 -80 2.5 -161t0.5 -165l2 -352v-16q0 -16 20 -6q39 29 83 51t89 49q8 4 17.5 6t15.5 -8q12 -12 -14 -27q-53 -33 -111.5 -65.5t-97.5 -79.5q-4 -12 -4 -25q4 -106 -2.5 -210.5t-10.5 -211.5q-14 -115 -26.5 -235.5t-37 -237t-65.5 -226.5t-112 -204
q-14 -14 -29.5 -19t-30.5 -5q-45 0 -76 49q-29 47 -36 92t-13 96zM-31 -1241q-2 -61 2 -123.5t27 -122.5q10 -27 22 -41q14 -18 26.5 -18t33.5 14q51 68 84 147.5t54.5 164.5t34.5 172t30 169q14 119 23 235t11 234v111q0 6 -4 10v-2q-4 4 -5 4h-5l-8 -6q-47 -63 -85 -133
t-71 -143q-66 -162 -115 -328t-55 -344zM8 665q0 25 37 37h19q10 -2 19 -7t9 -17q0 -10 -4 -16.5t-8 -14.5q-6 -10 -14.5 -14t-14.5 -4q-16 0 -29.5 11t-13.5 25zM154 645q4 16 20.5 35.5t30.5 19.5q18 0 35.5 -15t17.5 -32q0 -12 -15.5 -23.5t-49.5 -11.5q-16 0 -27.5 7.5
t-11.5 19.5z" />
    <glyph glyph-name="OE" unicode="&#x152;" horiz-adv-x="1744" 
d="M80 483q0 35 1 72t3 72q4 104 19.5 210.5t43.5 204.5q16 47 36 98.5t42 94.5q4 8 11.5 15t11.5 16q10 14 20.5 26.5t20.5 24.5q23 23 50.5 39t61.5 20h9q2 0 4 1t6 1q23 -4 29 -16q0 -2 1 -3t1 -3q8 -16 -2.5 -33.5t-28 -30t-38 -19.5t-30.5 -3q-12 2 -19 -6.5t-11 -18.5
v2q-23 -31 -41.5 -69.5t-34.5 -79.5q-25 -70 -42.5 -141.5t-29.5 -145.5q-12 -72 -19.5 -152.5t-9.5 -154.5q-2 -25 -2 -50.5v-50.5q0 -150 19 -297q10 -68 21.5 -134t27.5 -134q14 -47 31.5 -97t40.5 -95q16 -31 33.5 -59.5t37.5 -47.5q39 -37 88 -39q23 -2 52 8
q45 18 81.5 48t67.5 67q23 27 43.5 53.5t38.5 55.5q10 14 21.5 30.5t21.5 30.5h-27q-10 -4 -20 -10t-21 -12l-20 -11q-37 -16 -81 -19t-85 3q-35 10 -66.5 33.5t-54.5 48.5q-37 47 -61.5 100.5t-40.5 102.5q-25 90 -34 182t-13 184q-2 119 12 232q8 72 22.5 144.5
t36.5 141.5q23 68 47.5 134.5t59.5 130.5q27 49 57.5 101t67.5 103q43 55 90 106.5t106 96.5q43 35 90.5 60.5t102.5 35.5q61 12 105 -8t79 -59q20 -23 32.5 -47.5t23.5 -50.5q16 -47 23 -92.5t11 -92.5l127 60q51 20 108.5 40.5t106.5 36.5q117 37 238 50h90q23 -4 23 -19
q0 -6 -8.5 -13t-14.5 -11h-31q-88 0 -170 -19q-121 -29 -238.5 -76t-228.5 -100q2 -16 2 -29.5v-29.5v-33t-2 -33l2 6q4 18 8.5 38t8.5 38q2 10 8 20.5t18 10.5q10 0 16.5 -12.5t6.5 -28.5v-15q-2 -14 -4 -27.5t-12 -27.5l-4 -8q-18 -119 -35 -234.5t-31 -234.5q0 -16 16 -8
l56 30l55 33l229 125q18 8 37 12q16 4 27 -2q14 -4 14 -20q0 -4 -8 -12q0 -2 -2 -3t-2 -4q-41 -12 -75 -29.5t-62 -37.5h2l-27 -16q-41 -25 -87 -50.5t-87 -52.5l-66 -39h3l-23 -10q-14 -10 -16 -33l-31 -211q-29 -180 -53.5 -356t-28.5 -358q-2 -6 0 -15.5t6 -15.5l4 -17
q16 0 24.5 6.5t14.5 14.5l148 156q16 18 33.5 36.5t37.5 34.5q57 49 113.5 98.5t114.5 96.5q29 25 59.5 48t60.5 46q6 4 16.5 9t14.5 7l17 9q18 8 32 -5q23 -23 13 -41q-8 -16 -27 -40q-25 -25 -49 2q-6 6 -12.5 4t-10.5 -6l-55 -46q-16 -14 -40 -30.5t-40 -32.5l-37 -33
l-131 -121q-37 -35 -72 -71l-55 -62q-57 -61 -119 -119q-6 -6 -13 -11t-15 -9h2q-23 -10 -44.5 -3t-29.5 30q-14 41 -16 73q-4 137 17.5 270.5t37.5 268.5q10 55 18.5 110.5t16.5 110.5q6 31 10 60.5t8 58.5q0 4 1 7t1 7q0 8 -6 13h-4l-31 -119l-12 -45l-16 -51
q-6 -16 -12.5 -35t-10.5 -35l-29 -76q-14 -37 -28.5 -72.5t-30.5 -72.5q-12 -33 -28.5 -65t-32.5 -64l-25 -49q-16 -33 -37.5 -67t-48.5 -75t-56.5 -81t-66.5 -74q-55 -55 -121 -82q-31 -16 -71 -17q-72 0 -134 62q-35 35 -57 69.5t-39 75.5q-33 76 -55.5 159t-38.5 161
q-16 96 -29.5 197.5t-17.5 199.5q0 27 -1 51.5t-1 50.5zM287 420q0 -82 6 -158q6 -70 18.5 -136.5t34.5 -131.5q18 -43 40 -84t52 -74q16 -20 42 -35.5t55 -19.5q27 -4 54 -2t50 12q25 10 52.5 23.5t47.5 27.5q35 25 67 60t54 75q27 51 49.5 108.5t42.5 111.5q0 8 4 12
q29 68 51.5 142.5t43.5 148.5l-31 -19q-41 -29 -76 -57q-16 -12 -33 -37q-16 -18 -36.5 -30.5t-38.5 -20.5q-12 0 -22.5 11t-6.5 24q2 14 20 28q16 12 31.5 25.5t32.5 26.5l100 77q37 27 80 56q25 96 47.5 204.5t32.5 210.5q10 63 14 129t6 132q-72 -37 -149.5 -80
t-140.5 -84q-49 -33 -97.5 -68t-89.5 -76q-12 -12 -22 -30l-8 -13v2q-10 -14 -21 -10q-20 8 -14 23q4 10 9 21t15 22q49 51 101 92q98 82 200.5 140t212.5 112l-16 129q-10 35 -21.5 70.5t-29.5 66.5q-27 37 -63 55.5t-83 12.5l-59 -17q-55 -25 -101 -57.5t-87 -71.5
t-80 -86t-72 -94q-37 -55 -73 -124t-64 -132q-27 -66 -50.5 -131.5t-35.5 -136.5q-4 -31 -11.5 -62t-13.5 -61q0 -4 -2 -11.5t-2 -11.5q-8 -55 -12 -113.5t-4 -115.5zM1130 629l7 14l2 19l-6 -27q0 -2 -1.5 -3t-1.5 -3z" />
    <glyph glyph-name="oe" unicode="&#x153;" horiz-adv-x="534" 
d="M10 104q0 43 6.5 86t16.5 86q10 35 20 58q12 25 34 31t48 -11q23 -12 41 -35q0 -2 3 -4t5 -4q8 -16 -8 -20q-4 -2 -14 -2l4 -13q2 -10 5 -16l7 -14q12 53 32.5 103t47.5 97q29 45 76 27q14 -8 26.5 -24.5t14.5 -36.5q0 -33 -15 -72q-8 -16 -22 -35.5t-30.5 -37t-33 -29
t-28.5 -13.5q-18 -4 -23 -8q-4 -4 -4 -12q0 -33 -5 -66t3 -63q0 -2 1 -4t1 -4q10 -35 26.5 -40t43.5 -1q27 8 49 19t41 24q35 25 60.5 49t47.5 53q14 23 33 45.5t29 48.5q14 29 37 29q6 -4 5 -15.5t-16 -37.5v2q-51 -78 -118.5 -149.5t-163.5 -102.5q-14 -2 -31.5 -1
t-34.5 9q-25 10 -40 34.5t-19 53.5q-2 2 -2 10q-6 -16 -12.5 -32.5t-16.5 -32.5q-8 -16 -22.5 -26.5t-29.5 -13.5t-30.5 1t-23.5 20q-12 23 -16.5 45.5t-4.5 44.5zM55 84q-4 -29 4 -47q12 -29 23.5 -16.5t21.5 32.5q18 39 23.5 78t9.5 86q4 16 -4 26.5t-27 24.5
q-6 4 -15 8.5t-13 -12.5l-8 -47q-4 -33 -9.5 -65.5t-5.5 -67.5zM237 284q1 -1 1 -5v-7q23 10 30.5 18.5t20.5 22.5q35 47 37 99v4l-2 12l-21 2l-12 -10q-18 -35 -29.5 -64.5t-21.5 -58.5q-2 -4 -2 -6v-2q-2 -4 -1 -5z" />
    <glyph glyph-name="Ydieresis" unicode="&#x178;" horiz-adv-x="935" 
d="M-41 678q0 41 2 83t6 87q10 123 31.5 251t69.5 244q2 10 22 31q12 12 16.5 12t14.5 -14q18 -18 6 -31q-72 -170 -90.5 -356t-18.5 -371v-77l7 -68q2 -10 6 -23.5t14 -17.5q12 -4 27.5 5t25.5 18q47 43 84 94t68 104q66 111 120 227.5t103 243.5q16 45 31.5 88t30.5 88
l49 140q8 18 13 36.5t11 36.5l13 37l8 21q10 16 26.5 18t28.5 -14v2q12 -20 18 -47q23 -76 35.5 -152t22.5 -153q14 -104 26.5 -216t24.5 -219l4 -41l6 -40q2 -23 25 -17q4 0 8 2t16 6l31 13q2 0 3 1t3 1q10 4 17 2q6 0 12 -6q0 -4 -1 -9.5t-3 -7.5q-10 -10 -17 -10l-47 -21
l-18 -6q-23 -12 -21 -32q8 -70 14.5 -137.5t10.5 -139.5t7 -143.5t3 -143.5q0 -53 -2 -111.5t-6 -111.5q-6 -104 -24.5 -210.5t-49.5 -209.5q-18 -59 -44.5 -118.5t-61.5 -114.5q-18 -27 -39 -50.5t-49 -41.5q-47 -31 -90 -31q-59 0 -113 57q-31 35 -50.5 73t-31.5 79
q-23 72 -32 145.5t-9 149.5q2 76 10.5 147.5t22.5 143.5q18 98 48 197.5t69 191.5q35 74 77.5 147.5t102.5 132.5q39 39 78 69t84 52q23 12 27.5 21.5t0.5 31.5q-10 76 -21 151t-24 148l-55 367l-6 37l-8 55l-9 10l-6 -6q-10 -18 -16 -38.5t-10 -39.5l-21 -71l-149 -367
q-29 -76 -71 -156.5t-87 -156.5q-29 -47 -60.5 -94.5t-68.5 -88.5q-18 -20 -39 -38h2l-16 -13q-27 -27 -72 -22q-37 6 -53 39q-18 72 -25.5 136t-7.5 130zM233 1693q0 25 37 37h19q10 -2 19 -7t9 -17q0 -10 -4 -16.5t-8 -14.5q-6 -10 -14.5 -14t-14.5 -4q-16 0 -29.5 11
t-13.5 25zM301 -385.5q-2 -58.5 0 -118.5q4 -68 16.5 -137.5t40.5 -132.5q12 -27 30 -54.5t40 -45.5q35 -29 70 -29q31 0 61 18q29 16 49.5 38t36.5 48q45 68 74 143.5t49 157.5q20 84 32.5 171t16.5 173l12 275l-10 147l-12 191q-4 35 -7 69.5t-7 67.5q-2 25 -27 14
q-51 -29 -100.5 -68.5t-87.5 -82.5q-41 -51 -74 -112.5t-62 -125.5q-33 -78 -58.5 -156.5t-41.5 -160.5l-31 -174q-8 -57 -10 -115.5zM379 1673q4 16 20.5 35.5t30.5 19.5q18 0 35.5 -15t17.5 -32q0 -12 -15.5 -23.5t-49.5 -11.5q-16 0 -27.5 7.5t-11.5 19.5zM870 696l2 2z
" />
    <glyph glyph-name="circumflex" unicode="&#x2c6;" horiz-adv-x="575" 
d="M190 709q0 4 11.5 20t26 36.5t28.5 39t20 24.5q0 2 5.5 3.5t9.5 1.5q27 0 51.5 -21.5t44.5 -46.5q8 -10 19.5 -22.5t19.5 -20.5q4 -4 4 -10q0 -16 -20 -17q-12 0 -25.5 13.5t-30.5 29.5q-2 0 -4 3l-4 6l-14 14q-8 10 -16.5 18t-22.5 17q0 -4 -12.5 -21.5t-22.5 -32.5
l-6 -6q-16 -20 -16 -30q-6 -18 -23 -19q-8 0 -15.5 6t-7.5 15z" />
    <glyph glyph-name="tilde" unicode="&#x2dc;" horiz-adv-x="651" 
d="M162 698q4 14 16 29.5t26.5 28t29 19.5t24.5 7q23 0 55 -32q6 -2 15 -15q10 -12 23.5 -26.5t27.5 -14.5q23 0 36 16.5t23 32.5q6 10 13.5 19.5t17.5 9.5q6 0 12 -5t6 -13q0 -4 -2 -6l-47 -62q-12 -16 -24.5 -23.5t-22.5 -7.5q-23 0 -43 17.5t-39 36.5q-14 16 -26.5 27.5
t-26.5 11.5q-10 0 -29.5 -19t-23.5 -35q-6 -16 -21 -16q-16 0 -20 20z" />
    <glyph glyph-name="uni2000" unicode="&#x2000;" horiz-adv-x="1006" 
 />
    <glyph glyph-name="uni2001" unicode="&#x2001;" horiz-adv-x="2013" 
 />
    <glyph glyph-name="uni2002" unicode="&#x2002;" horiz-adv-x="1006" 
 />
    <glyph glyph-name="uni2003" unicode="&#x2003;" horiz-adv-x="2013" 
 />
    <glyph glyph-name="uni2004" unicode="&#x2004;" horiz-adv-x="671" 
 />
    <glyph glyph-name="uni2005" unicode="&#x2005;" horiz-adv-x="503" 
 />
    <glyph glyph-name="uni2006" unicode="&#x2006;" horiz-adv-x="335" 
 />
    <glyph glyph-name="uni2007" unicode="&#x2007;" horiz-adv-x="335" 
 />
    <glyph glyph-name="uni2008" unicode="&#x2008;" horiz-adv-x="251" 
 />
    <glyph glyph-name="uni2009" unicode="&#x2009;" horiz-adv-x="402" 
 />
    <glyph glyph-name="uni200A" unicode="&#x200a;" horiz-adv-x="111" 
 />
    <glyph glyph-name="uni2010" unicode="&#x2010;" horiz-adv-x="616" 
d="M141 285q2 6 2 16l2 -2l103 14q35 2 56.5 0t42 -3t43 -2t59.5 3q4 -2 13 -5t11 -11q6 -25 -2 -27q-4 -2 -5 -1t-5 -1q-31 -2 -51.5 -3t-38 -1h-37t-49.5 4q-33 0 -65 -1t-62 -3q-2 -2 -6 -2q-4 2 -7.5 5t-3.5 20z" />
    <glyph glyph-name="uni2011" unicode="&#x2011;" horiz-adv-x="616" 
d="M141 285q2 6 2 16l2 -2l103 14q35 2 56.5 0t42 -3t43 -2t59.5 3q4 -2 13 -5t11 -11q6 -25 -2 -27q-4 -2 -5 -1t-5 -1q-31 -2 -51.5 -3t-38 -1h-37t-49.5 4q-33 0 -65 -1t-62 -3q-2 -2 -6 -2q-4 2 -7.5 5t-3.5 20z" />
    <glyph glyph-name="figuredash" unicode="&#x2012;" horiz-adv-x="616" 
d="M141 285q2 6 2 16l2 -2l103 14q35 2 56.5 0t42 -3t43 -2t59.5 3q4 -2 13 -5t11 -11q6 -25 -2 -27q-4 -2 -5 -1t-5 -1q-31 -2 -51.5 -3t-38 -1h-37t-49.5 4q-33 0 -65 -1t-62 -3q-2 -2 -6 -2q-4 2 -7.5 5t-3.5 20z" />
    <glyph glyph-name="endash" unicode="&#x2013;" horiz-adv-x="1304" 
d="M141 285q6 6 6 16l6 -2l315 14q108 2 173.5 0t128.5 -3t131.5 -2t182.5 3q12 -2 39.5 -5t33.5 -11q18 -25 -6 -27q-12 -2 -15 -1t-16 -1q-94 -2 -157 -3t-116.5 -1h-113t-151.5 4q-101 0 -199 -1t-190 -3q-6 -2 -18 -2q-13 2 -23.5 5t-10.5 20z" />
    <glyph glyph-name="emdash" unicode="&#x2014;" horiz-adv-x="2328" 
d="M141 285q12 6 12 16l12 -2l631 14q214 2 345.5 0t257 -3t263.5 -2t364 3q25 -2 80 -5t67 -11q37 -25 -12 -27q-24 -2 -30.5 -1t-30.5 -1q-190 -2 -315.5 -3t-232.5 -1h-226.5t-303.5 4q-202 0 -397.5 -1t-379.5 -3q-12 -2 -37 -2q-24 2 -45.5 5t-21.5 20z" />
    <glyph glyph-name="quoteleft" unicode="&#x2018;" horiz-adv-x="139" 
d="M37 883q4 10 5 22.5t1 18.5q2 10 4 23.5t8 29.5v-2q4 4 18.5 14t24.5 6q6 0 13.5 -7t9.5 -11q4 -14 -29 -70l-33 -57q-10 -29 -20 -13.5t-2 46.5z" />
    <glyph glyph-name="quoteright" unicode="&#x2019;" horiz-adv-x="139" 
d="M37 883q4 10 5 22.5t1 18.5q2 10 4 23.5t8 29.5v-2q4 4 18.5 14t24.5 6q6 0 13.5 -7t9.5 -11q4 -14 -29 -70l-33 -57q-10 -29 -20 -13.5t-2 46.5z" />
    <glyph glyph-name="quotedblleft" unicode="&#x201c;" horiz-adv-x="231" 
d="M37 942v25.5t2 36.5q4 4 13 17t20 11q6 0 12 -7t10 -13q4 -10 1 -28.5t-7 -55.5l-10 -90q0 -18 -6 -19.5t-13.5 10t-12.5 28.5t-5 36q0 29 -4 49zM153 975.5q-1 17.5 3 36.5v-2q2 8 11 19t19 9q6 0 13.5 -7t9.5 -11q4 -10 1 -29.5t-7 -54.5l-10 -92q0 -18 -6.5 -18.5
t-13.5 11t-12 29t-5 35.5v25.5t-2 21.5q0 10 -1 27.5z" />
    <glyph glyph-name="quotedblright" unicode="&#x201d;" horiz-adv-x="231" 
d="M37 942v25.5t2 36.5q4 4 13 17t20 11q6 0 12 -7t10 -13q4 -10 1 -28.5t-7 -55.5l-10 -90q0 -18 -6 -19.5t-13.5 10t-12.5 28.5t-5 36q0 29 -4 49zM153 975.5q-1 17.5 3 36.5v-2q2 8 11 19t19 9q6 0 13.5 -7t9.5 -11q4 -10 1 -29.5t-7 -54.5l-10 -92q0 -18 -6.5 -18.5
t-13.5 11t-12 29t-5 35.5v25.5t-2 21.5q0 10 -1 27.5z" />
    <glyph glyph-name="uni202F" unicode="&#x202f;" horiz-adv-x="402" 
 />
    <glyph glyph-name="uni205F" unicode="&#x205f;" horiz-adv-x="503" 
 />
    <glyph glyph-name="Euro" unicode="&#x20ac;" horiz-adv-x="753" 
d="M-8 193q0 18 8 20l24.5 14t24.5 11q18 6 36.5 12t39.5 10q23 4 36 16.5t23 34.5q23 47 49.5 89t55.5 81q29 33 54.5 61.5t53.5 55.5q18 14 39 23.5t45 9.5q25 4 43.5 -8.5t28.5 -34.5q4 -16 8 -29.5t4 -30.5q0 -37 -6 -73q0 -4 -2 -8.5t-4 -8.5q-4 -4 -9 -8t-7 -4
q-4 4 -10.5 9t-8.5 9q0 10 1 21.5t1 23.5h2l-4 64q-12 49 -61 25q-23 -12 -37 -27.5t-31 -32.5q-37 -41 -69.5 -86t-61.5 -94q-6 -8 -9 -20.5t-7 -22.5q10 -10 22 -6t23 0h45q18 -4 18 -21q0 -16 -16 -20l-64 -8q-29 -4 -41 -5.5t-18 -5.5t-9 -15t-14 -36q-10 -23 -14 -44
t-4 -44q0 -12 14 -10q8 6 23 10q74 27 144.5 54.5t142.5 58.5h8q29 6 35 -15q8 -18 -23 -28q-35 -14 -70.5 -29.5t-74.5 -32.5q-43 -16 -87 -32.5t-89 -32.5q-16 -6 -20.5 -12.5t1.5 -22.5q25 -66 80 -86q78 -29 152.5 -20.5t146.5 49.5q55 29 92 88q8 12 13.5 28.5
t9.5 32.5q8 20 14 26.5t16 2.5q23 -2 17 -43q-6 -31 -20.5 -58.5t-35.5 -56.5q-25 -29 -55.5 -49.5t-58.5 -36.5q-41 -23 -85 -30t-89 -9q-78 -6 -144 27q-82 31 -102 117q-6 10 -10 18t-17 10q-18 2 -20 16.5t12 20.5q14 8 17.5 17.5t7.5 25.5q2 23 8 47.5t10 48.5
q2 6 2 12.5v10.5q-6 0 -13 2t-13 -2q-20 -6 -40 -12.5t-40 -10.5q-6 -4 -17 -4q-8 0 -14 1t-6 12z" />
    <glyph glyph-name="uni25FC" unicode="&#x25fc;" horiz-adv-x="419" 
d="M0 0v420h420v-420h-420z" />
    </font>
</defs>
</svg>
